# Blender 4.2.16 LTS
# www.blender.org
mtllib caster_wheel.mtl
o Caster_wheel
v 0.000000 0.018371 -0.006159
v 0.004396 0.017837 -0.006159
v 0.008537 0.016267 -0.006159
v 0.012182 0.013751 -0.006159
v 0.015119 0.010436 -0.006159
v 0.017177 0.006514 -0.006159
v 0.018237 0.002214 -0.006159
v 0.018237 -0.002214 -0.006159
v 0.017177 -0.006514 -0.006159
v 0.015119 -0.010436 -0.006159
v 0.012182 -0.013751 -0.006159
v 0.008537 -0.016267 -0.006159
v 0.004396 -0.017837 -0.006159
v 0.000000 -0.018371 -0.006159
v -0.004396 -0.017837 -0.006159
v -0.008537 -0.016267 -0.006159
v -0.012182 -0.013751 -0.006159
v -0.015119 -0.010436 -0.006159
v -0.017177 -0.006514 -0.006159
v -0.018237 -0.002214 -0.006159
v -0.018237 0.002214 -0.006159
v -0.017177 0.006514 -0.006159
v -0.015119 0.010436 -0.006159
v -0.012182 0.013751 -0.006159
v -0.008537 0.016267 -0.006159
v -0.004396 0.017837 -0.006159
v 0.000000 0.019000 0.000000
v 0.004547 0.018448 0.000000
v 0.008830 0.016824 0.000000
v 0.012599 0.014222 0.000000
v 0.015637 0.010793 0.000000
v 0.017765 0.006737 0.000000
v 0.018862 0.002290 0.000000
v 0.018862 -0.002290 0.000000
v 0.017765 -0.006737 0.000000
v 0.015637 -0.010793 0.000000
v 0.012599 -0.014222 0.000000
v 0.008830 -0.016824 0.000000
v 0.004547 -0.018448 0.000000
v 0.000000 -0.019000 0.000000
v -0.004547 -0.018448 -0.000000
v -0.008830 -0.016824 -0.000000
v -0.012599 -0.014222 -0.000000
v -0.015637 -0.010793 -0.000000
v -0.017765 -0.006737 -0.000000
v -0.018862 -0.002290 -0.000000
v -0.018862 0.002290 -0.000000
v -0.017765 0.006737 -0.000000
v -0.015637 0.010793 -0.000000
v -0.012599 0.014222 -0.000000
v -0.008830 0.016824 -0.000000
v -0.004547 0.018448 -0.000000
v 0.000000 0.017232 -0.007888
v 0.004124 0.016731 -0.007888
v 0.008008 0.015258 -0.007888
v 0.011427 0.012898 -0.007888
v 0.014182 0.009789 -0.007888
v 0.016112 0.006111 -0.007888
v 0.017106 0.002077 -0.007888
v 0.017106 -0.002077 -0.007888
v 0.016112 -0.006111 -0.007888
v 0.014182 -0.009789 -0.007888
v 0.011427 -0.012898 -0.007888
v 0.008008 -0.015258 -0.007888
v 0.004124 -0.016731 -0.007888
v 0.000000 -0.017232 -0.007888
v -0.004124 -0.016731 -0.007888
v -0.008008 -0.015258 -0.007888
v -0.011427 -0.012898 -0.007888
v -0.014182 -0.009789 -0.007888
v -0.016112 -0.006111 -0.007888
v -0.017106 -0.002077 -0.007888
v -0.017106 0.002077 -0.007888
v -0.016112 0.006111 -0.007888
v -0.014182 0.009789 -0.007888
v -0.011427 0.012898 -0.007888
v -0.008008 0.015258 -0.007888
v -0.004124 0.016731 -0.007888
v 0.000000 0.012001 -0.008525
v 0.002872 0.011652 -0.008525
v 0.005577 0.010626 -0.008525
v 0.007958 0.008983 -0.008525
v 0.009877 0.006817 -0.008525
v 0.011221 0.004256 -0.008525
v 0.011914 0.001447 -0.008525
v 0.011914 -0.001447 -0.008525
v 0.011221 -0.004256 -0.008525
v 0.009877 -0.006817 -0.008525
v 0.007958 -0.008983 -0.008525
v 0.005577 -0.010626 -0.008525
v 0.002872 -0.011652 -0.008525
v 0.000000 -0.012001 -0.008525
v -0.002872 -0.011652 -0.008525
v -0.005577 -0.010626 -0.008525
v -0.007958 -0.008983 -0.008525
v -0.009877 -0.006817 -0.008525
v -0.011221 -0.004256 -0.008525
v -0.011914 -0.001447 -0.008525
v -0.011914 0.001447 -0.008525
v -0.011221 0.004256 -0.008525
v -0.009877 0.006817 -0.008525
v -0.007958 0.008983 -0.008525
v -0.005577 0.010626 -0.008525
v -0.002872 0.011652 -0.008525
v 0.000000 0.015983 -0.008525
v 0.003825 0.015519 -0.008525
v 0.007428 0.014152 -0.008525
v 0.010599 0.011963 -0.008525
v 0.013154 0.009079 -0.008525
v 0.014944 0.005668 -0.008525
v 0.015866 0.001927 -0.008525
v 0.015866 -0.001927 -0.008525
v 0.014944 -0.005668 -0.008525
v 0.013154 -0.009079 -0.008525
v 0.010599 -0.011963 -0.008525
v 0.007428 -0.014152 -0.008525
v 0.003825 -0.015519 -0.008525
v 0.000000 -0.015983 -0.008525
v -0.003825 -0.015519 -0.008525
v -0.007428 -0.014152 -0.008525
v -0.010599 -0.011963 -0.008525
v -0.013154 -0.009079 -0.008525
v -0.014944 -0.005668 -0.008525
v -0.015866 -0.001927 -0.008525
v -0.015866 0.001927 -0.008525
v -0.014944 0.005668 -0.008525
v -0.013154 0.009079 -0.008525
v -0.010599 0.011963 -0.008525
v -0.007428 0.014152 -0.008525
v -0.003825 0.015519 -0.008525
v 0.000000 0.009500 -0.009026
v 0.002274 0.009224 -0.009026
v 0.004415 0.008412 -0.009026
v 0.006300 0.007111 -0.009026
v 0.007818 0.005397 -0.009026
v 0.008883 0.003369 -0.009026
v 0.009431 0.001145 -0.009026
v 0.009431 -0.001145 -0.009026
v 0.008883 -0.003369 -0.009026
v 0.007818 -0.005397 -0.009026
v 0.006300 -0.007111 -0.009026
v 0.004415 -0.008412 -0.009026
v 0.002274 -0.009224 -0.009026
v 0.000000 -0.009500 -0.009026
v -0.002274 -0.009224 -0.009026
v -0.004415 -0.008412 -0.009026
v -0.006300 -0.007111 -0.009026
v -0.007818 -0.005397 -0.009026
v -0.008883 -0.003369 -0.009026
v -0.009431 -0.001145 -0.009026
v -0.009431 0.001145 -0.009026
v -0.008883 0.003369 -0.009026
v -0.007818 0.005397 -0.009026
v -0.006300 0.007111 -0.009026
v -0.004415 0.008412 -0.009026
v -0.002274 0.009224 -0.009026
v 0.000000 0.012001 -0.007987
v 0.002872 0.011652 -0.007987
v 0.005577 0.010626 -0.007987
v 0.007958 0.008983 -0.007987
v 0.009877 0.006817 -0.007987
v 0.011221 0.004256 -0.007987
v 0.011914 0.001447 -0.007987
v 0.011914 -0.001447 -0.007987
v 0.011221 -0.004256 -0.007987
v 0.009877 -0.006817 -0.007987
v 0.007958 -0.008983 -0.007987
v 0.005577 -0.010626 -0.007987
v 0.002872 -0.011652 -0.007987
v 0.000000 -0.012001 -0.007987
v -0.002872 -0.011652 -0.007987
v -0.005577 -0.010626 -0.007987
v -0.007958 -0.008983 -0.007987
v -0.009877 -0.006817 -0.007987
v -0.011221 -0.004256 -0.007987
v -0.011914 -0.001447 -0.007987
v -0.011914 0.001447 -0.007987
v -0.011221 0.004256 -0.007987
v -0.009877 0.006817 -0.007987
v -0.007958 0.008983 -0.007987
v -0.005577 0.010626 -0.007987
v -0.002872 0.011652 -0.007987
v 0.000000 0.010943 -0.007987
v 0.002619 0.010625 -0.007987
v 0.005085 0.009689 -0.007987
v 0.007256 0.008191 -0.007987
v 0.009006 0.006216 -0.007987
v 0.010232 0.003880 -0.007987
v 0.010863 0.001319 -0.007987
v 0.010863 -0.001319 -0.007987
v 0.010232 -0.003880 -0.007987
v 0.009006 -0.006216 -0.007987
v 0.007256 -0.008191 -0.007987
v 0.005085 -0.009689 -0.007987
v 0.002619 -0.010625 -0.007987
v 0.000000 -0.010943 -0.007987
v -0.002619 -0.010625 -0.007987
v -0.005085 -0.009689 -0.007987
v -0.007256 -0.008191 -0.007987
v -0.009006 -0.006216 -0.007987
v -0.010232 -0.003880 -0.007987
v -0.010863 -0.001319 -0.007987
v -0.010863 0.001319 -0.007987
v -0.010232 0.003880 -0.007987
v -0.009006 0.006216 -0.007987
v -0.007256 0.008191 -0.007987
v -0.005085 0.009689 -0.007987
v -0.002619 0.010625 -0.007987
v 0.000000 0.007866 -0.009911
v 0.001882 0.007637 -0.009911
v 0.003655 0.006965 -0.009911
v 0.005216 0.005888 -0.009911
v 0.006473 0.004468 -0.009911
v 0.007355 0.002789 -0.009911
v 0.007809 0.000948 -0.009911
v 0.007809 -0.000948 -0.009911
v 0.007355 -0.002789 -0.009911
v 0.006473 -0.004468 -0.009911
v 0.005216 -0.005888 -0.009911
v 0.003655 -0.006965 -0.009911
v 0.001882 -0.007637 -0.009911
v 0.000000 -0.007866 -0.009911
v -0.001882 -0.007637 -0.009911
v -0.003655 -0.006965 -0.009911
v -0.005216 -0.005888 -0.009911
v -0.006473 -0.004468 -0.009911
v -0.007355 -0.002789 -0.009911
v -0.007809 -0.000948 -0.009911
v -0.007809 0.000948 -0.009911
v -0.007355 0.002789 -0.009911
v -0.006473 0.004468 -0.009911
v -0.005216 0.005888 -0.009911
v -0.003655 0.006965 -0.009911
v -0.001882 0.007637 -0.009911
v 0.000000 0.006402 -0.010334
v 0.001532 0.006216 -0.010334
v 0.002975 0.005668 -0.010334
v 0.004245 0.004792 -0.010334
v 0.005268 0.003637 -0.010334
v 0.005986 0.002270 -0.010334
v 0.006355 0.000772 -0.010334
v 0.006355 -0.000772 -0.010334
v 0.005986 -0.002270 -0.010334
v 0.005268 -0.003637 -0.010334
v 0.004245 -0.004792 -0.010334
v 0.002975 -0.005668 -0.010334
v 0.001532 -0.006216 -0.010334
v 0.000000 -0.006402 -0.010334
v -0.001532 -0.006216 -0.010334
v -0.002975 -0.005668 -0.010334
v -0.004245 -0.004792 -0.010334
v -0.005268 -0.003637 -0.010334
v -0.005986 -0.002270 -0.010334
v -0.006355 -0.000772 -0.010334
v -0.006355 0.000772 -0.010334
v -0.005986 0.002270 -0.010334
v -0.005268 0.003637 -0.010334
v -0.004245 0.004792 -0.010334
v -0.002975 0.005668 -0.010334
v -0.001532 0.006216 -0.010334
v 0.000000 0.003894 -0.010535
v 0.000932 0.003781 -0.010535
v 0.001810 0.003448 -0.010535
v 0.002582 0.002915 -0.010535
v 0.003205 0.002212 -0.010535
v 0.003641 0.001381 -0.010535
v 0.003866 0.000469 -0.010535
v 0.003866 -0.000469 -0.010535
v 0.003641 -0.001381 -0.010535
v 0.003205 -0.002212 -0.010535
v 0.002582 -0.002915 -0.010535
v 0.001810 -0.003448 -0.010535
v 0.000932 -0.003781 -0.010535
v 0.000000 -0.003894 -0.010535
v -0.000932 -0.003781 -0.010535
v -0.001810 -0.003448 -0.010535
v -0.002582 -0.002915 -0.010535
v -0.003205 -0.002212 -0.010535
v -0.003641 -0.001381 -0.010535
v -0.003866 -0.000469 -0.010535
v -0.003866 0.000469 -0.010535
v -0.003641 0.001381 -0.010535
v -0.003205 0.002212 -0.010535
v -0.002582 0.002915 -0.010535
v -0.001810 0.003448 -0.010535
v -0.000932 0.003781 -0.010535
v 0.001013 0.003343 0.000000
v -0.003343 0.001013 -0.010535
v 0.003081 0.001648 0.000000
v -0.003081 -0.001648 -0.010535
v 0.003343 -0.001013 0.000000
v 0.001648 -0.003081 -0.010535
v -0.001648 0.003081 -0.000000
v -0.001013 -0.003343 -0.010535
v -0.001013 -0.003343 -0.000000
v -0.001648 0.003081 -0.010535
v 0.001648 -0.003081 0.000000
v 0.003343 -0.001013 -0.010535
v -0.003081 -0.001648 -0.000000
v 0.003081 0.001648 -0.010535
v -0.003343 0.001013 -0.000000
v 0.001013 0.003343 -0.010535
v -0.000000 0.018371 0.006159
v 0.004396 0.017837 0.006159
v 0.008537 0.016267 0.006159
v 0.012182 0.013751 0.006159
v 0.015119 0.010436 0.006159
v 0.017177 0.006514 0.006159
v 0.018237 0.002214 0.006159
v 0.018237 -0.002214 0.006159
v 0.017177 -0.006514 0.006159
v 0.015119 -0.010436 0.006159
v 0.012182 -0.013751 0.006159
v 0.008537 -0.016267 0.006159
v 0.004396 -0.017837 0.006159
v -0.000000 -0.018371 0.006159
v -0.004396 -0.017837 0.006159
v -0.008537 -0.016267 0.006159
v -0.012182 -0.013751 0.006159
v -0.015119 -0.010436 0.006159
v -0.017177 -0.006514 0.006159
v -0.018237 -0.002214 0.006159
v -0.018237 0.002214 0.006159
v -0.017177 0.006514 0.006159
v -0.015119 0.010436 0.006159
v -0.012182 0.013751 0.006159
v -0.008537 0.016267 0.006159
v -0.004396 0.017837 0.006159
v -0.000000 0.017232 0.007888
v 0.004124 0.016731 0.007888
v 0.008008 0.015258 0.007888
v 0.011427 0.012898 0.007888
v 0.014182 0.009789 0.007888
v 0.016112 0.006111 0.007888
v 0.017106 0.002077 0.007888
v 0.017106 -0.002077 0.007888
v 0.016112 -0.006111 0.007888
v 0.014182 -0.009789 0.007888
v 0.011427 -0.012898 0.007888
v 0.008008 -0.015258 0.007888
v 0.004124 -0.016731 0.007888
v -0.000000 -0.017232 0.007888
v -0.004124 -0.016731 0.007888
v -0.008008 -0.015258 0.007888
v -0.011427 -0.012898 0.007888
v -0.014182 -0.009789 0.007888
v -0.016112 -0.006111 0.007888
v -0.017106 -0.002077 0.007888
v -0.017106 0.002077 0.007888
v -0.016112 0.006111 0.007888
v -0.014182 0.009789 0.007888
v -0.011427 0.012898 0.007888
v -0.008008 0.015258 0.007888
v -0.004124 0.016731 0.007888
v -0.000000 0.012001 0.008525
v 0.002872 0.011652 0.008525
v 0.005577 0.010626 0.008525
v 0.007958 0.008983 0.008525
v 0.009877 0.006817 0.008525
v 0.011221 0.004256 0.008525
v 0.011914 0.001447 0.008525
v 0.011914 -0.001447 0.008525
v 0.011221 -0.004256 0.008525
v 0.009877 -0.006817 0.008525
v 0.007958 -0.008983 0.008525
v 0.005577 -0.010626 0.008525
v 0.002872 -0.011652 0.008525
v -0.000000 -0.012001 0.008525
v -0.002872 -0.011652 0.008525
v -0.005577 -0.010626 0.008525
v -0.007958 -0.008983 0.008525
v -0.009877 -0.006817 0.008525
v -0.011221 -0.004256 0.008525
v -0.011914 -0.001447 0.008525
v -0.011914 0.001447 0.008525
v -0.011221 0.004256 0.008525
v -0.009877 0.006817 0.008525
v -0.007958 0.008983 0.008525
v -0.005577 0.010626 0.008525
v -0.002872 0.011652 0.008525
v -0.000000 0.015983 0.008525
v 0.003825 0.015519 0.008525
v 0.007428 0.014152 0.008525
v 0.010599 0.011963 0.008525
v 0.013154 0.009079 0.008525
v 0.014944 0.005668 0.008525
v 0.015866 0.001927 0.008525
v 0.015866 -0.001927 0.008525
v 0.014944 -0.005668 0.008525
v 0.013154 -0.009079 0.008525
v 0.010599 -0.011963 0.008525
v 0.007428 -0.014152 0.008525
v 0.003825 -0.015519 0.008525
v -0.000000 -0.015983 0.008525
v -0.003825 -0.015519 0.008525
v -0.007428 -0.014152 0.008525
v -0.010599 -0.011963 0.008525
v -0.013154 -0.009079 0.008525
v -0.014944 -0.005668 0.008525
v -0.015866 -0.001927 0.008525
v -0.015866 0.001927 0.008525
v -0.014944 0.005668 0.008525
v -0.013154 0.009079 0.008525
v -0.010599 0.011963 0.008525
v -0.007428 0.014152 0.008525
v -0.003825 0.015519 0.008525
v -0.000000 0.009500 0.009026
v 0.002274 0.009224 0.009026
v 0.004415 0.008412 0.009026
v 0.006300 0.007111 0.009026
v 0.007818 0.005397 0.009026
v 0.008883 0.003369 0.009026
v 0.009431 0.001145 0.009026
v 0.009431 -0.001145 0.009026
v 0.008883 -0.003369 0.009026
v 0.007818 -0.005397 0.009026
v 0.006300 -0.007111 0.009026
v 0.004415 -0.008412 0.009026
v 0.002274 -0.009224 0.009026
v -0.000000 -0.009500 0.009026
v -0.002274 -0.009224 0.009026
v -0.004415 -0.008412 0.009026
v -0.006300 -0.007111 0.009026
v -0.007818 -0.005397 0.009026
v -0.008883 -0.003369 0.009026
v -0.009431 -0.001145 0.009026
v -0.009431 0.001145 0.009026
v -0.008883 0.003369 0.009026
v -0.007818 0.005397 0.009026
v -0.006300 0.007111 0.009026
v -0.004415 0.008412 0.009026
v -0.002274 0.009224 0.009026
v -0.000000 0.012001 0.007987
v 0.002872 0.011652 0.007987
v 0.005577 0.010626 0.007987
v 0.007958 0.008983 0.007987
v 0.009877 0.006817 0.007987
v 0.011221 0.004256 0.007987
v 0.011914 0.001447 0.007987
v 0.011914 -0.001447 0.007987
v 0.011221 -0.004256 0.007987
v 0.009877 -0.006817 0.007987
v 0.007958 -0.008983 0.007987
v 0.005577 -0.010626 0.007987
v 0.002872 -0.011652 0.007987
v -0.000000 -0.012001 0.007987
v -0.002872 -0.011652 0.007987
v -0.005577 -0.010626 0.007987
v -0.007958 -0.008983 0.007987
v -0.009877 -0.006817 0.007987
v -0.011221 -0.004256 0.007987
v -0.011914 -0.001447 0.007987
v -0.011914 0.001447 0.007987
v -0.011221 0.004256 0.007987
v -0.009877 0.006817 0.007987
v -0.007958 0.008983 0.007987
v -0.005577 0.010626 0.007987
v -0.002872 0.011652 0.007987
v -0.000000 0.010943 0.007987
v 0.002619 0.010625 0.007987
v 0.005085 0.009689 0.007987
v 0.007256 0.008191 0.007987
v 0.009006 0.006216 0.007987
v 0.010232 0.003880 0.007987
v 0.010863 0.001319 0.007987
v 0.010863 -0.001319 0.007987
v 0.010232 -0.003880 0.007987
v 0.009006 -0.006216 0.007987
v 0.007256 -0.008191 0.007987
v 0.005085 -0.009689 0.007987
v 0.002619 -0.010625 0.007987
v -0.000000 -0.010943 0.007987
v -0.002619 -0.010625 0.007987
v -0.005085 -0.009689 0.007987
v -0.007256 -0.008191 0.007987
v -0.009006 -0.006216 0.007987
v -0.010232 -0.003880 0.007987
v -0.010863 -0.001319 0.007987
v -0.010863 0.001319 0.007987
v -0.010232 0.003880 0.007987
v -0.009006 0.006216 0.007987
v -0.007256 0.008191 0.007987
v -0.005085 0.009689 0.007987
v -0.002619 0.010625 0.007987
v -0.000000 0.007866 0.009911
v 0.001882 0.007637 0.009911
v 0.003655 0.006965 0.009911
v 0.005216 0.005888 0.009911
v 0.006473 0.004468 0.009911
v 0.007355 0.002789 0.009911
v 0.007809 0.000948 0.009911
v 0.007809 -0.000948 0.009911
v 0.007355 -0.002789 0.009911
v 0.006473 -0.004468 0.009911
v 0.005216 -0.005888 0.009911
v 0.003655 -0.006965 0.009911
v 0.001882 -0.007637 0.009911
v -0.000000 -0.007866 0.009911
v -0.001882 -0.007637 0.009911
v -0.003655 -0.006965 0.009911
v -0.005216 -0.005888 0.009911
v -0.006473 -0.004468 0.009911
v -0.007355 -0.002789 0.009911
v -0.007809 -0.000948 0.009911
v -0.007809 0.000948 0.009911
v -0.007355 0.002789 0.009911
v -0.006473 0.004468 0.009911
v -0.005216 0.005888 0.009911
v -0.003655 0.006965 0.009911
v -0.001882 0.007637 0.009911
v -0.000000 0.006402 0.010334
v 0.001532 0.006216 0.010334
v 0.002975 0.005668 0.010334
v 0.004245 0.004792 0.010334
v 0.005268 0.003637 0.010334
v 0.005986 0.002270 0.010334
v 0.006355 0.000772 0.010334
v 0.006355 -0.000772 0.010334
v 0.005986 -0.002270 0.010334
v 0.005268 -0.003637 0.010334
v 0.004245 -0.004792 0.010334
v 0.002975 -0.005668 0.010334
v 0.001532 -0.006216 0.010334
v -0.000000 -0.006402 0.010334
v -0.001532 -0.006216 0.010334
v -0.002975 -0.005668 0.010334
v -0.004245 -0.004792 0.010334
v -0.005268 -0.003637 0.010334
v -0.005986 -0.002270 0.010334
v -0.006355 -0.000772 0.010334
v -0.006355 0.000772 0.010334
v -0.005986 0.002270 0.010334
v -0.005268 0.003637 0.010334
v -0.004245 0.004792 0.010334
v -0.002975 0.005668 0.010334
v -0.001532 0.006216 0.010334
v -0.000000 0.003894 0.010535
v 0.000932 0.003781 0.010535
v 0.001810 0.003448 0.010535
v 0.002582 0.002915 0.010535
v 0.003205 0.002212 0.010535
v 0.003641 0.001381 0.010535
v 0.003866 0.000469 0.010535
v 0.003866 -0.000469 0.010535
v 0.003641 -0.001381 0.010535
v 0.003205 -0.002212 0.010535
v 0.002582 -0.002915 0.010535
v 0.001810 -0.003448 0.010535
v 0.000932 -0.003781 0.010535
v -0.000000 -0.003894 0.010535
v -0.000932 -0.003781 0.010535
v -0.001810 -0.003448 0.010535
v -0.002582 -0.002915 0.010535
v -0.003205 -0.002212 0.010535
v -0.003641 -0.001381 0.010535
v -0.003866 -0.000469 0.010535
v -0.003866 0.000469 0.010535
v -0.003641 0.001381 0.010535
v -0.003205 0.002212 0.010535
v -0.002582 0.002915 0.010535
v -0.001810 0.003448 0.010535
v -0.000932 0.003781 0.010535
v -0.003343 0.001013 0.010535
v -0.003081 -0.001648 0.010535
v 0.001648 -0.003081 0.010535
v -0.001013 -0.003343 0.010535
v -0.001648 0.003081 0.010535
v 0.003343 -0.001013 0.010535
v 0.003081 0.001648 0.010535
v 0.001013 0.003343 0.010535
vn -0.0000 -0.9440 -0.3298
vn -0.1621 -0.6578 -0.7355
vn -0.0000 -0.6775 -0.7355
vn -0.2259 0.9166 -0.3298
vn -0.0000 1.0000 -0.0000
vn -0.0000 0.9440 -0.3298
vn -0.4387 0.8359 -0.3298
vn -0.2393 0.9709 -0.0000
vn -0.6260 0.7066 -0.3298
vn -0.4647 0.8855 -0.0000
vn -0.7769 0.5363 -0.3298
vn -0.6631 0.7485 -0.0000
vn -0.8827 0.3348 -0.3298
vn -0.8230 0.5681 -0.0000
vn -0.9372 0.1138 -0.3298
vn -0.9350 0.3546 -0.0000
vn -0.9372 -0.1138 -0.3298
vn -0.9927 0.1205 -0.0000
vn -0.8827 -0.3348 -0.3298
vn -0.9927 -0.1205 -0.0000
vn -0.7769 -0.5363 -0.3298
vn -0.9350 -0.3546 -0.0000
vn -0.6260 -0.7066 -0.3298
vn -0.8230 -0.5681 -0.0000
vn -0.4387 -0.8359 -0.3298
vn -0.6631 -0.7485 -0.0000
vn -0.2259 -0.9166 -0.3298
vn -0.4647 -0.8855 -0.0000
vn -0.2393 -0.9709 -0.0000
vn 0.2259 -0.9166 -0.3298
vn -0.0000 -1.0000 -0.0000
vn 0.4387 -0.8359 -0.3298
vn 0.2393 -0.9709 -0.0000
vn 0.6260 -0.7066 -0.3298
vn 0.4647 -0.8855 -0.0000
vn 0.7769 -0.5363 -0.3298
vn 0.6631 -0.7485 -0.0000
vn 0.8827 -0.3348 -0.3298
vn 0.8230 -0.5681 -0.0000
vn 0.9372 -0.1138 -0.3298
vn 0.9350 -0.3546 -0.0000
vn 0.9372 0.1138 -0.3298
vn 0.9927 -0.1205 -0.0000
vn 0.8827 0.3348 -0.3298
vn 0.9927 0.1205 -0.0000
vn 0.7769 0.5363 -0.3298
vn 0.9350 0.3546 -0.0000
vn 0.6260 0.7066 -0.3298
vn 0.8230 0.5681 -0.0000
vn 0.4387 0.8359 -0.3298
vn 0.6631 0.7485 -0.0000
vn 0.2259 0.9166 -0.3298
vn 0.4647 0.8855 -0.0000
vn 0.2393 0.9709 -0.0000
vn -0.5576 0.3849 -0.7355
vn -0.3014 0.3402 -0.8908
vn -0.3740 0.2582 -0.8908
vn 0.4493 0.5071 -0.7355
vn 0.3149 0.5999 -0.7355
vn -0.6335 -0.2403 -0.7355
vn -0.5576 -0.3849 -0.7355
vn 0.6726 -0.0817 -0.7355
vn 0.6726 0.0817 -0.7355
vn -0.6335 0.2403 -0.7355
vn 0.3149 -0.5999 -0.7355
vn 0.4493 -0.5071 -0.7355
vn -0.0000 0.6775 -0.7355
vn -0.1621 0.6578 -0.7355
vn -0.3149 -0.5999 -0.7355
vn 0.5576 0.3849 -0.7355
vn -0.6726 -0.0817 -0.7355
vn 0.6335 -0.2403 -0.7355
vn -0.4493 0.5071 -0.7355
vn 0.1621 -0.6578 -0.7355
vn 0.1621 0.6578 -0.7355
vn -0.4493 -0.5071 -0.7355
vn 0.6335 0.2403 -0.7355
vn -0.6726 0.0817 -0.7355
vn 0.5576 -0.3849 -0.7355
vn -0.3149 0.5999 -0.7355
vn 0.1088 0.4412 -0.8908
vn -0.0000 0.4544 -0.8908
vn -0.3014 -0.3402 -0.8908
vn -0.2112 -0.4024 -0.8908
vn 0.3740 -0.2582 -0.8908
vn 0.4249 -0.1611 -0.8908
vn -0.2112 0.4024 -0.8908
vn 0.2112 0.4024 -0.8908
vn -0.3740 -0.2582 -0.8908
vn 0.3014 -0.3402 -0.8908
vn -0.1088 0.4412 -0.8908
vn 0.3014 0.3402 -0.8908
vn -0.4249 -0.1611 -0.8908
vn 0.2112 -0.4024 -0.8908
vn 0.3740 0.2582 -0.8908
vn -0.4511 -0.0548 -0.8908
vn 0.1088 -0.4412 -0.8908
vn 0.4249 0.1611 -0.8908
vn -0.4511 0.0548 -0.8908
vn -0.0000 -0.4544 -0.8908
vn 0.4511 0.0548 -0.8908
vn -0.4249 0.1611 -0.8908
vn -0.1088 -0.4412 -0.8908
vn 0.4511 -0.0548 -0.8908
vn -0.0000 -0.0000 -1.0000
vn -0.5001 -0.1897 -0.8449
vn -0.3833 -0.0465 -0.9224
vn -0.3611 -0.1369 -0.9224
vn 0.1280 0.5194 -0.8449
vn -0.0000 0.5844 -0.8114
vn 0.1399 0.5675 -0.8114
vn 0.2486 0.4736 -0.8449
vn 0.2716 0.5175 -0.8114
vn 0.3547 0.4004 -0.8449
vn 0.3876 0.4375 -0.8114
vn 0.4402 0.3039 -0.8449
vn 0.4810 0.3320 -0.8114
vn 0.5001 0.1897 -0.8449
vn 0.5465 0.2072 -0.8114
vn 0.5310 0.0645 -0.8449
vn 0.5802 0.0704 -0.8114
vn 0.5310 -0.0645 -0.8449
vn 0.5802 -0.0704 -0.8114
vn 0.5001 -0.1897 -0.8449
vn 0.5465 -0.2072 -0.8114
vn 0.4402 -0.3039 -0.8449
vn 0.4810 -0.3320 -0.8114
vn 0.3547 -0.4004 -0.8449
vn 0.3876 -0.4375 -0.8114
vn 0.2486 -0.4736 -0.8449
vn 0.2716 -0.5175 -0.8114
vn 0.1280 -0.5194 -0.8449
vn 0.1399 -0.5675 -0.8114
vn -0.0000 -0.5349 -0.8449
vn -0.0000 -0.5844 -0.8114
vn -0.1280 -0.5194 -0.8449
vn -0.1399 -0.5675 -0.8114
vn -0.2486 -0.4736 -0.8449
vn -0.2716 -0.5175 -0.8114
vn -0.3547 -0.4004 -0.8449
vn -0.3876 -0.4375 -0.8114
vn -0.4402 -0.3039 -0.8449
vn -0.4810 -0.3320 -0.8114
vn -0.5465 -0.2072 -0.8114
vn -0.5310 -0.0645 -0.8449
vn -0.5802 -0.0704 -0.8114
vn -0.5310 0.0645 -0.8449
vn -0.5802 0.0704 -0.8114
vn -0.5001 0.1897 -0.8449
vn -0.5465 0.2072 -0.8114
vn -0.4402 0.3039 -0.8449
vn -0.4810 0.3320 -0.8114
vn -0.3547 0.4004 -0.8449
vn -0.3875 0.4375 -0.8114
vn -0.2486 0.4736 -0.8449
vn -0.2716 0.5175 -0.8114
vn -0.1280 0.5194 -0.8449
vn -0.1399 0.5675 -0.8114
vn -0.0000 0.5349 -0.8449
vn 0.2561 0.2890 -0.9224
vn 0.1541 0.1063 -0.9823
vn 0.1241 0.1401 -0.9823
vn 0.0924 -0.3749 -0.9224
vn 0.1795 -0.3419 -0.9224
vn 0.3611 0.1369 -0.9224
vn 0.3178 0.2194 -0.9224
vn -0.3833 0.0465 -0.9224
vn -0.0000 -0.3862 -0.9224
vn 0.3833 0.0465 -0.9224
vn -0.3611 0.1369 -0.9224
vn -0.0924 -0.3749 -0.9224
vn 0.3833 -0.0465 -0.9224
vn -0.3178 0.2194 -0.9224
vn -0.1795 -0.3419 -0.9224
vn 0.3611 -0.1369 -0.9224
vn -0.2561 0.2890 -0.9224
vn 0.0924 0.3749 -0.9224
vn -0.0000 0.3862 -0.9224
vn -0.2561 -0.2890 -0.9224
vn 0.3178 -0.2194 -0.9224
vn -0.1795 0.3419 -0.9224
vn 0.1795 0.3419 -0.9224
vn -0.3178 -0.2194 -0.9224
vn 0.2561 -0.2890 -0.9224
vn -0.0924 0.3749 -0.9224
vn -0.1858 -0.0226 -0.9823
vn -0.1750 -0.0664 -0.9823
vn 0.0448 -0.1817 -0.9823
vn 0.0870 -0.1657 -0.9823
vn 0.1750 0.0664 -0.9823
vn -0.1858 0.0226 -0.9823
vn -0.0000 -0.1872 -0.9823
vn 0.1858 0.0226 -0.9823
vn -0.1750 0.0664 -0.9823
vn -0.0448 -0.1817 -0.9823
vn 0.1858 -0.0226 -0.9823
vn -0.1541 0.1063 -0.9823
vn -0.0870 -0.1657 -0.9823
vn 0.1750 -0.0664 -0.9823
vn -0.1241 0.1401 -0.9823
vn 0.0448 0.1817 -0.9823
vn -0.0000 0.1872 -0.9823
vn -0.1241 -0.1401 -0.9823
vn 0.1541 -0.1063 -0.9823
vn -0.0870 0.1657 -0.9823
vn 0.0870 0.1657 -0.9823
vn -0.1541 -0.1063 -0.9823
vn 0.1241 -0.1401 -0.9823
vn -0.0448 0.1817 -0.9823
vn 0.0103 0.0418 -0.9991
vn 0.0200 0.0381 -0.9991
vn 0.0286 0.0322 -0.9991
vn 0.0354 0.0245 -0.9991
vn 0.0403 0.0153 -0.9991
vn 0.0427 0.0052 -0.9991
vn 0.0427 -0.0052 -0.9991
vn 0.0403 -0.0153 -0.9991
vn 0.0354 -0.0245 -0.9991
vn 0.0286 -0.0322 -0.9991
vn 0.0200 -0.0381 -0.9991
vn 0.0103 -0.0418 -0.9991
vn -0.0000 -0.0431 -0.9991
vn -0.0103 -0.0418 -0.9991
vn -0.0200 -0.0381 -0.9991
vn -0.0286 -0.0322 -0.9991
vn -0.0354 -0.0245 -0.9991
vn -0.0403 -0.0153 -0.9991
vn -0.0427 -0.0052 -0.9991
vn -0.0427 0.0052 -0.9991
vn -0.0403 0.0153 -0.9991
vn -0.0354 0.0245 -0.9991
vn -0.0286 0.0322 -0.9991
vn -0.0200 0.0381 -0.9991
vn -0.0103 0.0418 -0.9991
vn -0.0000 0.0431 -0.9991
vn 0.9570 -0.2900 -0.0000
vn 0.4716 -0.8818 -0.0000
vn -0.2900 -0.9570 -0.0000
vn -0.8818 -0.4716 -0.0000
vn 0.8818 0.4717 -0.0000
vn 0.8818 0.4716 -0.0000
vn 0.4717 -0.8818 -0.0000
vn 0.2900 0.9570 -0.0000
vn -0.4717 0.8818 -0.0000
vn -0.4716 0.8818 -0.0000
vn -0.9570 0.2900 -0.0000
vn -0.8818 -0.4717 -0.0000
vn -0.0000 -0.9440 0.3298
vn -0.1621 -0.6578 0.7355
vn -0.2259 -0.9166 0.3298
vn -0.2259 0.9166 0.3298
vn -0.4387 0.8359 0.3298
vn -0.6260 0.7066 0.3298
vn -0.7769 0.5363 0.3298
vn -0.8827 0.3348 0.3298
vn -0.9372 0.1138 0.3298
vn -0.9372 -0.1138 0.3298
vn -0.8827 -0.3348 0.3298
vn -0.7769 -0.5363 0.3298
vn -0.6260 -0.7066 0.3298
vn -0.4387 -0.8359 0.3298
vn 0.2259 -0.9166 0.3298
vn 0.4387 -0.8359 0.3298
vn 0.6260 -0.7066 0.3298
vn 0.7769 -0.5363 0.3298
vn 0.8827 -0.3348 0.3298
vn 0.9372 -0.1138 0.3298
vn 0.9372 0.1138 0.3298
vn 0.8827 0.3348 0.3298
vn 0.7769 0.5363 0.3298
vn 0.6260 0.7066 0.3298
vn 0.4387 0.8359 0.3298
vn 0.2259 0.9166 0.3298
vn -0.0000 0.9440 0.3298
vn -0.5576 0.3849 0.7355
vn -0.3014 0.3402 0.8908
vn -0.4493 0.5071 0.7355
vn 0.4493 0.5071 0.7355
vn -0.6335 -0.2403 0.7355
vn 0.6726 -0.0817 0.7355
vn 0.3149 -0.5999 0.7355
vn -0.0000 0.6775 0.7355
vn -0.3149 -0.5999 0.7355
vn 0.5576 0.3849 0.7355
vn -0.6726 -0.0817 0.7355
vn 0.6335 -0.2403 0.7355
vn 0.1621 -0.6578 0.7355
vn 0.1621 0.6578 0.7355
vn -0.4493 -0.5071 0.7355
vn 0.6335 0.2403 0.7355
vn -0.6726 0.0817 0.7355
vn 0.5576 -0.3849 0.7355
vn -0.3149 0.5999 0.7355
vn -0.0000 -0.6775 0.7355
vn 0.3149 0.5999 0.7355
vn -0.5576 -0.3849 0.7355
vn 0.6726 0.0817 0.7355
vn -0.6335 0.2403 0.7355
vn 0.4493 -0.5071 0.7355
vn -0.1621 0.6578 0.7355
vn 0.1088 0.4412 0.8908
vn -0.3014 -0.3402 0.8908
vn 0.3740 -0.2582 0.8908
vn -0.2112 0.4024 0.8908
vn 0.2112 0.4024 0.8908
vn -0.3740 -0.2582 0.8908
vn 0.3014 -0.3402 0.8908
vn -0.1088 0.4412 0.8908
vn 0.3014 0.3402 0.8908
vn -0.4249 -0.1611 0.8908
vn 0.2112 -0.4024 0.8908
vn -0.0000 0.4544 0.8908
vn 0.3740 0.2582 0.8908
vn -0.4511 -0.0548 0.8908
vn 0.1088 -0.4412 0.8908
vn 0.4249 0.1611 0.8908
vn -0.4511 0.0548 0.8908
vn -0.0000 -0.4544 0.8908
vn 0.4511 0.0548 0.8908
vn -0.4249 0.1611 0.8908
vn -0.1088 -0.4412 0.8908
vn 0.4511 -0.0548 0.8908
vn -0.3740 0.2582 0.8908
vn -0.2112 -0.4024 0.8908
vn 0.4249 -0.1611 0.8908
vn -0.0000 -0.0000 1.0000
vn -0.5001 -0.1897 0.8449
vn -0.3833 -0.0465 0.9224
vn -0.5310 -0.0645 0.8449
vn 0.1280 0.5194 0.8449
vn -0.0000 0.5844 0.8114
vn -0.0000 0.5349 0.8449
vn 0.2486 0.4736 0.8449
vn 0.1399 0.5675 0.8114
vn 0.3547 0.4004 0.8449
vn 0.2716 0.5175 0.8114
vn 0.4402 0.3039 0.8449
vn 0.3876 0.4375 0.8114
vn 0.5001 0.1897 0.8449
vn 0.4810 0.3320 0.8114
vn 0.5310 0.0645 0.8449
vn 0.5465 0.2072 0.8114
vn 0.5310 -0.0645 0.8449
vn 0.5802 0.0704 0.8114
vn 0.5001 -0.1897 0.8449
vn 0.5802 -0.0704 0.8114
vn 0.4402 -0.3039 0.8449
vn 0.5465 -0.2072 0.8114
vn 0.3547 -0.4004 0.8449
vn 0.4810 -0.3320 0.8114
vn 0.2486 -0.4736 0.8449
vn 0.3875 -0.4375 0.8114
vn 0.1280 -0.5194 0.8449
vn 0.2716 -0.5175 0.8114
vn -0.0000 -0.5349 0.8449
vn 0.1399 -0.5675 0.8114
vn -0.1280 -0.5194 0.8449
vn -0.0000 -0.5844 0.8114
vn -0.2486 -0.4736 0.8449
vn -0.1399 -0.5675 0.8114
vn -0.3547 -0.4004 0.8449
vn -0.2716 -0.5175 0.8114
vn -0.4402 -0.3039 0.8449
vn -0.3876 -0.4375 0.8114
vn -0.4810 -0.3320 0.8114
vn -0.5465 -0.2072 0.8114
vn -0.5310 0.0645 0.8449
vn -0.5802 -0.0704 0.8114
vn -0.5001 0.1897 0.8449
vn -0.5802 0.0704 0.8114
vn -0.4402 0.3039 0.8449
vn -0.5465 0.2072 0.8114
vn -0.3547 0.4004 0.8449
vn -0.4810 0.3320 0.8114
vn -0.2486 0.4736 0.8449
vn -0.3876 0.4375 0.8114
vn -0.1280 0.5194 0.8449
vn -0.2716 0.5175 0.8114
vn -0.1399 0.5675 0.8114
vn 0.2561 0.2890 0.9224
vn 0.1541 0.1063 0.9823
vn 0.3178 0.2194 0.9224
vn 0.0924 -0.3749 0.9224
vn 0.3611 0.1369 0.9224
vn -0.3833 0.0465 0.9224
vn -0.0000 -0.3862 0.9224
vn 0.3833 0.0465 0.9224
vn -0.3611 0.1369 0.9224
vn -0.0924 -0.3749 0.9224
vn 0.3833 -0.0465 0.9224
vn -0.3178 0.2194 0.9224
vn -0.1795 -0.3419 0.9224
vn 0.3611 -0.1369 0.9224
vn -0.2561 0.2890 0.9224
vn 0.0924 0.3749 0.9224
vn -0.2561 -0.2890 0.9224
vn 0.3178 -0.2194 0.9224
vn -0.1795 0.3419 0.9224
vn 0.1795 0.3419 0.9224
vn -0.3178 -0.2194 0.9224
vn 0.2561 -0.2890 0.9224
vn -0.0924 0.3749 0.9224
vn -0.3611 -0.1369 0.9224
vn 0.1795 -0.3419 0.9224
vn -0.0000 0.3862 0.9224
vn -0.1858 -0.0226 0.9823
vn 0.0448 -0.1817 0.9823
vn 0.1750 0.0664 0.9823
vn -0.1858 0.0226 0.9823
vn -0.0000 -0.1872 0.9823
vn 0.1858 0.0226 0.9823
vn -0.1750 0.0664 0.9823
vn -0.0448 -0.1817 0.9823
vn 0.1858 -0.0226 0.9823
vn -0.1541 0.1063 0.9823
vn -0.0870 -0.1657 0.9823
vn 0.1750 -0.0664 0.9823
vn -0.1241 0.1401 0.9823
vn 0.0448 0.1817 0.9823
vn -0.1241 -0.1401 0.9823
vn 0.1541 -0.1063 0.9823
vn -0.0870 0.1657 0.9823
vn 0.0870 0.1657 0.9823
vn -0.1541 -0.1063 0.9823
vn 0.1241 -0.1401 0.9823
vn -0.0448 0.1817 0.9823
vn 0.1241 0.1401 0.9823
vn -0.1750 -0.0664 0.9823
vn 0.0870 -0.1657 0.9823
vn -0.0000 0.1872 0.9823
vn 0.0103 0.0418 0.9991
vn -0.0000 0.0431 0.9991
vn 0.0200 0.0381 0.9991
vn 0.0286 0.0322 0.9991
vn 0.0354 0.0245 0.9991
vn 0.0403 0.0153 0.9991
vn 0.0427 0.0052 0.9991
vn 0.0427 -0.0052 0.9991
vn 0.0403 -0.0153 0.9991
vn 0.0354 -0.0245 0.9991
vn 0.0286 -0.0322 0.9991
vn 0.0200 -0.0381 0.9991
vn 0.0103 -0.0418 0.9991
vn -0.0000 -0.0431 0.9991
vn -0.0103 -0.0418 0.9991
vn -0.0200 -0.0381 0.9991
vn -0.0286 -0.0322 0.9991
vn -0.0354 -0.0245 0.9991
vn -0.0403 -0.0153 0.9991
vn -0.0427 -0.0052 0.9991
vn -0.0427 0.0052 0.9991
vn -0.0403 0.0153 0.9991
vn -0.0354 0.0245 0.9991
vn -0.0286 0.0322 0.9991
vn -0.0200 0.0381 0.9991
vn -0.0103 0.0418 0.9991
vt 0.500000 0.500000
vt 0.461538 0.500000
vt 0.038461 0.500000
vt -0.000000 0.750000
vt -0.000000 0.500000
vt 0.076923 0.500000
vt 0.038461 0.750000
vt 0.115384 0.500000
vt 0.076923 0.750000
vt 0.153846 0.500000
vt 0.115384 0.750000
vt 0.192307 0.500000
vt 0.153846 0.750000
vt 0.230769 0.500000
vt 0.192307 0.750000
vt 0.269230 0.500000
vt 0.230769 0.750000
vt 0.307692 0.500000
vt 0.269230 0.750000
vt 0.346154 0.500000
vt 0.307692 0.750000
vt 0.384615 0.500000
vt 0.346154 0.750000
vt 0.423077 0.500000
vt 0.384615 0.750000
vt 0.423077 0.750000
vt 0.461538 0.750000
vt 0.538461 0.500000
vt 0.500000 0.750000
vt 0.576923 0.500000
vt 0.538461 0.750000
vt 0.615384 0.500000
vt 0.576923 0.750000
vt 0.653846 0.500000
vt 0.615384 0.750000
vt 0.692307 0.500000
vt 0.653846 0.750000
vt 0.730769 0.500000
vt 0.692307 0.750000
vt 0.769231 0.500000
vt 0.730769 0.750000
vt 0.807692 0.500000
vt 0.769231 0.750000
vt 0.846154 0.500000
vt 0.807692 0.750000
vt 0.884615 0.500000
vt 0.846154 0.750000
vt 0.923077 0.500000
vt 0.884615 0.750000
vt 0.961538 0.500000
vt 0.923077 0.750000
vt 1.000000 0.500000
vt 0.961538 0.750000
vt 0.750000 0.069792
vt 0.706873 0.075029
vt 0.793127 0.424971
vt 0.750000 0.490000
vt 0.807436 0.483026
vt 0.833747 0.409566
vt 0.861534 0.462509
vt 0.869500 0.384887
vt 0.909149 0.429643
vt 0.898308 0.352370
vt 0.947516 0.386336
vt 0.918497 0.313903
vt 0.974404 0.335105
vt 0.928894 0.271722
vt 0.988250 0.278929
vt 0.928894 0.228278
vt 0.988250 0.221071
vt 0.918497 0.186097
vt 0.974404 0.164895
vt 0.898308 0.147630
vt 0.947516 0.113664
vt 0.869500 0.115113
vt 0.909149 0.070357
vt 0.833747 0.090434
vt 0.861534 0.037491
vt 0.793127 0.075029
vt 0.807436 0.016974
vt 0.750000 0.010000
vt 0.692564 0.016974
vt 0.666253 0.090434
vt 0.638466 0.037491
vt 0.630500 0.115113
vt 0.590851 0.070357
vt 0.601692 0.147630
vt 0.552484 0.113664
vt 0.581503 0.186097
vt 0.525596 0.164895
vt 0.571106 0.228278
vt 0.511750 0.221071
vt 0.571106 0.271722
vt 0.511750 0.278929
vt 0.581503 0.313903
vt 0.525596 0.335105
vt 0.601692 0.352370
vt 0.552484 0.386336
vt 0.630500 0.384887
vt 0.590851 0.429643
vt 0.666253 0.409566
vt 0.638466 0.462509
vt 0.706873 0.424971
vt 0.692564 0.483026
vt 0.750000 0.430208
vt 0.603824 0.194563
vt 0.594805 0.231156
vt 0.789323 0.409539
vt 0.826361 0.395493
vt 0.858961 0.372991
vt 0.885228 0.343341
vt 0.903636 0.308267
vt 0.913116 0.269806
vt 0.913116 0.230194
vt 0.903636 0.191734
vt 0.885228 0.156659
vt 0.858960 0.127009
vt 0.826360 0.104507
vt 0.789323 0.090461
vt 0.750000 0.085686
vt 0.710677 0.090461
vt 0.673640 0.104507
vt 0.641040 0.127009
vt 0.614772 0.156659
vt 0.596364 0.191733
vt 0.586884 0.230194
vt 0.586884 0.269806
vt 0.596364 0.308267
vt 0.614772 0.343341
vt 0.641040 0.372991
vt 0.673640 0.395493
vt 0.710677 0.409539
vt 0.750000 0.414314
vt 0.787413 0.401792
vt 0.822653 0.388428
vt 0.853669 0.367018
vt 0.878661 0.338808
vt 0.896176 0.305437
vt 0.905195 0.268844
vt 0.905195 0.231156
vt 0.896176 0.194563
vt 0.878661 0.161192
vt 0.853669 0.132982
vt 0.822652 0.111572
vt 0.787414 0.098208
vt 0.750000 0.093665
vt 0.712587 0.098208
vt 0.677348 0.111572
vt 0.646331 0.132982
vt 0.621339 0.161192
vt 0.594805 0.268844
vt 0.603824 0.305437
vt 0.621339 0.338808
vt 0.646331 0.367018
vt 0.677348 0.388428
vt 0.712587 0.401792
vt 0.750000 0.406335
vt 0.772758 0.342335
vt 0.794194 0.334205
vt 0.813062 0.321182
vt 0.828265 0.304022
vt 0.838919 0.283722
vt 0.844405 0.261463
vt 0.844405 0.238537
vt 0.838918 0.216278
vt 0.828264 0.195978
vt 0.813062 0.178818
vt 0.794194 0.165795
vt 0.772758 0.157665
vt 0.750000 0.154902
vt 0.727241 0.157665
vt 0.705806 0.165795
vt 0.686938 0.178818
vt 0.671736 0.195978
vt 0.661082 0.216278
vt 0.655595 0.238537
vt 0.655595 0.261463
vt 0.661082 0.283722
vt 0.671736 0.304022
vt 0.686938 0.321182
vt 0.705806 0.334205
vt 0.727242 0.342335
vt 0.750000 0.345098
vt 0.668351 0.274742
vt 0.709761 0.325230
vt 0.774742 0.331649
vt 0.825230 0.290239
vt 0.674770 0.209761
vt 0.725258 0.168351
vt 0.790239 0.174770
vt 0.831649 0.225258
vt 1.000000 0.750000
s 1
usemtl Rubber.001
f 14/1/1 67/2/2 66/1/3
f 26/3/4 27/4/5 1/5/6
f 25/6/7 52/7/8 26/3/4
f 24/8/9 51/9/10 25/6/7
f 23/10/11 50/11/12 24/8/9
f 22/12/13 49/13/14 23/10/11
f 21/14/15 48/15/16 22/12/13
f 20/16/17 47/17/18 21/14/15
f 19/18/19 46/19/20 20/16/17
f 18/20/21 45/21/22 19/18/19
f 17/22/23 44/23/24 18/20/21
f 16/24/25 43/25/26 17/22/23
f 15/2/27 42/26/28 16/24/25
f 14/1/1 41/27/29 15/2/27
f 13/28/30 40/29/31 14/1/1
f 12/30/32 39/31/33 13/28/30
f 11/32/34 38/33/35 12/30/32
f 10/34/36 37/35/37 11/32/34
f 9/36/38 36/37/39 10/34/36
f 8/38/40 35/39/41 9/36/38
f 7/40/42 34/41/43 8/38/40
f 6/42/44 33/43/45 7/40/42
f 5/44/46 32/45/47 6/42/44
f 4/46/48 31/47/49 5/44/46
f 3/48/50 30/49/51 4/46/48
f 2/50/52 29/51/53 3/48/50
f 1/52/6 28/53/54 2/50/52
f 75/10/55 128/8/56 127/10/57
f 3/48/50 56/46/58 55/48/59
f 18/20/21 71/18/60 70/20/61
f 7/40/42 60/38/62 59/40/63
f 22/12/13 75/10/55 74/12/64
f 11/32/34 64/30/65 63/32/66
f 26/3/4 53/5/67 78/3/68
f 15/2/27 68/24/69 67/2/2
f 4/46/48 57/44/70 56/46/58
f 19/18/19 72/16/71 71/18/60
f 8/38/40 61/36/72 60/38/62
f 23/10/11 76/8/73 75/10/55
f 12/30/32 65/28/74 64/30/65
f 1/52/6 54/50/75 53/52/67
f 16/24/25 69/22/76 68/24/69
f 5/44/46 58/42/77 57/44/70
f 20/16/17 73/14/78 72/16/71
f 9/36/38 62/34/79 61/36/72
f 24/8/9 77/6/80 76/8/73
f 13/28/30 66/1/3 65/28/74
f 2/50/52 55/48/59 54/50/75
f 17/22/23 70/20/61 69/22/76
f 6/42/44 59/40/63 58/42/77
f 21/14/15 74/12/64 73/14/78
f 10/34/36 63/32/66 62/34/79
f 25/6/7 78/3/68 77/6/80
f 92/54/5 171/55/54 170/54/5
f 53/52/67 106/50/81 105/52/82
f 68/24/69 121/22/83 120/24/84
f 61/36/72 114/34/85 113/36/86
f 76/8/73 129/6/87 128/8/56
f 54/50/75 107/48/88 106/50/81
f 69/22/76 122/20/89 121/22/83
f 62/34/79 115/32/90 114/34/85
f 77/6/80 130/3/91 129/6/87
f 55/48/59 108/46/92 107/48/88
f 70/20/61 123/18/93 122/20/89
f 63/32/66 116/30/94 115/32/90
f 78/3/68 105/5/82 130/3/91
f 56/46/58 109/44/95 108/46/92
f 71/18/60 124/16/96 123/18/93
f 64/30/65 117/28/97 116/30/94
f 57/44/70 110/42/98 109/44/95
f 72/16/71 125/14/99 124/16/96
f 65/28/74 118/1/100 117/28/97
f 58/42/77 111/40/101 110/42/98
f 73/14/78 126/12/102 125/14/99
f 66/1/3 119/2/103 118/1/100
f 59/40/63 112/38/104 111/40/101
f 74/12/64 127/10/57 126/12/102
f 67/2/2 120/24/84 119/2/103
f 60/38/62 113/36/86 112/38/104
f 80/56/105 105/57/105 106/58/105
f 81/59/105 106/58/105 107/60/105
f 82/61/105 107/60/105 108/62/105
f 83/63/105 108/62/105 109/64/105
f 84/65/105 109/64/105 110/66/105
f 85/67/105 110/66/105 111/68/105
f 86/69/105 111/68/105 112/70/105
f 87/71/105 112/70/105 113/72/105
f 88/73/105 113/72/105 114/74/105
f 89/75/105 114/74/105 115/76/105
f 90/77/105 115/76/105 116/78/105
f 91/79/105 116/78/105 117/80/105
f 92/54/105 117/80/105 118/81/105
f 93/55/105 118/81/105 119/82/105
f 94/83/105 119/82/105 120/84/105
f 95/85/105 120/84/105 121/86/105
f 96/87/105 121/86/105 122/88/105
f 97/89/105 122/88/105 123/90/105
f 98/91/105 123/90/105 124/92/105
f 99/93/105 124/92/105 125/94/105
f 100/95/105 125/94/105 126/96/105
f 101/97/105 126/96/105 127/98/105
f 102/99/105 127/98/105 128/100/105
f 103/101/105 128/100/105 129/102/105
f 104/103/105 129/102/105 130/104/105
f 79/105/105 130/104/105 105/57/105
f 85/67/20 164/69/18 163/67/20
f 100/95/41 179/97/39 178/95/41
f 93/55/54 172/83/53 171/55/54
f 86/69/18 165/71/16 164/69/18
f 101/97/39 180/99/37 179/97/39
f 79/105/31 158/56/29 157/105/31
f 94/83/53 173/85/51 172/83/53
f 87/71/16 166/73/14 165/71/16
f 102/99/37 181/101/35 180/99/37
f 80/56/29 159/59/28 158/56/29
f 95/85/51 174/87/49 173/85/51
f 88/73/14 167/75/12 166/73/14
f 103/101/35 182/103/33 181/101/35
f 81/59/28 160/61/26 159/59/28
f 96/87/49 175/89/47 174/87/49
f 89/75/12 168/77/10 167/75/12
f 104/103/33 157/105/31 182/103/33
f 82/61/26 161/63/24 160/61/26
f 97/89/47 176/91/45 175/89/47
f 90/77/10 169/79/8 168/77/10
f 83/63/24 162/65/22 161/63/24
f 98/91/45 177/93/43 176/91/45
f 91/79/8 170/54/5 169/79/8
f 84/65/22 163/67/20 162/65/22
f 99/93/43 178/95/41 177/93/43
f 288/184/236 293/185/237 301/184/236
f 302/186/238 289/187/239 287/186/238
f 290/188/240 301/184/236 299/188/241
f 296/185/242 287/186/238 293/185/237
f 294/189/243 299/188/241 295/189/243
f 292/190/244 295/189/243 297/190/245
f 298/191/246 297/190/245 291/191/246
f 300/187/247 291/191/246 289/187/239
f 316/1/248 343/2/249 317/2/250
f 328/3/251 27/4/5 52/7/8
f 327/6/252 52/7/8 51/9/10
f 326/8/253 51/9/10 50/11/12
f 325/10/254 50/11/12 49/13/14
f 324/12/255 49/13/14 48/15/16
f 323/14/256 48/15/16 47/17/18
f 322/16/257 47/17/18 46/19/20
f 321/18/258 46/19/20 45/21/22
f 320/20/259 45/21/22 44/23/24
f 319/22/260 44/23/24 43/25/26
f 318/24/261 43/25/26 42/26/28
f 317/2/250 42/26/28 41/27/29
f 316/1/248 41/27/29 40/29/31
f 315/28/262 40/29/31 39/31/33
f 314/30/263 39/31/33 38/33/35
f 313/32/264 38/33/35 37/35/37
f 312/34/265 37/35/37 36/37/39
f 311/36/266 36/37/39 35/39/41
f 310/38/267 35/39/41 34/41/43
f 309/40/268 34/41/43 33/43/45
f 308/42/269 33/43/45 32/45/47
f 307/44/270 32/45/47 31/47/49
f 306/46/271 31/47/49 30/49/51
f 305/48/272 30/49/51 29/51/53
f 304/50/273 29/51/53 28/53/54
f 303/52/274 28/53/54 27/192/5
f 351/10/275 404/8/276 352/8/277
f 305/48/272 332/46/278 306/46/271
f 320/20/259 347/18/279 321/18/258
f 309/40/268 336/38/280 310/38/267
f 324/12/255 351/10/275 325/10/254
f 313/32/264 340/30/281 314/30/263
f 328/3/251 329/5/282 303/5/274
f 317/2/250 344/24/283 318/24/261
f 306/46/271 333/44/284 307/44/270
f 321/18/258 348/16/285 322/16/257
f 310/38/267 337/36/286 311/36/266
f 325/10/254 352/8/277 326/8/253
f 314/30/263 341/28/287 315/28/262
f 303/52/274 330/50/288 304/50/273
f 318/24/261 345/22/289 319/22/260
f 307/44/270 334/42/290 308/42/269
f 322/16/257 349/14/291 323/14/256
f 311/36/266 338/34/292 312/34/265
f 326/8/253 353/6/293 327/6/252
f 315/28/262 342/1/294 316/1/248
f 304/50/273 331/48/295 305/48/272
f 319/22/260 346/20/296 320/20/259
f 308/42/269 335/40/297 309/40/268
f 323/14/256 350/12/298 324/12/255
f 312/34/265 339/32/299 313/32/264
f 327/6/252 354/3/300 328/3/251
f 368/54/5 447/55/54 369/55/54
f 329/52/282 382/50/301 330/50/288
f 344/24/283 397/22/302 345/22/289
f 337/36/286 390/34/303 338/34/292
f 352/8/277 405/6/304 353/6/293
f 330/50/288 383/48/305 331/48/295
f 345/22/289 398/20/306 346/20/296
f 338/34/292 391/32/307 339/32/299
f 353/6/293 406/3/308 354/3/300
f 331/48/295 384/46/309 332/46/278
f 346/20/296 399/18/310 347/18/279
f 339/32/299 392/30/311 340/30/281
f 354/3/300 381/5/312 329/5/282
f 332/46/278 385/44/313 333/44/284
f 347/18/279 400/16/314 348/16/285
f 340/30/281 393/28/315 341/28/287
f 333/44/284 386/42/316 334/42/290
f 348/16/285 401/14/317 349/14/291
f 341/28/287 394/1/318 342/1/294
f 334/42/290 387/40/319 335/40/297
f 349/14/291 402/12/320 350/12/298
f 342/1/294 395/2/321 343/2/249
f 335/40/297 388/38/322 336/38/280
f 350/12/298 403/10/323 351/10/275
f 343/2/249 396/24/324 344/24/283
f 336/38/280 389/36/325 337/36/286
f 356/56/326 381/57/326 355/105/326
f 357/59/326 382/58/326 356/56/326
f 358/61/326 383/60/326 357/59/326
f 359/63/326 384/62/326 358/61/326
f 360/65/326 385/64/326 359/63/326
f 361/67/326 386/66/326 360/65/326
f 362/69/326 387/68/326 361/67/326
f 363/71/326 388/70/326 362/69/326
f 364/73/326 389/72/326 363/71/326
f 365/75/326 390/74/326 364/73/326
f 366/77/326 391/76/326 365/75/326
f 367/79/326 392/78/326 366/77/326
f 368/54/326 393/80/326 367/79/326
f 369/55/326 394/81/326 368/54/326
f 370/83/326 395/82/326 369/55/326
f 371/85/326 396/84/326 370/83/326
f 372/87/326 397/86/326 371/85/326
f 373/89/326 398/88/326 372/87/326
f 374/91/326 399/90/326 373/89/326
f 375/93/326 400/92/326 374/91/326
f 376/95/326 401/94/326 375/93/326
f 377/97/326 402/96/326 376/95/326
f 378/99/326 403/98/326 377/97/326
f 379/101/326 404/100/326 378/99/326
f 380/103/326 405/102/326 379/101/326
f 355/105/326 406/104/326 380/103/326
f 361/67/20 440/69/18 362/69/18
f 376/95/41 455/97/39 377/97/39
f 369/55/54 448/83/53 370/83/53
f 362/69/18 441/71/16 363/71/16
f 377/97/39 456/99/37 378/99/37
f 355/105/31 434/56/29 356/56/29
f 370/83/53 449/85/51 371/85/51
f 363/71/16 442/73/14 364/73/14
f 378/99/37 457/101/35 379/101/35
f 356/56/29 435/59/28 357/59/28
f 371/85/51 450/87/49 372/87/49
f 364/73/14 443/75/12 365/75/12
f 379/101/35 458/103/33 380/103/33
f 357/59/28 436/61/26 358/61/26
f 372/87/49 451/89/47 373/89/47
f 365/75/12 444/77/10 366/77/10
f 380/103/33 433/105/31 355/105/31
f 358/61/26 437/63/24 359/63/24
f 373/89/47 452/91/45 374/91/45
f 366/77/10 445/79/8 367/79/8
f 359/63/24 438/65/22 360/65/22
f 374/91/45 453/93/43 375/93/43
f 367/79/8 446/54/5 368/54/5
f 360/65/22 439/67/20 361/67/20
f 375/93/43 454/95/41 376/95/41
f 563/184/236 293/185/237 567/185/242
f 570/186/238 289/187/239 569/187/247
f 564/188/240 301/184/236 563/184/236
f 567/185/242 287/186/238 570/186/238
f 566/189/243 299/188/241 564/188/240
f 565/190/244 295/189/243 566/189/243
f 568/191/246 297/190/245 565/190/244
f 569/187/247 291/191/246 568/191/246
f 14/1/1 15/2/27 67/2/2
f 26/3/4 52/7/8 27/4/5
f 25/6/7 51/9/10 52/7/8
f 24/8/9 50/11/12 51/9/10
f 23/10/11 49/13/14 50/11/12
f 22/12/13 48/15/16 49/13/14
f 21/14/15 47/17/18 48/15/16
f 20/16/17 46/19/20 47/17/18
f 19/18/19 45/21/22 46/19/20
f 18/20/21 44/23/24 45/21/22
f 17/22/23 43/25/26 44/23/24
f 16/24/25 42/26/28 43/25/26
f 15/2/27 41/27/29 42/26/28
f 14/1/1 40/29/31 41/27/29
f 13/28/30 39/31/33 40/29/31
f 12/30/32 38/33/35 39/31/33
f 11/32/34 37/35/37 38/33/35
f 10/34/36 36/37/39 37/35/37
f 9/36/38 35/39/41 36/37/39
f 8/38/40 34/41/43 35/39/41
f 7/40/42 33/43/45 34/41/43
f 6/42/44 32/45/47 33/43/45
f 5/44/46 31/47/49 32/45/47
f 4/46/48 30/49/51 31/47/49
f 3/48/50 29/51/53 30/49/51
f 2/50/52 28/53/54 29/51/53
f 1/52/6 27/192/5 28/53/54
f 75/10/55 76/8/73 128/8/56
f 3/48/50 4/46/48 56/46/58
f 18/20/21 19/18/19 71/18/60
f 7/40/42 8/38/40 60/38/62
f 22/12/13 23/10/11 75/10/55
f 11/32/34 12/30/32 64/30/65
f 26/3/4 1/5/6 53/5/67
f 15/2/27 16/24/25 68/24/69
f 4/46/48 5/44/46 57/44/70
f 19/18/19 20/16/17 72/16/71
f 8/38/40 9/36/38 61/36/72
f 23/10/11 24/8/9 76/8/73
f 12/30/32 13/28/30 65/28/74
f 1/52/6 2/50/52 54/50/75
f 16/24/25 17/22/23 69/22/76
f 5/44/46 6/42/44 58/42/77
f 20/16/17 21/14/15 73/14/78
f 9/36/38 10/34/36 62/34/79
f 24/8/9 25/6/7 77/6/80
f 13/28/30 14/1/1 66/1/3
f 2/50/52 3/48/50 55/48/59
f 17/22/23 18/20/21 70/20/61
f 6/42/44 7/40/42 59/40/63
f 21/14/15 22/12/13 74/12/64
f 10/34/36 11/32/34 63/32/66
f 25/6/7 26/3/4 78/3/68
f 92/54/5 93/55/54 171/55/54
f 53/52/67 54/50/75 106/50/81
f 68/24/69 69/22/76 121/22/83
f 61/36/72 62/34/79 114/34/85
f 76/8/73 77/6/80 129/6/87
f 54/50/75 55/48/59 107/48/88
f 69/22/76 70/20/61 122/20/89
f 62/34/79 63/32/66 115/32/90
f 77/6/80 78/3/68 130/3/91
f 55/48/59 56/46/58 108/46/92
f 70/20/61 71/18/60 123/18/93
f 63/32/66 64/30/65 116/30/94
f 78/3/68 53/5/67 105/5/82
f 56/46/58 57/44/70 109/44/95
f 71/18/60 72/16/71 124/16/96
f 64/30/65 65/28/74 117/28/97
f 57/44/70 58/42/77 110/42/98
f 72/16/71 73/14/78 125/14/99
f 65/28/74 66/1/3 118/1/100
f 58/42/77 59/40/63 111/40/101
f 73/14/78 74/12/64 126/12/102
f 66/1/3 67/2/2 119/2/103
f 59/40/63 60/38/62 112/38/104
f 74/12/64 75/10/55 127/10/57
f 67/2/2 68/24/69 120/24/84
f 60/38/62 61/36/72 113/36/86
f 80/56/105 79/105/105 105/57/105
f 81/59/105 80/56/105 106/58/105
f 82/61/105 81/59/105 107/60/105
f 83/63/105 82/61/105 108/62/105
f 84/65/105 83/63/105 109/64/105
f 85/67/105 84/65/105 110/66/105
f 86/69/105 85/67/105 111/68/105
f 87/71/105 86/69/105 112/70/105
f 88/73/105 87/71/105 113/72/105
f 89/75/105 88/73/105 114/74/105
f 90/77/105 89/75/105 115/76/105
f 91/79/105 90/77/105 116/78/105
f 92/54/105 91/79/105 117/80/105
f 93/55/105 92/54/105 118/81/105
f 94/83/105 93/55/105 119/82/105
f 95/85/105 94/83/105 120/84/105
f 96/87/105 95/85/105 121/86/105
f 97/89/105 96/87/105 122/88/105
f 98/91/105 97/89/105 123/90/105
f 99/93/105 98/91/105 124/92/105
f 100/95/105 99/93/105 125/94/105
f 101/97/105 100/95/105 126/96/105
f 102/99/105 101/97/105 127/98/105
f 103/101/105 102/99/105 128/100/105
f 104/103/105 103/101/105 129/102/105
f 79/105/105 104/103/105 130/104/105
f 85/67/20 86/69/18 164/69/18
f 100/95/41 101/97/39 179/97/39
f 93/55/54 94/83/53 172/83/53
f 86/69/18 87/71/16 165/71/16
f 101/97/39 102/99/37 180/99/37
f 79/105/31 80/56/29 158/56/29
f 94/83/53 95/85/51 173/85/51
f 87/71/16 88/73/14 166/73/14
f 102/99/37 103/101/35 181/101/35
f 80/56/29 81/59/28 159/59/28
f 95/85/51 96/87/49 174/87/49
f 88/73/14 89/75/12 167/75/12
f 103/101/35 104/103/33 182/103/33
f 81/59/28 82/61/26 160/61/26
f 96/87/49 97/89/47 175/89/47
f 89/75/12 90/77/10 168/77/10
f 104/103/33 79/105/31 157/105/31
f 82/61/26 83/63/24 161/63/24
f 97/89/47 98/91/45 176/91/45
f 90/77/10 91/79/8 169/79/8
f 83/63/24 84/65/22 162/65/22
f 98/91/45 99/93/43 177/93/43
f 91/79/8 92/54/5 170/54/5
f 84/65/22 85/67/20 163/67/20
f 99/93/43 100/95/41 178/95/41
f 288/184/236 296/185/242 293/185/237
f 302/186/238 300/187/247 289/187/239
f 290/188/240 288/184/236 301/184/236
f 296/185/242 302/186/238 287/186/238
f 294/189/243 290/188/240 299/188/241
f 292/190/244 294/189/243 295/189/243
f 298/191/246 292/190/244 297/190/245
f 300/187/247 298/191/246 291/191/246
f 316/1/248 342/1/294 343/2/249
f 328/3/251 303/5/274 27/4/5
f 327/6/252 328/3/251 52/7/8
f 326/8/253 327/6/252 51/9/10
f 325/10/254 326/8/253 50/11/12
f 324/12/255 325/10/254 49/13/14
f 323/14/256 324/12/255 48/15/16
f 322/16/257 323/14/256 47/17/18
f 321/18/258 322/16/257 46/19/20
f 320/20/259 321/18/258 45/21/22
f 319/22/260 320/20/259 44/23/24
f 318/24/261 319/22/260 43/25/26
f 317/2/250 318/24/261 42/26/28
f 316/1/248 317/2/250 41/27/29
f 315/28/262 316/1/248 40/29/31
f 314/30/263 315/28/262 39/31/33
f 313/32/264 314/30/263 38/33/35
f 312/34/265 313/32/264 37/35/37
f 311/36/266 312/34/265 36/37/39
f 310/38/267 311/36/266 35/39/41
f 309/40/268 310/38/267 34/41/43
f 308/42/269 309/40/268 33/43/45
f 307/44/270 308/42/269 32/45/47
f 306/46/271 307/44/270 31/47/49
f 305/48/272 306/46/271 30/49/51
f 304/50/273 305/48/272 29/51/53
f 303/52/274 304/50/273 28/53/54
f 351/10/275 403/10/323 404/8/276
f 305/48/272 331/48/295 332/46/278
f 320/20/259 346/20/296 347/18/279
f 309/40/268 335/40/297 336/38/280
f 324/12/255 350/12/298 351/10/275
f 313/32/264 339/32/299 340/30/281
f 328/3/251 354/3/300 329/5/282
f 317/2/250 343/2/249 344/24/283
f 306/46/271 332/46/278 333/44/284
f 321/18/258 347/18/279 348/16/285
f 310/38/267 336/38/280 337/36/286
f 325/10/254 351/10/275 352/8/277
f 314/30/263 340/30/281 341/28/287
f 303/52/274 329/52/282 330/50/288
f 318/24/261 344/24/283 345/22/289
f 307/44/270 333/44/284 334/42/290
f 322/16/257 348/16/285 349/14/291
f 311/36/266 337/36/286 338/34/292
f 326/8/253 352/8/277 353/6/293
f 315/28/262 341/28/287 342/1/294
f 304/50/273 330/50/288 331/48/295
f 319/22/260 345/22/289 346/20/296
f 308/42/269 334/42/290 335/40/297
f 323/14/256 349/14/291 350/12/298
f 312/34/265 338/34/292 339/32/299
f 327/6/252 353/6/293 354/3/300
f 368/54/5 446/54/5 447/55/54
f 329/52/282 381/52/312 382/50/301
f 344/24/283 396/24/324 397/22/302
f 337/36/286 389/36/325 390/34/303
f 352/8/277 404/8/276 405/6/304
f 330/50/288 382/50/301 383/48/305
f 345/22/289 397/22/302 398/20/306
f 338/34/292 390/34/303 391/32/307
f 353/6/293 405/6/304 406/3/308
f 331/48/295 383/48/305 384/46/309
f 346/20/296 398/20/306 399/18/310
f 339/32/299 391/32/307 392/30/311
f 354/3/300 406/3/308 381/5/312
f 332/46/278 384/46/309 385/44/313
f 347/18/279 399/18/310 400/16/314
f 340/30/281 392/30/311 393/28/315
f 333/44/284 385/44/313 386/42/316
f 348/16/285 400/16/314 401/14/317
f 341/28/287 393/28/315 394/1/318
f 334/42/290 386/42/316 387/40/319
f 349/14/291 401/14/317 402/12/320
f 342/1/294 394/1/318 395/2/321
f 335/40/297 387/40/319 388/38/322
f 350/12/298 402/12/320 403/10/323
f 343/2/249 395/2/321 396/24/324
f 336/38/280 388/38/322 389/36/325
f 356/56/326 382/58/326 381/57/326
f 357/59/326 383/60/326 382/58/326
f 358/61/326 384/62/326 383/60/326
f 359/63/326 385/64/326 384/62/326
f 360/65/326 386/66/326 385/64/326
f 361/67/326 387/68/326 386/66/326
f 362/69/326 388/70/326 387/68/326
f 363/71/326 389/72/326 388/70/326
f 364/73/326 390/74/326 389/72/326
f 365/75/326 391/76/326 390/74/326
f 366/77/326 392/78/326 391/76/326
f 367/79/326 393/80/326 392/78/326
f 368/54/326 394/81/326 393/80/326
f 369/55/326 395/82/326 394/81/326
f 370/83/326 396/84/326 395/82/326
f 371/85/326 397/86/326 396/84/326
f 372/87/326 398/88/326 397/86/326
f 373/89/326 399/90/326 398/88/326
f 374/91/326 400/92/326 399/90/326
f 375/93/326 401/94/326 400/92/326
f 376/95/326 402/96/326 401/94/326
f 377/97/326 403/98/326 402/96/326
f 378/99/326 404/100/326 403/98/326
f 379/101/326 405/102/326 404/100/326
f 380/103/326 406/104/326 405/102/326
f 355/105/326 381/57/326 406/104/326
f 361/67/20 439/67/20 440/69/18
f 376/95/41 454/95/41 455/97/39
f 369/55/54 447/55/54 448/83/53
f 362/69/18 440/69/18 441/71/16
f 377/97/39 455/97/39 456/99/37
f 355/105/31 433/105/31 434/56/29
f 370/83/53 448/83/53 449/85/51
f 363/71/16 441/71/16 442/73/14
f 378/99/37 456/99/37 457/101/35
f 356/56/29 434/56/29 435/59/28
f 371/85/51 449/85/51 450/87/49
f 364/73/14 442/73/14 443/75/12
f 379/101/35 457/101/35 458/103/33
f 357/59/28 435/59/28 436/61/26
f 372/87/49 450/87/49 451/89/47
f 365/75/12 443/75/12 444/77/10
f 380/103/33 458/103/33 433/105/31
f 358/61/26 436/61/26 437/63/24
f 373/89/47 451/89/47 452/91/45
f 366/77/10 444/77/10 445/79/8
f 359/63/24 437/63/24 438/65/22
f 374/91/45 452/91/45 453/93/43
f 367/79/8 445/79/8 446/54/5
f 360/65/22 438/65/22 439/67/20
f 375/93/43 453/93/43 454/95/41
f 563/184/236 301/184/236 293/185/237
f 570/186/238 287/186/238 289/187/239
f 564/188/240 299/188/241 301/184/236
f 567/185/242 293/185/237 287/186/238
f 566/189/243 295/189/243 299/188/241
f 565/190/244 297/190/245 295/189/243
f 568/191/246 291/191/246 297/190/245
f 569/187/247 289/187/239 291/191/246
usemtl Plastic_Yellow.001
f 149/106/106 228/107/107 227/106/108
f 184/108/105 157/105/105 158/56/105
f 185/109/105 158/56/105 159/59/105
f 186/110/105 159/59/105 160/61/105
f 187/111/105 160/61/105 161/63/105
f 188/112/105 161/63/105 162/65/105
f 189/113/105 162/65/105 163/67/105
f 190/114/105 163/67/105 164/69/105
f 191/115/105 164/69/105 165/71/105
f 192/116/105 165/71/105 166/73/105
f 193/117/105 166/73/105 167/75/105
f 194/118/105 167/75/105 168/77/105
f 195/119/105 168/77/105 169/79/105
f 196/120/105 169/79/105 170/54/105
f 197/121/105 170/54/105 171/55/105
f 198/122/105 171/55/105 172/83/105
f 199/123/105 172/83/105 173/85/105
f 200/124/105 173/85/105 174/87/105
f 201/125/105 174/87/105 175/89/105
f 202/126/105 175/89/105 176/91/105
f 203/127/105 176/91/105 177/93/105
f 204/128/105 177/93/105 178/95/105
f 205/129/105 178/95/105 179/97/105
f 206/130/105 179/97/105 180/99/105
f 207/131/105 180/99/105 181/101/105
f 208/132/105 181/101/105 182/103/105
f 183/133/105 182/103/105 157/105/105
f 132/134/109 183/133/110 184/108/111
f 133/135/112 184/108/111 185/109/113
f 134/136/114 185/109/113 186/110/115
f 135/137/116 186/110/115 187/111/117
f 136/138/118 187/111/117 188/112/119
f 137/139/120 188/112/119 189/113/121
f 138/140/122 189/113/121 190/114/123
f 139/141/124 190/114/123 191/115/125
f 140/142/126 191/115/125 192/116/127
f 141/143/128 192/116/127 193/117/129
f 142/144/130 193/117/129 194/118/131
f 143/145/132 194/118/131 195/119/133
f 144/146/134 195/119/133 196/120/135
f 145/147/136 196/120/135 197/121/137
f 146/148/138 197/121/137 198/122/139
f 147/149/140 198/122/139 199/123/141
f 148/150/142 199/123/141 200/124/143
f 149/106/106 200/124/143 201/125/144
f 150/107/145 201/125/144 202/126/146
f 151/151/147 202/126/146 203/127/148
f 152/152/149 203/127/148 204/128/150
f 153/153/151 204/128/150 205/129/152
f 154/154/153 205/129/152 206/130/154
f 155/155/155 206/130/154 207/131/156
f 156/156/157 207/131/156 208/132/158
f 131/157/159 208/132/158 183/133/110
f 212/136/160 239/137/161 238/136/162
f 142/144/130 221/145/163 220/144/164
f 135/137/116 214/138/165 213/137/166
f 150/107/145 229/151/167 228/107/107
f 143/145/132 222/146/168 221/145/163
f 136/138/118 215/139/169 214/138/165
f 151/151/147 230/152/170 229/151/167
f 144/146/134 223/147/171 222/146/168
f 137/139/120 216/140/172 215/139/169
f 152/152/149 231/153/173 230/152/170
f 145/147/136 224/148/174 223/147/171
f 138/140/122 217/141/175 216/140/172
f 153/153/151 232/154/176 231/153/173
f 131/157/159 210/134/177 209/157/178
f 146/148/138 225/149/179 224/148/174
f 139/141/124 218/142/180 217/141/175
f 154/154/153 233/155/181 232/154/176
f 132/134/109 211/135/182 210/134/177
f 147/149/140 226/150/183 225/149/179
f 140/142/126 219/143/184 218/142/180
f 155/155/155 234/156/185 233/155/181
f 133/135/112 212/136/160 211/135/182
f 148/150/142 227/106/108 226/150/183
f 141/143/128 220/144/164 219/143/184
f 156/156/157 209/157/178 234/156/185
f 134/136/114 213/137/166 212/136/160
f 227/106/108 254/107/186 253/106/187
f 220/144/164 247/145/188 246/144/189
f 213/137/166 240/138/190 239/137/161
f 228/107/107 255/151/191 254/107/186
f 221/145/163 248/146/192 247/145/188
f 214/138/165 241/139/193 240/138/190
f 229/151/167 256/152/194 255/151/191
f 222/146/168 249/147/195 248/146/192
f 215/139/169 242/140/196 241/139/193
f 230/152/170 257/153/197 256/152/194
f 223/147/171 250/148/198 249/147/195
f 216/140/172 243/141/199 242/140/196
f 231/153/173 258/154/200 257/153/197
f 209/157/178 236/134/201 235/157/202
f 224/148/174 251/149/203 250/148/198
f 217/141/175 244/142/204 243/141/199
f 232/154/176 259/155/205 258/154/200
f 210/134/177 237/135/206 236/134/201
f 225/149/179 252/150/207 251/149/203
f 218/142/180 245/143/208 244/142/204
f 233/155/181 260/156/209 259/155/205
f 211/135/182 238/136/162 237/135/206
f 226/150/183 253/106/187 252/150/207
f 219/143/184 246/144/189 245/143/208
f 234/156/185 235/157/202 260/156/209
f 262/158/210 235/157/202 236/134/201
f 263/159/211 236/134/201 237/135/206
f 264/160/212 237/135/206 238/136/162
f 265/161/213 238/136/162 239/137/161
f 266/162/214 239/137/161 240/138/190
f 267/163/215 240/138/190 241/139/193
f 268/164/216 241/139/193 242/140/196
f 269/165/217 242/140/196 243/141/199
f 270/166/218 243/141/199 244/142/204
f 271/167/219 244/142/204 245/143/208
f 272/168/220 245/143/208 246/144/189
f 273/169/221 246/144/189 247/145/188
f 274/170/222 247/145/188 248/146/192
f 275/171/223 248/146/192 249/147/195
f 276/172/224 249/147/195 250/148/198
f 277/173/225 250/148/198 251/149/203
f 278/174/226 251/149/203 252/150/207
f 279/175/227 252/150/207 253/106/187
f 280/176/228 253/106/187 254/107/186
f 281/177/229 254/107/186 255/151/191
f 282/178/230 255/151/191 256/152/194
f 283/179/231 256/152/194 257/153/197
f 284/180/232 257/153/197 258/154/200
f 285/181/233 258/154/200 259/155/205
f 286/182/234 259/155/205 260/156/209
f 261/183/235 260/156/209 235/157/202
f 288/184/105 282/178/230 283/179/231
f 285/181/233 286/182/234 296/185/105
f 286/182/234 302/186/105 296/185/105
f 264/160/212 265/161/213 300/187/105
f 263/159/211 300/187/105 302/186/105
f 262/158/210 263/159/211 302/186/105
f 261/183/235 262/158/210 302/186/105
f 265/161/213 266/162/214 300/187/105
f 300/187/105 266/162/214 267/163/215
f 300/187/105 268/164/216 298/191/105
f 292/190/105 270/166/218 271/167/219
f 272/168/220 292/190/105 271/167/219
f 275/171/223 294/189/105 274/170/222
f 294/189/105 273/169/221 274/170/222
f 292/190/105 272/168/220 273/169/221
f 276/172/224 294/189/105 275/171/223
f 282/178/230 288/184/105 281/177/229
f 285/181/233 296/185/105 284/180/232
f 296/185/105 283/179/231 284/180/232
f 298/191/105 268/164/216 269/165/217
f 281/177/229 288/184/105 280/176/228
f 290/188/105 276/172/224 277/173/225
f 279/175/227 290/188/105 278/174/226
f 298/191/105 269/165/217 270/166/218
f 278/174/226 290/188/105 277/173/225
f 288/184/105 279/175/227 280/176/228
f 425/106/327 504/107/328 426/107/329
f 460/108/326 433/105/326 459/133/326
f 461/109/326 434/56/326 460/108/326
f 462/110/326 435/59/326 461/109/326
f 463/111/326 436/61/326 462/110/326
f 464/112/326 437/63/326 463/111/326
f 465/113/326 438/65/326 464/112/326
f 466/114/326 439/67/326 465/113/326
f 467/115/326 440/69/326 466/114/326
f 468/116/326 441/71/326 467/115/326
f 469/117/326 442/73/326 468/116/326
f 470/118/326 443/75/326 469/117/326
f 471/119/326 444/77/326 470/118/326
f 472/120/326 445/79/326 471/119/326
f 473/121/326 446/54/326 472/120/326
f 474/122/326 447/55/326 473/121/326
f 475/123/326 448/83/326 474/122/326
f 476/124/326 449/85/326 475/123/326
f 477/125/326 450/87/326 476/124/326
f 478/126/326 451/89/326 477/125/326
f 479/127/326 452/91/326 478/126/326
f 480/128/326 453/93/326 479/127/326
f 481/129/326 454/95/326 480/128/326
f 482/130/326 455/97/326 481/129/326
f 483/131/326 456/99/326 482/130/326
f 484/132/326 457/101/326 483/131/326
f 459/133/326 458/103/326 484/132/326
f 408/134/330 459/133/331 407/157/332
f 409/135/333 460/108/334 408/134/330
f 410/136/335 461/109/336 409/135/333
f 411/137/337 462/110/338 410/136/335
f 412/138/339 463/111/340 411/137/337
f 413/139/341 464/112/342 412/138/339
f 414/140/343 465/113/344 413/139/341
f 415/141/345 466/114/346 414/140/343
f 416/142/347 467/115/348 415/141/345
f 417/143/349 468/116/350 416/142/347
f 418/144/351 469/117/352 417/143/349
f 419/145/353 470/118/354 418/144/351
f 420/146/355 471/119/356 419/145/353
f 421/147/357 472/120/358 420/146/355
f 422/148/359 473/121/360 421/147/357
f 423/149/361 474/122/362 422/148/359
f 424/150/363 475/123/364 423/149/361
f 425/106/327 476/124/365 424/150/363
f 426/107/329 477/125/366 425/106/327
f 427/151/367 478/126/368 426/107/329
f 428/152/369 479/127/370 427/151/367
f 429/153/371 480/128/372 428/152/369
f 430/154/373 481/129/374 429/153/371
f 431/155/375 482/130/376 430/154/373
f 432/156/377 483/131/378 431/155/375
f 407/157/332 484/132/379 432/156/377
f 488/136/380 515/137/381 489/137/382
f 418/144/351 497/145/383 419/145/353
f 411/137/337 490/138/384 412/138/339
f 426/107/329 505/151/385 427/151/367
f 419/145/353 498/146/386 420/146/355
f 412/138/339 491/139/387 413/139/341
f 427/151/367 506/152/388 428/152/369
f 420/146/355 499/147/389 421/147/357
f 413/139/341 492/140/390 414/140/343
f 428/152/369 507/153/391 429/153/371
f 421/147/357 500/148/392 422/148/359
f 414/140/343 493/141/393 415/141/345
f 429/153/371 508/154/394 430/154/373
f 407/157/332 486/134/395 408/134/330
f 422/148/359 501/149/396 423/149/361
f 415/141/345 494/142/397 416/142/347
f 430/154/373 509/155/398 431/155/375
f 408/134/330 487/135/399 409/135/333
f 423/149/361 502/150/400 424/150/363
f 416/142/347 495/143/401 417/143/349
f 431/155/375 510/156/402 432/156/377
f 409/135/333 488/136/380 410/136/335
f 424/150/363 503/106/403 425/106/327
f 417/143/349 496/144/404 418/144/351
f 432/156/377 485/157/405 407/157/332
f 410/136/335 489/137/382 411/137/337
f 503/106/403 530/107/406 504/107/328
f 496/144/404 523/145/407 497/145/383
f 489/137/382 516/138/408 490/138/384
f 504/107/328 531/151/409 505/151/385
f 497/145/383 524/146/410 498/146/386
f 490/138/384 517/139/411 491/139/387
f 505/151/385 532/152/412 506/152/388
f 498/146/386 525/147/413 499/147/389
f 491/139/387 518/140/414 492/140/390
f 506/152/388 533/153/415 507/153/391
f 499/147/389 526/148/416 500/148/392
f 492/140/390 519/141/417 493/141/393
f 507/153/391 534/154/418 508/154/394
f 485/157/405 512/134/419 486/134/395
f 500/148/392 527/149/420 501/149/396
f 493/141/393 520/142/421 494/142/397
f 508/154/394 535/155/422 509/155/398
f 486/134/395 513/135/423 487/135/399
f 501/149/396 528/150/424 502/150/400
f 494/142/397 521/143/425 495/143/401
f 509/155/398 536/156/426 510/156/402
f 487/135/399 514/136/427 488/136/380
f 502/150/400 529/106/428 503/106/403
f 495/143/401 522/144/429 496/144/404
f 510/156/402 511/157/430 485/157/405
f 538/158/431 511/157/430 537/183/432
f 539/159/433 512/134/419 538/158/431
f 540/160/434 513/135/423 539/159/433
f 541/161/435 514/136/427 540/160/434
f 542/162/436 515/137/381 541/161/435
f 543/163/437 516/138/408 542/162/436
f 544/164/438 517/139/411 543/163/437
f 545/165/439 518/140/414 544/164/438
f 546/166/440 519/141/417 545/165/439
f 547/167/441 520/142/421 546/166/440
f 548/168/442 521/143/425 547/167/441
f 549/169/443 522/144/429 548/168/442
f 550/170/444 523/145/407 549/169/443
f 551/171/445 524/146/410 550/170/444
f 552/172/446 525/147/413 551/171/445
f 553/173/447 526/148/416 552/172/446
f 554/174/448 527/149/420 553/173/447
f 555/175/449 528/150/424 554/174/448
f 556/176/450 529/106/428 555/175/449
f 557/177/451 530/107/406 556/176/450
f 558/178/452 531/151/409 557/177/451
f 559/179/453 532/152/412 558/178/452
f 560/180/454 533/153/415 559/179/453
f 561/181/455 534/154/418 560/180/454
f 562/182/456 535/155/422 561/181/455
f 537/183/432 536/156/426 562/182/456
f 563/184/326 559/179/453 558/178/452
f 561/181/455 567/185/326 562/182/456
f 562/182/456 570/186/326 537/183/432
f 540/160/434 569/187/326 541/161/435
f 539/159/433 569/187/326 540/160/434
f 538/158/431 570/186/326 539/159/433
f 537/183/432 570/186/326 538/158/431
f 541/161/435 569/187/326 542/162/436
f 569/187/326 543/163/437 542/162/436
f 569/187/326 544/164/438 543/163/437
f 565/190/326 546/166/440 568/191/326
f 548/168/442 547/167/441 565/190/326
f 551/171/445 550/170/444 566/189/326
f 566/189/326 549/169/443 565/190/326
f 565/190/326 549/169/443 548/168/442
f 552/172/446 551/171/445 566/189/326
f 558/178/452 557/177/451 563/184/326
f 561/181/455 560/180/454 567/185/326
f 567/185/326 559/179/453 563/184/326
f 568/191/326 545/165/439 544/164/438
f 557/177/451 556/176/450 563/184/326
f 564/188/326 552/172/446 566/189/326
f 555/175/449 554/174/448 564/188/326
f 568/191/326 546/166/440 545/165/439
f 554/174/448 553/173/447 564/188/326
f 563/184/326 555/175/449 564/188/326
f 149/106/106 150/107/145 228/107/107
f 184/108/105 183/133/105 157/105/105
f 185/109/105 184/108/105 158/56/105
f 186/110/105 185/109/105 159/59/105
f 187/111/105 186/110/105 160/61/105
f 188/112/105 187/111/105 161/63/105
f 189/113/105 188/112/105 162/65/105
f 190/114/105 189/113/105 163/67/105
f 191/115/105 190/114/105 164/69/105
f 192/116/105 191/115/105 165/71/105
f 193/117/105 192/116/105 166/73/105
f 194/118/105 193/117/105 167/75/105
f 195/119/105 194/118/105 168/77/105
f 196/120/105 195/119/105 169/79/105
f 197/121/105 196/120/105 170/54/105
f 198/122/105 197/121/105 171/55/105
f 199/123/105 198/122/105 172/83/105
f 200/124/105 199/123/105 173/85/105
f 201/125/105 200/124/105 174/87/105
f 202/126/105 201/125/105 175/89/105
f 203/127/105 202/126/105 176/91/105
f 204/128/105 203/127/105 177/93/105
f 205/129/105 204/128/105 178/95/105
f 206/130/105 205/129/105 179/97/105
f 207/131/105 206/130/105 180/99/105
f 208/132/105 207/131/105 181/101/105
f 183/133/105 208/132/105 182/103/105
f 132/134/109 131/157/159 183/133/110
f 133/135/112 132/134/109 184/108/111
f 134/136/114 133/135/112 185/109/113
f 135/137/116 134/136/114 186/110/115
f 136/138/118 135/137/116 187/111/117
f 137/139/120 136/138/118 188/112/119
f 138/140/122 137/139/120 189/113/121
f 139/141/124 138/140/122 190/114/123
f 140/142/126 139/141/124 191/115/125
f 141/143/128 140/142/126 192/116/127
f 142/144/130 141/143/128 193/117/129
f 143/145/132 142/144/130 194/118/131
f 144/146/134 143/145/132 195/119/133
f 145/147/136 144/146/134 196/120/135
f 146/148/138 145/147/136 197/121/137
f 147/149/140 146/148/138 198/122/139
f 148/150/142 147/149/140 199/123/141
f 149/106/106 148/150/142 200/124/143
f 150/107/145 149/106/106 201/125/144
f 151/151/147 150/107/145 202/126/146
f 152/152/149 151/151/147 203/127/148
f 153/153/151 152/152/149 204/128/150
f 154/154/153 153/153/151 205/129/152
f 155/155/155 154/154/153 206/130/154
f 156/156/157 155/155/155 207/131/156
f 131/157/159 156/156/157 208/132/158
f 212/136/160 213/137/166 239/137/161
f 142/144/130 143/145/132 221/145/163
f 135/137/116 136/138/118 214/138/165
f 150/107/145 151/151/147 229/151/167
f 143/145/132 144/146/134 222/146/168
f 136/138/118 137/139/120 215/139/169
f 151/151/147 152/152/149 230/152/170
f 144/146/134 145/147/136 223/147/171
f 137/139/120 138/140/122 216/140/172
f 152/152/149 153/153/151 231/153/173
f 145/147/136 146/148/138 224/148/174
f 138/140/122 139/141/124 217/141/175
f 153/153/151 154/154/153 232/154/176
f 131/157/159 132/134/109 210/134/177
f 146/148/138 147/149/140 225/149/179
f 139/141/124 140/142/126 218/142/180
f 154/154/153 155/155/155 233/155/181
f 132/134/109 133/135/112 211/135/182
f 147/149/140 148/150/142 226/150/183
f 140/142/126 141/143/128 219/143/184
f 155/155/155 156/156/157 234/156/185
f 133/135/112 134/136/114 212/136/160
f 148/150/142 149/106/106 227/106/108
f 141/143/128 142/144/130 220/144/164
f 156/156/157 131/157/159 209/157/178
f 134/136/114 135/137/116 213/137/166
f 227/106/108 228/107/107 254/107/186
f 220/144/164 221/145/163 247/145/188
f 213/137/166 214/138/165 240/138/190
f 228/107/107 229/151/167 255/151/191
f 221/145/163 222/146/168 248/146/192
f 214/138/165 215/139/169 241/139/193
f 229/151/167 230/152/170 256/152/194
f 222/146/168 223/147/171 249/147/195
f 215/139/169 216/140/172 242/140/196
f 230/152/170 231/153/173 257/153/197
f 223/147/171 224/148/174 250/148/198
f 216/140/172 217/141/175 243/141/199
f 231/153/173 232/154/176 258/154/200
f 209/157/178 210/134/177 236/134/201
f 224/148/174 225/149/179 251/149/203
f 217/141/175 218/142/180 244/142/204
f 232/154/176 233/155/181 259/155/205
f 210/134/177 211/135/182 237/135/206
f 225/149/179 226/150/183 252/150/207
f 218/142/180 219/143/184 245/143/208
f 233/155/181 234/156/185 260/156/209
f 211/135/182 212/136/160 238/136/162
f 226/150/183 227/106/108 253/106/187
f 219/143/184 220/144/164 246/144/189
f 234/156/185 209/157/178 235/157/202
f 262/158/210 261/183/235 235/157/202
f 263/159/211 262/158/210 236/134/201
f 264/160/212 263/159/211 237/135/206
f 265/161/213 264/160/212 238/136/162
f 266/162/214 265/161/213 239/137/161
f 267/163/215 266/162/214 240/138/190
f 268/164/216 267/163/215 241/139/193
f 269/165/217 268/164/216 242/140/196
f 270/166/218 269/165/217 243/141/199
f 271/167/219 270/166/218 244/142/204
f 272/168/220 271/167/219 245/143/208
f 273/169/221 272/168/220 246/144/189
f 274/170/222 273/169/221 247/145/188
f 275/171/223 274/170/222 248/146/192
f 276/172/224 275/171/223 249/147/195
f 277/173/225 276/172/224 250/148/198
f 278/174/226 277/173/225 251/149/203
f 279/175/227 278/174/226 252/150/207
f 280/176/228 279/175/227 253/106/187
f 281/177/229 280/176/228 254/107/186
f 282/178/230 281/177/229 255/151/191
f 283/179/231 282/178/230 256/152/194
f 284/180/232 283/179/231 257/153/197
f 285/181/233 284/180/232 258/154/200
f 286/182/234 285/181/233 259/155/205
f 261/183/235 286/182/234 260/156/209
f 286/182/234 261/183/235 302/186/105
f 263/159/211 264/160/212 300/187/105
f 300/187/105 267/163/215 268/164/216
f 292/190/105 298/191/105 270/166/218
f 294/189/105 292/190/105 273/169/221
f 296/185/105 288/184/105 283/179/231
f 290/188/105 294/189/105 276/172/224
f 288/184/105 290/188/105 279/175/227
f 425/106/327 503/106/403 504/107/328
f 460/108/326 434/56/326 433/105/326
f 461/109/326 435/59/326 434/56/326
f 462/110/326 436/61/326 435/59/326
f 463/111/326 437/63/326 436/61/326
f 464/112/326 438/65/326 437/63/326
f 465/113/326 439/67/326 438/65/326
f 466/114/326 440/69/326 439/67/326
f 467/115/326 441/71/326 440/69/326
f 468/116/326 442/73/326 441/71/326
f 469/117/326 443/75/326 442/73/326
f 470/118/326 444/77/326 443/75/326
f 471/119/326 445/79/326 444/77/326
f 472/120/326 446/54/326 445/79/326
f 473/121/326 447/55/326 446/54/326
f 474/122/326 448/83/326 447/55/326
f 475/123/326 449/85/326 448/83/326
f 476/124/326 450/87/326 449/85/326
f 477/125/326 451/89/326 450/87/326
f 478/126/326 452/91/326 451/89/326
f 479/127/326 453/93/326 452/91/326
f 480/128/326 454/95/326 453/93/326
f 481/129/326 455/97/326 454/95/326
f 482/130/326 456/99/326 455/97/326
f 483/131/326 457/101/326 456/99/326
f 484/132/326 458/103/326 457/101/326
f 459/133/326 433/105/326 458/103/326
f 408/134/330 460/108/334 459/133/331
f 409/135/333 461/109/336 460/108/334
f 410/136/335 462/110/338 461/109/336
f 411/137/337 463/111/340 462/110/338
f 412/138/339 464/112/342 463/111/340
f 413/139/341 465/113/344 464/112/342
f 414/140/343 466/114/346 465/113/344
f 415/141/345 467/115/348 466/114/346
f 416/142/347 468/116/350 467/115/348
f 417/143/349 469/117/352 468/116/350
f 418/144/351 470/118/354 469/117/352
f 419/145/353 471/119/356 470/118/354
f 420/146/355 472/120/358 471/119/356
f 421/147/357 473/121/360 472/120/358
f 422/148/359 474/122/362 473/121/360
f 423/149/361 475/123/364 474/122/362
f 424/150/363 476/124/365 475/123/364
f 425/106/327 477/125/366 476/124/365
f 426/107/329 478/126/368 477/125/366
f 427/151/367 479/127/370 478/126/368
f 428/152/369 480/128/372 479/127/370
f 429/153/371 481/129/374 480/128/372
f 430/154/373 482/130/376 481/129/374
f 431/155/375 483/131/378 482/130/376
f 432/156/377 484/132/379 483/131/378
f 407/157/332 459/133/331 484/132/379
f 488/136/380 514/136/427 515/137/381
f 418/144/351 496/144/404 497/145/383
f 411/137/337 489/137/382 490/138/384
f 426/107/329 504/107/328 505/151/385
f 419/145/353 497/145/383 498/146/386
f 412/138/339 490/138/384 491/139/387
f 427/151/367 505/151/385 506/152/388
f 420/146/355 498/146/386 499/147/389
f 413/139/341 491/139/387 492/140/390
f 428/152/369 506/152/388 507/153/391
f 421/147/357 499/147/389 500/148/392
f 414/140/343 492/140/390 493/141/393
f 429/153/371 507/153/391 508/154/394
f 407/157/332 485/157/405 486/134/395
f 422/148/359 500/148/392 501/149/396
f 415/141/345 493/141/393 494/142/397
f 430/154/373 508/154/394 509/155/398
f 408/134/330 486/134/395 487/135/399
f 423/149/361 501/149/396 502/150/400
f 416/142/347 494/142/397 495/143/401
f 431/155/375 509/155/398 510/156/402
f 409/135/333 487/135/399 488/136/380
f 424/150/363 502/150/400 503/106/403
f 417/143/349 495/143/401 496/144/404
f 432/156/377 510/156/402 485/157/405
f 410/136/335 488/136/380 489/137/382
f 503/106/403 529/106/428 530/107/406
f 496/144/404 522/144/429 523/145/407
f 489/137/382 515/137/381 516/138/408
f 504/107/328 530/107/406 531/151/409
f 497/145/383 523/145/407 524/146/410
f 490/138/384 516/138/408 517/139/411
f 505/151/385 531/151/409 532/152/412
f 498/146/386 524/146/410 525/147/413
f 491/139/387 517/139/411 518/140/414
f 506/152/388 532/152/412 533/153/415
f 499/147/389 525/147/413 526/148/416
f 492/140/390 518/140/414 519/141/417
f 507/153/391 533/153/415 534/154/418
f 485/157/405 511/157/430 512/134/419
f 500/148/392 526/148/416 527/149/420
f 493/141/393 519/141/417 520/142/421
f 508/154/394 534/154/418 535/155/422
f 486/134/395 512/134/419 513/135/423
f 501/149/396 527/149/420 528/150/424
f 494/142/397 520/142/421 521/143/425
f 509/155/398 535/155/422 536/156/426
f 487/135/399 513/135/423 514/136/427
f 502/150/400 528/150/424 529/106/428
f 495/143/401 521/143/425 522/144/429
f 510/156/402 536/156/426 511/157/430
f 538/158/431 512/134/419 511/157/430
f 539/159/433 513/135/423 512/134/419
f 540/160/434 514/136/427 513/135/423
f 541/161/435 515/137/381 514/136/427
f 542/162/436 516/138/408 515/137/381
f 543/163/437 517/139/411 516/138/408
f 544/164/438 518/140/414 517/139/411
f 545/165/439 519/141/417 518/140/414
f 546/166/440 520/142/421 519/141/417
f 547/167/441 521/143/425 520/142/421
f 548/168/442 522/144/429 521/143/425
f 549/169/443 523/145/407 522/144/429
f 550/170/444 524/146/410 523/145/407
f 551/171/445 525/147/413 524/146/410
f 552/172/446 526/148/416 525/147/413
f 553/173/447 527/149/420 526/148/416
f 554/174/448 528/150/424 527/149/420
f 555/175/449 529/106/428 528/150/424
f 556/176/450 530/107/406 529/106/428
f 557/177/451 531/151/409 530/107/406
f 558/178/452 532/152/412 531/151/409
f 559/179/453 533/153/415 532/152/412
f 560/180/454 534/154/418 533/153/415
f 561/181/455 535/155/422 534/154/418
f 562/182/456 536/156/426 535/155/422
f 537/183/432 511/157/430 536/156/426
f 562/182/456 567/185/326 570/186/326
f 539/159/433 570/186/326 569/187/326
f 569/187/326 568/191/326 544/164/438
f 565/190/326 547/167/441 546/166/440
f 566/189/326 550/170/444 549/169/443
f 567/185/326 560/180/454 559/179/453
f 564/188/326 553/173/447 552/172/446
f 563/184/326 556/176/450 555/175/449
