# Blender 4.2.16 LTS
# www.blender.org
mtllib caster_bar.mtl
o Caster_bar
v -0.012447 0.031190 -0.027274
v -0.010916 0.031190 -0.027274
v -0.012447 0.031667 -0.034866
v -0.010916 0.031667 -0.034866
v -0.012447 0.025977 -0.040854
v -0.010916 0.025977 -0.040854
v -0.012447 0.017720 -0.041065
v -0.010916 0.017720 -0.041065
v -0.012447 0.011632 -0.035542
v -0.010916 0.011632 -0.035542
v -0.010916 0.014297 -0.009995
v -0.012447 0.014297 -0.009995
v -0.010916 0.000926 -0.023520
v -0.012447 0.000926 -0.023520
v -0.012447 0.025434 -0.021352
v -0.010916 0.025434 -0.021352
v -0.012447 -0.008728 -0.012688
v -0.010916 -0.008728 -0.012688
v -0.012447 0.012734 -0.006437
v -0.010916 0.012734 -0.006437
v -0.012447 -0.011894 -0.006491
v -0.010916 -0.011894 -0.006491
v -0.012447 0.012535 -0.003246
v -0.010916 0.012535 -0.003246
v -0.010069 -0.012492 0.001324
v -0.009479 -0.012492 -0.000028
v -0.010069 0.012495 0.001325
v -0.009479 0.012495 -0.000028
v -0.010334 0.012515 -0.000551
v -0.010334 -0.012539 -0.000551
v -0.011420 0.012515 0.000541
v -0.011420 -0.012539 0.000541
v -0.012447 0.012523 -0.001288
v -0.012447 -0.012410 -0.001288
v -0.010835 0.012523 -0.001337
v -0.010835 -0.012410 -0.001337
v -0.008946 -0.012492 0.000002
v -0.008946 0.012495 0.001508
v -0.008946 0.012495 0.000002
v -0.008946 -0.012492 0.001508
v -0.000000 -0.012492 0.000002
v -0.000000 0.012495 0.000002
v -0.000000 -0.012492 0.001508
v -0.000000 0.012495 0.001508
v 0.012447 0.031190 -0.027274
v 0.010916 0.031190 -0.027274
v 0.012447 0.031667 -0.034866
v 0.010916 0.031667 -0.034866
v 0.012447 0.025977 -0.040854
v 0.010916 0.025977 -0.040854
v 0.012447 0.017720 -0.041065
v 0.010916 0.017720 -0.041065
v 0.012447 0.011632 -0.035542
v 0.010916 0.011632 -0.035542
v 0.010916 0.014297 -0.009995
v 0.012447 0.014297 -0.009995
v 0.010916 0.000926 -0.023520
v 0.012447 0.000926 -0.023520
v 0.012447 0.025434 -0.021352
v 0.010916 0.025434 -0.021352
v 0.012447 -0.008728 -0.012688
v 0.010916 -0.008728 -0.012688
v 0.012447 0.012734 -0.006437
v 0.010916 0.012734 -0.006437
v 0.012447 -0.011894 -0.006491
v 0.010916 -0.011894 -0.006491
v 0.012447 0.012535 -0.003246
v 0.010916 0.012535 -0.003246
v 0.010069 -0.012492 0.001324
v 0.009479 -0.012492 -0.000028
v 0.010069 0.012495 0.001325
v 0.009479 0.012495 -0.000028
v 0.010334 0.012515 -0.000551
v 0.010334 -0.012539 -0.000551
v 0.011420 0.012515 0.000541
v 0.011420 -0.012539 0.000541
v 0.012447 0.012523 -0.001288
v 0.012447 -0.012410 -0.001288
v 0.010835 0.012523 -0.001337
v 0.010835 -0.012410 -0.001337
v 0.008946 -0.012492 0.000002
v 0.008946 0.012495 0.001508
v 0.008946 0.012495 0.000002
v 0.008946 -0.012492 0.001508
v -0.012447 0.022607 -0.027649
v -0.010916 0.022607 -0.027649
v 0.012447 0.022607 -0.027649
v 0.010916 0.022607 -0.027649
v -0.012447 0.019946 -0.027912
v -0.010916 0.019946 -0.027912
v 0.012447 0.019946 -0.027912
v 0.010916 0.019946 -0.027912
v -0.012447 0.020581 -0.034336
v -0.010916 0.020581 -0.034336
v 0.010916 0.020581 -0.034336
v 0.012447 0.020581 -0.034336
v -0.012447 0.024674 -0.029345
v -0.010916 0.024674 -0.029345
v 0.010916 0.024674 -0.029345
v 0.012447 0.024674 -0.029345
v -0.012447 0.024937 -0.032006
v -0.010916 0.024937 -0.032006
v 0.010916 0.024937 -0.032006
v 0.012447 0.024937 -0.032006
v -0.012447 0.018250 -0.029979
v -0.010916 0.018250 -0.029979
v 0.012447 0.018250 -0.029979
v 0.010916 0.018250 -0.029979
v -0.012447 0.018513 -0.032640
v -0.010916 0.018513 -0.032640
v 0.012447 0.018513 -0.032640
v 0.010916 0.018513 -0.032640
v -0.012447 0.023241 -0.034073
v -0.010916 0.023241 -0.034073
v 0.010916 0.023241 -0.034073
v 0.012447 0.023241 -0.034073
vn -0.0000 0.9143 0.4049
vn -0.0000 0.9399 -0.3416
vn -0.0000 0.9399 -0.3415
vn -0.0000 0.4061 -0.9138
vn -0.0000 0.4062 -0.9138
vn -0.0000 -0.3482 -0.9374
vn -0.0000 -0.7104 -0.7038
vn -0.0000 0.7156 0.6985
vn -0.0000 0.8283 0.5603
vn -0.0000 -0.7467 -0.6652
vn 1.0000 -0.0000 -0.0000
vn -1.0000 -0.0000 -0.0000
vn -0.0000 0.9718 0.2359
vn -0.0000 -0.8253 -0.5647
vn 0.9997 0.0030 -0.0224
vn 1.0000 0.0002 -0.0094
vn -0.0000 0.9994 0.0343
vn -0.0000 0.9994 0.0339
vn -0.0000 -0.9596 -0.2813
vn -0.0003 -0.9594 -0.2821
vn 0.6954 -0.0000 -0.7187
vn 0.2999 -0.0000 -0.9540
vn 0.3019 -0.0000 -0.9533
vn 0.0100 0.9999 0.0074
vn 0.0067 1.0000 0.0046
vn 0.0087 1.0000 0.0038
vn -0.7131 -0.0000 0.7011
vn -0.3388 -0.0000 0.9409
vn -0.3378 -0.0000 0.9412
vn -0.0072 -0.9999 -0.0120
vn 0.0145 -0.9998 0.0107
vn 0.0146 -0.9999 0.0064
vn -0.0038 -0.9911 -0.1331
vn -0.0148 -0.9956 -0.0925
vn -0.9639 -0.0000 0.2661
vn -0.9677 -0.0000 0.2523
vn 0.0001 1.0000 0.0054
vn 0.0016 1.0000 0.0056
vn 0.9547 0.0025 -0.2974
vn 0.9515 -0.0000 -0.3078
vn 0.0059 1.0000 0.0072
vn 0.7019 -0.0000 -0.7123
vn 0.0021 -0.9996 -0.0266
vn -0.7101 -0.0000 0.7041
vn 0.0285 -0.0000 -0.9996
vn -0.0586 0.6893 0.7221
vn -0.0000 1.0000 -0.0000
vn -0.0586 -0.6894 0.7220
vn -0.0000 -1.0000 -0.0000
vn -0.0000 0.7071 0.7071
vn -0.0000 -0.7071 0.7071
vn -0.0000 -0.0000 -1.0000
vn -0.9997 0.0030 -0.0224
vn -0.6954 -0.0000 -0.7187
vn -0.2999 -0.0000 -0.9540
vn -0.7019 -0.0000 -0.7123
vn -0.0100 0.9999 0.0074
vn -0.0067 1.0000 0.0046
vn -0.0059 1.0000 0.0072
vn 0.7131 -0.0000 0.7011
vn 0.3388 -0.0000 0.9409
vn 0.7101 -0.0000 0.7041
vn 0.0072 -0.9999 -0.0120
vn -0.0145 -0.9998 0.0107
vn -0.0021 -0.9996 -0.0266
vn 0.0003 -0.9594 -0.2821
vn 0.0038 -0.9911 -0.1331
vn 0.9639 -0.0000 0.2661
vn -0.0001 1.0000 0.0054
vn -1.0000 0.0002 -0.0094
vn -0.9547 0.0025 -0.2974
vn -0.0016 1.0000 0.0056
vn -0.9515 -0.0000 -0.3078
vn 0.0148 -0.9956 -0.0925
vn 0.9677 -0.0000 0.2523
vn -0.3019 -0.0000 -0.9533
vn -0.0285 -0.0000 -0.9996
vn -0.0087 1.0000 0.0038
vn 0.0586 0.6893 0.7221
vn 0.3378 -0.0000 0.9412
vn 0.0586 -0.6894 0.7220
vn -0.0146 -0.9999 0.0064
vn -0.0000 -0.8818 -0.4717
vn -0.0000 -0.2900 -0.9570
vn -0.0000 0.2900 0.9570
vn -0.0000 -0.4717 0.8818
vn -0.0000 0.4717 -0.8818
vn -0.0000 0.8818 0.4717
vn -0.0000 0.9570 -0.2900
vn -0.0000 -0.9570 0.2900
vn 1.0000 -0.0000 0.0001
vt 1.000000 0.500000
vt 0.875000 1.000000
vt 0.875000 0.500000
vt 0.750000 1.000000
vt 0.750000 0.500000
vt 0.625000 1.000000
vt 0.625000 0.500000
vt 0.500000 1.000000
vt 0.500000 0.500000
vt 0.125000 1.000000
vt 0.361082 0.500000
vt 0.361082 1.000000
vt 0.263918 1.000000
vt 0.263918 0.500000
vt 0.250000 0.010000
vt -0.241930 0.291070
vt -0.072225 -0.118635
vt 0.580294 0.419706
vt 0.427775 -0.118635
vt 0.258070 0.291070
vt 0.125000 0.500000
vt 0.000000 1.000000
vt 0.000000 0.500000
vt 0.919706 0.419706
vt 0.824390 0.258306
vt 0.796532 0.312387
vt 0.185051 0.305180
vt 0.080294 0.419706
vt 0.166754 0.248440
vt 0.427775 -0.118635
vt 0.000000 0.000000
vt 1.000000 1.000000
vt 0.750000 0.010000
vt 0.824390 0.258306
vt 0.990000 0.250000
vt 0.185051 0.305180
vt 0.166754 0.248440
vt 0.125000 0.617665
vt 0.250000 0.633944
vt 0.250000 0.617665
vt 0.125000 0.866056
vt 0.250000 0.882335
vt 0.250000 0.866056
vt 0.490000 0.250000
vt 0.305778 0.201870
vt 0.324390 0.258306
vt 0.750000 0.617665
vt 0.875000 0.633944
vt 0.875000 0.617665
vt 0.750000 0.866056
vt 0.875000 0.882335
vt 0.875000 0.866056
vt 0.666754 0.248440
vt 0.375000 0.633944
vt 0.375000 0.617665
vt 0.375000 0.882335
vt 0.375000 0.866056
vt 0.625000 0.617665
vt 0.750000 0.633944
vt 0.625000 0.866056
vt 0.750000 0.882335
vt 0.919706 0.080294
vt 0.251895 0.175826
vt 0.194341 0.195081
vt 0.500000 0.617665
vt 0.625000 0.633944
vt 0.500000 0.866056
vt 0.625000 0.882335
vt 0.000000 0.617665
vt 0.125000 0.633944
vt 0.000000 0.866056
vt 0.125000 0.882335
vt 1.000000 0.633944
vt 1.000000 0.617665
vt 1.000000 0.882335
vt 1.000000 0.866056
vt 0.500000 0.633944
vt 0.500000 0.882335
vt 0.805778 0.201870
vt 0.685051 0.305180
vt 0.738547 0.332110
vt 0.796532 0.312387
vt 0.750000 0.490000
vt 0.751895 0.175826
vt 0.694341 0.195081
vt 0.194341 0.195081
vt 0.251895 0.175826
vt 0.419706 0.419706
vt 0.296532 0.312387
vt 0.250000 0.490000
vt 0.238547 0.332110
vt 0.419706 0.080294
vt 0.296532 0.312387
vt 0.324390 0.258306
vt 0.305778 0.201870
vt 0.238547 0.332110
vt 0.738547 0.332110
vt 0.805778 0.201870
vt 0.685051 0.305180
vt 0.694341 0.195081
vt 0.751895 0.175826
vt 0.666754 0.248440
vt 0.000000 0.633944
vt 0.000000 0.882335
s 1
usemtl Blued_steel.001
f 1/1/1 4/2/2 3/3/3
f 3/3/3 6/4/4 5/5/5
f 5/5/5 8/6/6 7/7/6
f 7/7/6 10/8/7 9/9/7
f 16/10/8 12/11/9 11/12/9
f 9/9/7 13/13/10 14/14/10
f 10/15/11 11/16/11 13/17/11
f 15/18/12 14/19/12 12/20/12
f 15/21/8 2/22/1 1/23/1
f 13/17/11 20/16/11 18/17/11
f 3/24/12 113/25/12 101/26/12
f 86/27/11 16/28/11 90/29/11
f 11/12/9 19/11/13 20/12/13
f 12/20/12 17/19/12 19/20/12
f 14/14/10 18/13/14 17/14/14
f 18/17/11 24/16/15 22/17/16
f 20/12/13 23/11/17 24/12/18
f 19/20/12 21/19/12 23/20/12
f 17/14/14 22/13/19 21/14/20
f 30/17/21 28/16/22 26/17/23
f 29/12/24 27/11/25 28/12/26
f 31/20/27 25/19/28 27/20/29
f 32/14/30 26/13/31 25/14/32
f 21/14/20 36/13/33 34/14/34
f 23/20/12 34/30/35 33/20/36
f 24/12/18 33/11/37 35/12/38
f 22/17/16 35/16/39 36/17/40
f 35/12/38 31/11/41 29/12/24
f 36/17/40 29/16/42 30/17/21
f 34/14/34 30/13/43 32/14/30
f 33/20/36 32/19/44 31/20/27
f 26/17/23 39/16/45 37/17/45
f 28/12/26 38/11/46 39/12/47
f 27/20/29 40/19/48 38/20/46
f 25/14/32 37/13/49 40/14/48
f 40/31/48 44/31/50 38/31/46
f 40/14/48 41/13/49 43/14/51
f 37/17/45 42/16/52 41/17/52
f 39/12/47 44/11/50 42/12/47
f 45/1/1 48/2/2 46/32/1
f 47/3/3 50/4/4 48/2/2
f 49/5/5 52/6/6 50/4/4
f 51/7/6 54/8/7 52/6/6
f 60/10/8 56/11/9 59/21/8
f 53/9/7 57/13/10 54/8/7
f 54/15/12 55/16/12 60/28/12
f 59/18/11 58/19/11 53/33/11
f 59/21/8 46/22/1 60/10/8
f 57/17/12 64/16/12 55/16/12
f 47/24/11 116/34/11 49/35/11
f 60/28/12 88/36/12 92/37/12
f 55/12/9 63/11/13 56/11/9
f 56/20/11 61/19/11 58/19/11
f 58/14/10 62/13/14 57/13/10
f 62/17/12 68/16/53 64/16/12
f 64/12/13 67/11/17 63/11/13
f 63/20/11 65/19/11 61/19/11
f 61/14/14 66/13/19 62/13/14
f 74/17/54 72/16/55 73/16/56
f 73/12/57 71/11/58 75/11/59
f 75/20/60 69/19/61 76/19/62
f 76/14/63 70/13/64 74/13/65
f 65/14/66 80/13/67 66/13/19
f 67/20/11 78/30/68 65/19/11
f 68/12/18 77/11/69 67/11/17
f 66/17/70 79/16/71 68/16/53
f 79/12/72 75/11/59 77/11/69
f 80/17/73 73/16/56 79/16/71
f 78/14/74 74/13/65 80/13/67
f 77/20/75 76/19/62 78/30/68
f 70/17/76 83/16/77 72/16/55
f 72/12/78 82/11/79 71/11/58
f 71/20/80 84/19/81 69/19/61
f 69/14/82 81/13/49 70/13/64
f 84/31/81 44/31/50 43/31/51
f 84/14/81 41/13/49 81/13/49
f 81/17/77 42/16/52 83/16/77
f 83/12/47 44/11/50 82/11/79
f 97/38/83 86/39/84 85/40/84
f 99/41/83 87/42/84 88/43/84
f 50/44/12 95/45/12 115/46/12
f 93/47/85 114/48/86 113/49/86
f 95/50/85 116/51/86 115/52/86
f 53/33/11 91/53/11 59/18/11
f 85/40/84 90/54/87 89/55/87
f 88/43/84 91/56/87 92/57/87
f 109/58/88 94/59/85 93/47/85
f 112/60/88 96/61/85 95/50/85
f 7/62/12 113/25/12 5/35/12
f 10/15/11 110/63/11 106/64/11
f 105/65/89 110/66/88 109/58/88
f 108/67/89 111/68/88 112/60/88
f 101/69/90 98/70/83 97/38/83
f 103/71/90 100/72/83 99/41/83
f 113/49/86 102/73/90 101/74/90
f 115/52/86 104/75/90 103/76/90
f 89/55/87 106/77/89 105/65/89
f 92/57/87 107/78/89 108/67/89
f 49/35/11 96/79/11 51/62/11
f 59/18/11 91/53/11 87/80/11
f 47/24/11 100/81/11 104/82/11
f 45/83/11 87/80/11 100/81/11
f 53/33/11 111/84/11 107/85/11
f 51/62/11 111/84/11 53/33/11
f 54/15/12 108/86/12 112/87/12
f 48/88/12 115/46/12 103/89/12
f 46/90/12 103/89/12 99/91/12
f 52/92/12 112/87/12 95/45/12
f 60/28/12 99/91/12 88/36/12
f 6/44/11 102/93/11 114/94/11
f 6/44/11 94/95/11 8/92/11
f 8/92/11 110/63/11 10/15/11
f 2/90/11 86/27/11 98/96/11
f 4/88/11 98/96/11 102/93/11
f 1/83/12 101/26/12 97/97/12
f 9/33/12 93/98/12 7/62/12
f 15/18/12 97/97/12 85/99/12
f 9/33/12 105/100/12 109/101/12
f 15/18/12 105/100/12 9/33/12
f 89/102/91 15/18/12 85/99/12
f 1/1/1 2/32/1 4/2/2
f 3/3/3 4/2/2 6/4/4
f 5/5/5 6/4/4 8/6/6
f 7/7/6 8/6/6 10/8/7
f 16/10/8 15/21/8 12/11/9
f 9/9/7 10/8/7 13/13/10
f 10/15/11 16/28/11 11/16/11
f 15/18/12 9/33/12 14/19/12
f 15/21/8 16/10/8 2/22/1
f 13/17/11 11/16/11 20/16/11
f 3/24/12 5/35/12 113/25/12
f 11/12/9 12/11/9 19/11/13
f 12/20/12 14/19/12 17/19/12
f 14/14/10 13/13/10 18/13/14
f 18/17/11 20/16/11 24/16/15
f 20/12/13 19/11/13 23/11/17
f 19/20/12 17/19/12 21/19/12
f 17/14/14 18/13/14 22/13/19
f 30/17/21 29/16/42 28/16/22
f 29/12/24 31/11/41 27/11/25
f 31/20/27 32/19/44 25/19/28
f 32/14/30 30/13/43 26/13/31
f 21/14/20 22/13/19 36/13/33
f 23/20/12 21/19/12 34/30/35
f 24/12/18 23/11/17 33/11/37
f 22/17/16 24/16/15 35/16/39
f 35/12/38 33/11/37 31/11/41
f 36/17/40 35/16/39 29/16/42
f 34/14/34 36/13/33 30/13/43
f 33/20/36 34/30/35 32/19/44
f 26/17/23 28/16/22 39/16/45
f 28/12/26 27/11/25 38/11/46
f 27/20/29 25/19/28 40/19/48
f 25/14/32 26/13/31 37/13/49
f 40/31/48 43/31/51 44/31/50
f 40/14/48 37/13/49 41/13/49
f 37/17/45 39/16/45 42/16/52
f 39/12/47 38/11/46 44/11/50
f 45/1/1 47/3/3 48/2/2
f 47/3/3 49/5/5 50/4/4
f 49/5/5 51/7/6 52/6/6
f 51/7/6 53/9/7 54/8/7
f 60/10/8 55/12/9 56/11/9
f 53/9/7 58/14/10 57/13/10
f 54/15/12 57/17/12 55/16/12
f 59/18/11 56/20/11 58/19/11
f 59/21/8 45/23/1 46/22/1
f 57/17/12 62/17/12 64/16/12
f 47/24/11 104/82/11 116/34/11
f 55/12/9 64/12/13 63/11/13
f 56/20/11 63/20/11 61/19/11
f 58/14/10 61/14/14 62/13/14
f 62/17/12 66/17/70 68/16/53
f 64/12/13 68/12/18 67/11/17
f 63/20/11 67/20/11 65/19/11
f 61/14/14 65/14/66 66/13/19
f 74/17/54 70/17/76 72/16/55
f 73/12/57 72/12/78 71/11/58
f 75/20/60 71/20/80 69/19/61
f 76/14/63 69/14/82 70/13/64
f 65/14/66 78/14/74 80/13/67
f 67/20/11 77/20/75 78/30/68
f 68/12/18 79/12/72 77/11/69
f 66/17/70 80/17/73 79/16/71
f 79/12/72 73/12/57 75/11/59
f 80/17/73 74/17/54 73/16/56
f 78/14/74 76/14/63 74/13/65
f 77/20/75 75/20/60 76/19/62
f 70/17/76 81/17/77 83/16/77
f 72/12/78 83/12/47 82/11/79
f 71/20/80 82/20/79 84/19/81
f 69/14/82 84/14/81 81/13/49
f 84/31/81 82/31/79 44/31/50
f 84/14/81 43/14/51 41/13/49
f 81/17/77 41/17/52 42/16/52
f 83/12/47 42/12/47 44/11/50
f 97/38/83 98/70/83 86/39/84
f 99/41/83 100/72/83 87/42/84
f 50/44/12 52/92/12 95/45/12
f 93/47/85 94/59/85 114/48/86
f 95/50/85 96/61/85 116/51/86
f 53/33/11 107/85/11 91/53/11
f 85/40/84 86/39/84 90/54/87
f 88/43/84 87/42/84 91/56/87
f 109/58/88 110/66/88 94/59/85
f 112/60/88 111/68/88 96/61/85
f 7/62/12 93/98/12 113/25/12
f 105/65/89 106/77/89 110/66/88
f 108/67/89 107/78/89 111/68/88
f 101/69/90 102/103/90 98/70/83
f 103/71/90 104/104/90 100/72/83
f 113/49/86 114/48/86 102/73/90
f 115/52/86 116/51/86 104/75/90
f 89/55/87 90/54/87 106/77/89
f 92/57/87 91/56/87 107/78/89
f 49/35/11 116/34/11 96/79/11
f 47/24/11 45/83/11 100/81/11
f 45/83/11 59/18/11 87/80/11
f 51/62/11 96/79/11 111/84/11
f 48/88/12 50/44/12 115/46/12
f 46/90/12 48/88/12 103/89/12
f 52/92/12 54/15/12 112/87/12
f 60/28/12 46/90/12 99/91/12
f 6/44/11 4/88/11 102/93/11
f 6/44/11 114/94/11 94/95/11
f 8/92/11 94/95/11 110/63/11
f 2/90/11 16/28/11 86/27/11
f 4/88/11 2/90/11 98/96/11
f 1/83/12 3/24/12 101/26/12
f 9/33/12 109/101/12 93/98/12
f 15/18/12 1/83/12 97/97/12
f 15/18/12 89/102/91 105/100/12
f 60/28/12 92/37/12 108/86/12 54/15/12
f 16/28/11 10/15/11 106/64/11 90/29/11
