# Blender 4.2.16 LTS
# www.blender.org
mtllib AMR100_body_collision.mtl
o Body_collizion
v 0.000000 -0.345347 0.000000
v 0.000000 0.000000 0.182502
v -0.108521 0.000000 0.182502
v -0.087267 0.000000 0.182502
v 0.000000 -0.303969 0.182502
v 0.000000 -0.341507 0.145939
v 0.000000 -0.315319 0.180713
v 0.000000 -0.325651 0.175519
v 0.000000 -0.333956 0.167430
v 0.000000 -0.339419 0.157238
v -0.138102 0.000000 0.182502
v -0.154564 0.000000 0.182502
v -0.108521 -0.230377 0.182502
v -0.138102 -0.230377 0.182502
v -0.154564 -0.230377 0.182502
v 0.000000 -0.230377 0.182502
v -0.087267 -0.230377 0.182502
v 0.000000 -0.244120 0.182502
v -0.108521 -0.244119 0.182502
v -0.087267 -0.244121 0.182502
v -0.138102 -0.244120 0.182502
v -0.154279 -0.244119 0.182502
v -0.138102 -0.256372 0.182502
v 0.000000 -0.256372 0.182502
v -0.108521 -0.256372 0.182502
v -0.154025 -0.256372 0.182502
v -0.087267 -0.256372 0.182502
v -0.181174 0.000000 0.177286
v -0.169595 0.000000 0.182502
v -0.178197 0.000000 0.179894
v -0.173959 0.000000 0.181803
v -0.181018 -0.233446 0.177299
v -0.169443 -0.230377 0.182502
v -0.178051 -0.231912 0.179901
v -0.173814 -0.230788 0.181805
v -0.213218 0.000000 0.127430
v -0.208910 0.000000 0.140149
v -0.212573 0.000000 0.131769
v -0.210996 0.000000 0.136424
v -0.208935 -0.255590 0.139760
v -0.213228 -0.259038 0.127036
v -0.211014 -0.257245 0.136034
v -0.212585 -0.258507 0.131376
v -0.178067 -0.247785 0.177277
v -0.166676 -0.244118 0.182502
v -0.175214 -0.245951 0.179889
v -0.171045 -0.244609 0.181802
v -0.159953 -0.256372 0.182502
v -0.170919 -0.260372 0.177111
v -0.164297 -0.256907 0.181780
v -0.168311 -0.258372 0.179807
v -0.140643 -0.281871 0.176954
v -0.138102 -0.270988 0.182502
v -0.139372 -0.278955 0.179728
v -0.138442 -0.274972 0.181759
v -0.153915 -0.261700 0.182502
v -0.156576 -0.272695 0.176943
v -0.154218 -0.265772 0.181757
v -0.155192 -0.269797 0.179723
v -0.210491 -0.280602 0.123579
v -0.206375 -0.276436 0.136449
v -0.209871 -0.279975 0.127939
v -0.208365 -0.278450 0.132650
v -0.138016 -0.341483 0.110229
v -0.132540 -0.337102 0.124163
v -0.137380 -0.340812 0.114488
v -0.135375 -0.339209 0.119588
v -0.186115 -0.313662 0.118482
v -0.189496 -0.318283 0.105041
v -0.187739 -0.315904 0.114365
v -0.188976 -0.317595 0.109446
v -0.172419 -0.331575 0.100948
v -0.169307 -0.326797 0.114366
v -0.171936 -0.330868 0.105315
v -0.170797 -0.329119 0.110226
v -0.148177 -0.335343 0.117257
v -0.152336 -0.339789 0.103797
v -0.150191 -0.337499 0.113056
v -0.151714 -0.339127 0.108130
v -0.202406 -0.300820 0.115672
v -0.198731 -0.296142 0.128906
v -0.201846 -0.300124 0.120074
v -0.200501 -0.298412 0.124918
v -0.111863 -0.296445 0.177003
v -0.108521 -0.286168 0.182502
v -0.110192 -0.293758 0.179753
v -0.108969 -0.289997 0.181765
v -0.091516 -0.307441 0.177027
v -0.075584 -0.304315 0.182502
v -0.087827 -0.305898 0.179764
v -0.081995 -0.304754 0.181768
v -0.102082 -0.336858 0.141421
v -0.075419 -0.341013 0.145930
v -0.092880 -0.338908 0.143675
v -0.083121 -0.340429 0.145326
v -0.073679 -0.334053 0.160323
v -0.058952 -0.339255 0.157232
v -0.070233 -0.336643 0.158777
v -0.064843 -0.338547 0.157645
v -0.066555 -0.330505 0.167972
v -0.049718 -0.334402 0.167427
v -0.061958 -0.332488 0.167699
v -0.055795 -0.333914 0.167500
v -0.066040 -0.326816 0.172070
v -0.048716 -0.326938 0.175518
v -0.061194 -0.326978 0.173794
v -0.054853 -0.327022 0.175055
v -0.070413 -0.321100 0.174930
v -0.056156 -0.317652 0.180712
v -0.067146 -0.319537 0.177821
v -0.061927 -0.318274 0.179937
v 0.000000 0.345347 0.000000
v 0.000000 0.303969 0.182502
v 0.000000 0.341507 0.145939
v 0.000000 0.315319 0.180713
v 0.000000 0.325651 0.175519
v 0.000000 0.333956 0.167430
v 0.000000 0.339419 0.157238
v -0.108521 0.230377 0.182502
v -0.138102 0.230377 0.182502
v -0.154564 0.230377 0.182502
v 0.000000 0.230377 0.182502
v -0.087267 0.230377 0.182502
v 0.000000 0.244120 0.182502
v -0.108521 0.244119 0.182502
v -0.087267 0.244121 0.182502
v -0.138102 0.244120 0.182502
v -0.154279 0.244119 0.182502
v -0.138102 0.256372 0.182502
v 0.000000 0.256372 0.182502
v -0.108521 0.256372 0.182502
v -0.154025 0.256372 0.182502
v -0.087267 0.256372 0.182502
v -0.181018 0.233446 0.177299
v -0.169443 0.230377 0.182502
v -0.178051 0.231912 0.179901
v -0.173814 0.230788 0.181805
v -0.208935 0.255590 0.139760
v -0.213228 0.259038 0.127036
v -0.211014 0.257245 0.136034
v -0.212585 0.258507 0.131376
v -0.178067 0.247785 0.177277
v -0.166676 0.244118 0.182502
v -0.175214 0.245951 0.179889
v -0.171045 0.244609 0.181802
v -0.159953 0.256372 0.182502
v -0.170919 0.260372 0.177111
v -0.164297 0.256907 0.181780
v -0.168311 0.258372 0.179807
v -0.140643 0.281871 0.176954
v -0.138102 0.270988 0.182502
v -0.139372 0.278955 0.179728
v -0.138442 0.274972 0.181759
v -0.153915 0.261700 0.182502
v -0.156576 0.272695 0.176943
v -0.154218 0.265772 0.181757
v -0.155192 0.269797 0.179723
v -0.210491 0.280602 0.123579
v -0.206375 0.276436 0.136449
v -0.209871 0.279975 0.127939
v -0.208365 0.278450 0.132650
v -0.138016 0.341483 0.110229
v -0.132540 0.337102 0.124163
v -0.137380 0.340812 0.114488
v -0.135375 0.339209 0.119588
v -0.186115 0.313662 0.118482
v -0.189496 0.318283 0.105041
v -0.187739 0.315904 0.114365
v -0.188976 0.317595 0.109446
v -0.172419 0.331575 0.100948
v -0.169307 0.326797 0.114366
v -0.171936 0.330868 0.105315
v -0.170797 0.329119 0.110226
v -0.148177 0.335343 0.117257
v -0.152336 0.339789 0.103797
v -0.150191 0.337499 0.113056
v -0.151714 0.339127 0.108130
v -0.202406 0.300820 0.115672
v -0.198731 0.296142 0.128906
v -0.201846 0.300124 0.120074
v -0.200501 0.298412 0.124918
v -0.111863 0.296445 0.177003
v -0.108521 0.286168 0.182502
v -0.110192 0.293758 0.179753
v -0.108969 0.289997 0.181765
v -0.091516 0.307441 0.177027
v -0.075584 0.304315 0.182502
v -0.087827 0.305898 0.179764
v -0.081995 0.304754 0.181768
v -0.102082 0.336858 0.141421
v -0.075419 0.341013 0.145930
v -0.092880 0.338908 0.143675
v -0.083121 0.340429 0.145326
v -0.073679 0.334053 0.160323
v -0.058952 0.339255 0.157232
v -0.070233 0.336643 0.158777
v -0.064843 0.338547 0.157645
v -0.066555 0.330505 0.167972
v -0.049718 0.334402 0.167427
v -0.061958 0.332488 0.167699
v -0.055795 0.333914 0.167500
v -0.066040 0.326816 0.172070
v -0.048716 0.326938 0.175518
v -0.061194 0.326978 0.173794
v -0.054853 0.327022 0.175055
v -0.070413 0.321100 0.174930
v -0.056156 0.317652 0.180712
v -0.067146 0.319537 0.177821
v -0.061927 0.318274 0.179937
v -0.155012 -0.342520 0.000000
v -0.133540 -0.345347 0.000000
v -0.175022 -0.334232 0.000000
v -0.192204 -0.321047 0.000000
v -0.205389 -0.303865 0.000000
v -0.213677 -0.283855 0.000000
v -0.216504 -0.262382 0.000000
v -0.155012 0.342520 0.000000
v -0.133540 0.345347 0.000000
v -0.175022 0.334232 0.000000
v -0.192204 0.321047 0.000000
v -0.205389 0.303865 0.000000
v -0.213677 0.283855 0.000000
v -0.216504 0.262382 0.000000
v -0.213651 0.000000 0.110668
v -0.213706 -0.016292 0.108523
v -0.213880 0.035050 0.101764
v -0.213706 0.018732 0.108523
v -0.213880 -0.032610 0.101764
v -0.214157 -0.046623 0.091012
v -0.214519 0.059815 0.076999
v -0.214157 0.049063 0.091012
v -0.214939 0.066575 0.060680
v -0.214519 -0.057376 0.076999
v -0.215391 0.068880 0.043169
v -0.214939 -0.064135 0.060680
v -0.215391 -0.066440 0.043169
v -0.216504 0.068880 0.000000
v -0.216504 -0.066440 0.000000
v -0.181636 0.000000 0.110668
v -0.181692 -0.016292 0.108523
v -0.181866 0.035050 0.101764
v -0.181692 0.018732 0.108523
v -0.181866 -0.032610 0.101764
v -0.182143 -0.046623 0.091012
v -0.182504 0.059815 0.076999
v -0.182143 0.049063 0.091012
v -0.182925 0.066575 0.060680
v -0.182504 -0.057376 0.076999
v -0.183377 0.068880 0.043169
v -0.182925 -0.064135 0.060680
v -0.183377 -0.066440 0.043169
v -0.184490 0.068880 0.000000
v -0.184490 -0.066440 0.000000
v -0.212575 -0.046623 0.131698
v -0.208914 -0.046623 0.140078
v -0.213220 -0.046623 0.127360
v -0.210999 -0.046623 0.136353
v -0.169564 -0.046623 0.182502
v -0.173930 -0.046623 0.181804
v -0.178168 -0.046623 0.179895
v -0.181143 -0.046623 0.177289
v -0.212575 -0.032610 0.131719
v -0.181152 -0.032610 0.177288
v -0.213220 -0.032610 0.127381
v -0.210998 -0.032610 0.136375
v -0.169574 -0.032610 0.182502
v -0.173938 -0.032610 0.181803
v -0.178176 -0.032610 0.179895
v -0.208913 -0.032610 0.140099
v -0.212574 -0.016292 0.131744
v -0.213219 -0.016292 0.127406
v -0.210997 -0.016292 0.136399
v -0.169584 -0.016292 0.182502
v -0.208911 -0.016292 0.140124
v -0.173949 -0.016292 0.181803
v -0.178187 -0.016292 0.179895
v -0.181163 -0.016292 0.177287
v -0.178166 0.049063 0.179895
v -0.210999 0.049063 0.136350
v -0.213220 0.049063 0.127356
v -0.169563 0.049063 0.182502
v -0.212575 0.049063 0.131694
v -0.181141 0.049063 0.177289
v -0.208914 0.049063 0.140074
v -0.173928 0.049063 0.181804
v -0.212574 0.018732 0.131740
v -0.181162 0.018732 0.177287
v -0.173947 0.018732 0.181803
v -0.178185 0.018732 0.179895
v -0.169583 0.018732 0.182502
v -0.213219 0.018732 0.127402
v -0.208911 0.018732 0.140120
v -0.210997 0.018732 0.136396
v -0.212575 0.035050 0.131716
v -0.169572 0.035050 0.182502
v -0.178175 0.035050 0.179895
v -0.213220 0.035050 0.127377
v -0.208913 0.035050 0.140095
v -0.181151 0.035050 0.177288
v -0.210998 0.035050 0.136371
v -0.173937 0.035050 0.181803
v -0.172675 0.331837 0.091012
v -0.211330 0.281460 0.091012
v 0.000000 0.342952 0.091012
v -0.203042 0.301469 0.091012
v -0.214157 0.259986 0.091012
v -0.189858 0.318652 0.091012
v -0.137236 0.342157 0.091012
v -0.152666 0.340125 0.091012
v -0.173036 0.332206 0.076999
v -0.211692 0.281828 0.076999
v -0.153027 0.340494 0.076999
v 0.000000 0.343321 0.076999
v -0.203404 0.301838 0.076999
v -0.214519 0.260355 0.076999
v -0.136667 0.342648 0.076999
v -0.190219 0.319021 0.076999
v -0.212113 0.282258 0.060680
v 0.000000 0.343750 0.060680
v -0.214939 0.260785 0.060680
v -0.153448 0.340923 0.060680
v -0.136004 0.343220 0.060680
v -0.182925 0.066575 0.060680
v -0.203824 0.302268 0.060680
v -0.173457 0.332635 0.060680
v -0.190640 0.319450 0.060680
v -0.215391 0.261246 0.043169
v 0.000000 0.344211 0.043169
v -0.204276 0.302728 0.043169
v -0.153899 0.341384 0.043169
v -0.173909 0.333096 0.043169
v -0.212564 0.282719 0.043169
v -0.135293 0.343834 0.043169
v -0.191091 0.319911 0.043169
v -0.203042 -0.301469 0.091012
v -0.214157 -0.259986 0.091012
v -0.152666 -0.340125 0.091012
v -0.137236 -0.342157 0.091012
v -0.189858 -0.318652 0.091012
v 0.000000 -0.342952 0.091012
v -0.211330 -0.281460 0.091012
v -0.172675 -0.331837 0.091012
v -0.203404 -0.301838 0.076999
v -0.153027 -0.340494 0.076999
v -0.173036 -0.332206 0.076999
v -0.136667 -0.342648 0.076999
v -0.190219 -0.319021 0.076999
v -0.214519 -0.260355 0.076999
v 0.000000 -0.343321 0.076999
v -0.211692 -0.281828 0.076999
v -0.153448 -0.340923 0.060680
v -0.203824 -0.302268 0.060680
v -0.214939 -0.260785 0.060680
v -0.136004 -0.343220 0.060680
v -0.173457 -0.332635 0.060680
v -0.190640 -0.319450 0.060680
v 0.000000 -0.343750 0.060680
v -0.212113 -0.282258 0.060680
v -0.191091 -0.319911 0.043169
v -0.204276 -0.302728 0.043169
v -0.153899 -0.341384 0.043169
v -0.215391 -0.261246 0.043169
v -0.135293 -0.343834 0.043169
v -0.173909 -0.333096 0.043169
v 0.000000 -0.344211 0.043169
v -0.212564 -0.282719 0.043169
v 0.000000 0.018732 0.182502
v -0.138102 0.018732 0.182502
v -0.108521 0.018732 0.182502
v -0.154564 0.018732 0.182502
v -0.087267 0.018732 0.182502
v -0.154564 0.035050 0.182502
v 0.000000 0.035050 0.182502
v -0.087267 0.035050 0.182502
v -0.138102 0.035050 0.182502
v -0.108521 0.035050 0.182502
v -0.138102 0.049063 0.182502
v -0.154564 0.049063 0.182502
v -0.108521 0.049063 0.182502
v 0.000000 0.049063 0.182502
v -0.087267 0.049063 0.182502
v -0.087267 -0.016292 0.182502
v -0.154564 -0.016292 0.182502
v 0.000000 -0.016292 0.182502
v -0.108521 -0.016292 0.182502
v -0.138102 -0.016292 0.182502
v 0.000000 -0.032610 0.182502
v -0.108521 -0.032610 0.182502
v -0.087267 -0.032610 0.182502
v -0.138102 -0.032610 0.182502
v -0.154564 -0.032610 0.182502
v -0.108521 -0.046623 0.182502
v -0.087267 -0.046623 0.182502
v -0.138102 -0.046623 0.182502
v 0.000000 -0.046623 0.182502
v -0.154564 -0.046623 0.182502
v 0.108521 0.000000 0.182502
v 0.087267 0.000000 0.182502
v 0.138102 0.000000 0.182502
v 0.154564 0.000000 0.182502
v 0.108521 -0.230377 0.182502
v 0.138102 -0.230377 0.182502
v 0.154564 -0.230377 0.182502
v 0.087267 -0.230377 0.182502
v 0.108521 -0.244119 0.182502
v 0.087267 -0.244121 0.182502
v 0.138102 -0.244120 0.182502
v 0.154279 -0.244119 0.182502
v 0.138102 -0.256372 0.182502
v 0.108521 -0.256372 0.182502
v 0.154025 -0.256372 0.182502
v 0.087267 -0.256372 0.182502
v 0.181174 0.000000 0.177286
v 0.169595 0.000000 0.182502
v 0.178197 0.000000 0.179894
v 0.173959 0.000000 0.181803
v 0.181018 -0.233446 0.177299
v 0.169443 -0.230377 0.182502
v 0.178051 -0.231912 0.179901
v 0.173814 -0.230788 0.181805
v 0.213218 0.000000 0.127430
v 0.208910 0.000000 0.140149
v 0.212573 0.000000 0.131769
v 0.210996 0.000000 0.136424
v 0.208935 -0.255590 0.139760
v 0.213228 -0.259038 0.127036
v 0.211014 -0.257245 0.136034
v 0.212585 -0.258507 0.131376
v 0.178067 -0.247785 0.177277
v 0.166676 -0.244118 0.182502
v 0.175214 -0.245951 0.179889
v 0.171045 -0.244609 0.181802
v 0.159953 -0.256372 0.182502
v 0.170919 -0.260372 0.177111
v 0.164297 -0.256907 0.181780
v 0.168311 -0.258372 0.179807
v 0.140643 -0.281871 0.176954
v 0.138102 -0.270988 0.182502
v 0.139372 -0.278955 0.179728
v 0.138442 -0.274972 0.181759
v 0.153915 -0.261700 0.182502
v 0.156576 -0.272695 0.176943
v 0.154218 -0.265772 0.181757
v 0.155192 -0.269797 0.179723
v 0.210491 -0.280602 0.123579
v 0.206375 -0.276436 0.136449
v 0.209871 -0.279975 0.127939
v 0.208365 -0.278450 0.132650
v 0.138016 -0.341483 0.110229
v 0.132540 -0.337102 0.124163
v 0.137380 -0.340812 0.114488
v 0.135375 -0.339209 0.119588
v 0.186115 -0.313662 0.118482
v 0.189496 -0.318283 0.105041
v 0.187739 -0.315904 0.114365
v 0.188976 -0.317595 0.109446
v 0.172419 -0.331575 0.100948
v 0.169307 -0.326797 0.114366
v 0.171936 -0.330868 0.105315
v 0.170797 -0.329119 0.110226
v 0.148177 -0.335343 0.117257
v 0.152336 -0.339789 0.103797
v 0.150191 -0.337499 0.113056
v 0.151714 -0.339127 0.108130
v 0.202406 -0.300820 0.115672
v 0.198731 -0.296142 0.128906
v 0.201846 -0.300124 0.120074
v 0.200501 -0.298412 0.124918
v 0.111863 -0.296445 0.177003
v 0.108521 -0.286168 0.182502
v 0.110192 -0.293758 0.179753
v 0.108969 -0.289997 0.181765
v 0.091516 -0.307441 0.177027
v 0.075584 -0.304315 0.182502
v 0.087827 -0.305898 0.179764
v 0.081995 -0.304754 0.181768
v 0.102082 -0.336858 0.141421
v 0.075419 -0.341013 0.145930
v 0.092880 -0.338908 0.143675
v 0.083121 -0.340429 0.145326
v 0.073679 -0.334053 0.160323
v 0.058952 -0.339255 0.157232
v 0.070233 -0.336643 0.158777
v 0.064843 -0.338547 0.157645
v 0.066555 -0.330505 0.167972
v 0.049718 -0.334402 0.167427
v 0.061958 -0.332488 0.167699
v 0.055795 -0.333914 0.167500
v 0.066040 -0.326816 0.172070
v 0.048716 -0.326938 0.175518
v 0.061194 -0.326978 0.173794
v 0.054853 -0.327022 0.175055
v 0.070413 -0.321100 0.174930
v 0.056156 -0.317652 0.180712
v 0.067146 -0.319537 0.177821
v 0.061927 -0.318274 0.179937
v 0.108521 0.230377 0.182502
v 0.138102 0.230377 0.182502
v 0.154564 0.230377 0.182502
v 0.087267 0.230377 0.182502
v 0.108521 0.244119 0.182502
v 0.087267 0.244121 0.182502
v 0.138102 0.244120 0.182502
v 0.154279 0.244119 0.182502
v 0.138102 0.256372 0.182502
v 0.108521 0.256372 0.182502
v 0.154025 0.256372 0.182502
v 0.087267 0.256372 0.182502
v 0.181018 0.233446 0.177299
v 0.169443 0.230377 0.182502
v 0.178051 0.231912 0.179901
v 0.173814 0.230788 0.181805
v 0.208935 0.255590 0.139760
v 0.213228 0.259038 0.127036
v 0.211014 0.257245 0.136034
v 0.212585 0.258507 0.131376
v 0.178067 0.247785 0.177277
v 0.166676 0.244118 0.182502
v 0.175214 0.245951 0.179889
v 0.171045 0.244609 0.181802
v 0.159953 0.256372 0.182502
v 0.170919 0.260372 0.177111
v 0.164297 0.256907 0.181780
v 0.168311 0.258372 0.179807
v 0.140643 0.281871 0.176954
v 0.138102 0.270988 0.182502
v 0.139372 0.278955 0.179728
v 0.138442 0.274972 0.181759
v 0.153915 0.261700 0.182502
v 0.156576 0.272695 0.176943
v 0.154218 0.265772 0.181757
v 0.155192 0.269797 0.179723
v 0.210491 0.280602 0.123579
v 0.206375 0.276436 0.136449
v 0.209871 0.279975 0.127939
v 0.208365 0.278450 0.132650
v 0.138016 0.341483 0.110229
v 0.132540 0.337102 0.124163
v 0.137380 0.340812 0.114488
v 0.135375 0.339209 0.119588
v 0.186115 0.313662 0.118482
v 0.189496 0.318283 0.105041
v 0.187739 0.315904 0.114365
v 0.188976 0.317595 0.109446
v 0.172419 0.331575 0.100948
v 0.169307 0.326797 0.114366
v 0.171936 0.330868 0.105315
v 0.170797 0.329119 0.110226
v 0.148177 0.335343 0.117257
v 0.152336 0.339789 0.103797
v 0.150191 0.337499 0.113056
v 0.151714 0.339127 0.108130
v 0.202406 0.300820 0.115672
v 0.198731 0.296142 0.128906
v 0.201846 0.300124 0.120074
v 0.200501 0.298412 0.124918
v 0.111863 0.296445 0.177003
v 0.108521 0.286168 0.182502
v 0.110192 0.293758 0.179753
v 0.108969 0.289997 0.181765
v 0.091516 0.307441 0.177027
v 0.075584 0.304315 0.182502
v 0.087827 0.305898 0.179764
v 0.081995 0.304754 0.181768
v 0.102082 0.336858 0.141421
v 0.075419 0.341013 0.145930
v 0.092880 0.338908 0.143675
v 0.083121 0.340429 0.145326
v 0.073679 0.334053 0.160323
v 0.058952 0.339255 0.157232
v 0.070233 0.336643 0.158777
v 0.064843 0.338547 0.157645
v 0.066555 0.330505 0.167972
v 0.049718 0.334402 0.167427
v 0.061958 0.332488 0.167699
v 0.055795 0.333914 0.167500
v 0.066040 0.326816 0.172070
v 0.048716 0.326938 0.175518
v 0.061194 0.326978 0.173794
v 0.054853 0.327022 0.175055
v 0.070413 0.321100 0.174930
v 0.056156 0.317652 0.180712
v 0.067146 0.319537 0.177821
v 0.061927 0.318274 0.179937
v 0.155012 -0.342520 0.000000
v 0.133540 -0.345347 0.000000
v 0.175022 -0.334232 0.000000
v 0.192204 -0.321047 0.000000
v 0.205389 -0.303865 0.000000
v 0.213677 -0.283855 0.000000
v 0.216504 -0.262382 0.000000
v 0.155012 0.342520 0.000000
v 0.133540 0.345347 0.000000
v 0.175022 0.334232 0.000000
v 0.192204 0.321047 0.000000
v 0.205389 0.303865 0.000000
v 0.213677 0.283855 0.000000
v 0.216504 0.262382 0.000000
v 0.213651 0.000000 0.110668
v 0.213706 -0.016292 0.108523
v 0.213880 0.035050 0.101764
v 0.213706 0.018732 0.108523
v 0.213880 -0.032610 0.101764
v 0.214157 -0.046623 0.091012
v 0.214519 0.059815 0.076999
v 0.214157 0.049063 0.091012
v 0.214939 0.066575 0.060680
v 0.214519 -0.057376 0.076999
v 0.215391 0.068880 0.043169
v 0.214939 -0.064135 0.060680
v 0.215391 -0.066440 0.043169
v 0.216504 0.068880 0.000000
v 0.216504 -0.066440 0.000000
v 0.181636 0.000000 0.110668
v 0.181692 -0.016292 0.108523
v 0.181866 0.035050 0.101764
v 0.181692 0.018732 0.108523
v 0.181866 -0.032610 0.101764
v 0.182143 -0.046623 0.091012
v 0.182504 0.059815 0.076999
v 0.182143 0.049063 0.091012
v 0.182925 0.066575 0.060680
v 0.182504 -0.057376 0.076999
v 0.183377 0.068880 0.043169
v 0.182925 -0.064135 0.060680
v 0.183377 -0.066440 0.043169
v 0.184490 0.068880 0.000000
v 0.184490 -0.066440 0.000000
v 0.212575 -0.046623 0.131698
v 0.208914 -0.046623 0.140078
v 0.213220 -0.046623 0.127360
v 0.210999 -0.046623 0.136353
v 0.169564 -0.046623 0.182502
v 0.173930 -0.046623 0.181804
v 0.178168 -0.046623 0.179895
v 0.181143 -0.046623 0.177289
v 0.212575 -0.032610 0.131719
v 0.181152 -0.032610 0.177288
v 0.213220 -0.032610 0.127381
v 0.210998 -0.032610 0.136375
v 0.169574 -0.032610 0.182502
v 0.173938 -0.032610 0.181803
v 0.178176 -0.032610 0.179895
v 0.208913 -0.032610 0.140099
v 0.212574 -0.016292 0.131744
v 0.213219 -0.016292 0.127406
v 0.210997 -0.016292 0.136399
v 0.169584 -0.016292 0.182502
v 0.208911 -0.016292 0.140124
v 0.173949 -0.016292 0.181803
v 0.178187 -0.016292 0.179895
v 0.181163 -0.016292 0.177287
v 0.178166 0.049063 0.179895
v 0.210999 0.049063 0.136350
v 0.213220 0.049063 0.127356
v 0.169563 0.049063 0.182502
v 0.212575 0.049063 0.131694
v 0.181141 0.049063 0.177289
v 0.208914 0.049063 0.140074
v 0.173928 0.049063 0.181804
v 0.212574 0.018732 0.131740
v 0.181162 0.018732 0.177287
v 0.173947 0.018732 0.181803
v 0.178185 0.018732 0.179895
v 0.169583 0.018732 0.182502
v 0.213219 0.018732 0.127402
v 0.208911 0.018732 0.140120
v 0.210997 0.018732 0.136396
v 0.212575 0.035050 0.131716
v 0.169572 0.035050 0.182502
v 0.178175 0.035050 0.179895
v 0.213220 0.035050 0.127377
v 0.208913 0.035050 0.140095
v 0.181151 0.035050 0.177288
v 0.210998 0.035050 0.136371
v 0.173937 0.035050 0.181803
v 0.172675 0.331837 0.091012
v 0.211330 0.281460 0.091012
v 0.203042 0.301469 0.091012
v 0.214157 0.259986 0.091012
v 0.189858 0.318652 0.091012
v 0.137236 0.342157 0.091012
v 0.152666 0.340125 0.091012
v 0.173036 0.332206 0.076999
v 0.211692 0.281828 0.076999
v 0.153027 0.340494 0.076999
v 0.203404 0.301838 0.076999
v 0.214519 0.260355 0.076999
v 0.136667 0.342648 0.076999
v 0.190219 0.319021 0.076999
v 0.212113 0.282258 0.060680
v 0.214939 0.260785 0.060680
v 0.153448 0.340923 0.060680
v 0.136004 0.343220 0.060680
v 0.182925 0.066575 0.060680
v 0.203824 0.302268 0.060680
v 0.173457 0.332635 0.060680
v 0.190640 0.319450 0.060680
v 0.215391 0.261246 0.043169
v 0.204276 0.302728 0.043169
v 0.153899 0.341384 0.043169
v 0.173909 0.333096 0.043169
v 0.212564 0.282719 0.043169
v 0.135293 0.343834 0.043169
v 0.191091 0.319911 0.043169
v 0.203042 -0.301469 0.091012
v 0.214157 -0.259986 0.091012
v 0.152666 -0.340125 0.091012
v 0.137236 -0.342157 0.091012
v 0.189858 -0.318652 0.091012
v 0.211330 -0.281460 0.091012
v 0.172675 -0.331837 0.091012
v 0.203404 -0.301838 0.076999
v 0.153027 -0.340494 0.076999
v 0.173036 -0.332206 0.076999
v 0.136667 -0.342648 0.076999
v 0.190219 -0.319021 0.076999
v 0.214519 -0.260355 0.076999
v 0.211692 -0.281828 0.076999
v 0.153448 -0.340923 0.060680
v 0.203824 -0.302268 0.060680
v 0.214939 -0.260785 0.060680
v 0.136004 -0.343220 0.060680
v 0.173457 -0.332635 0.060680
v 0.190640 -0.319450 0.060680
v 0.212113 -0.282258 0.060680
v 0.191091 -0.319911 0.043169
v 0.204276 -0.302728 0.043169
v 0.153899 -0.341384 0.043169
v 0.215391 -0.261246 0.043169
v 0.135293 -0.343834 0.043169
v 0.173909 -0.333096 0.043169
v 0.212564 -0.282719 0.043169
v 0.138102 0.018732 0.182502
v 0.108521 0.018732 0.182502
v 0.154564 0.018732 0.182502
v 0.087267 0.018732 0.182502
v 0.154564 0.035050 0.182502
v 0.087267 0.035050 0.182502
v 0.138102 0.035050 0.182502
v 0.108521 0.035050 0.182502
v 0.138102 0.049063 0.182502
v 0.154564 0.049063 0.182502
v 0.108521 0.049063 0.182502
v 0.087267 0.049063 0.182502
v 0.087267 -0.016292 0.182502
v 0.154564 -0.016292 0.182502
v 0.108521 -0.016292 0.182502
v 0.138102 -0.016292 0.182502
v 0.108521 -0.032610 0.182502
v 0.087267 -0.032610 0.182502
v 0.138102 -0.032610 0.182502
v 0.154564 -0.032610 0.182502
v 0.108521 -0.046623 0.182502
v 0.087267 -0.046623 0.182502
v 0.138102 -0.046623 0.182502
v 0.154564 -0.046623 0.182502
vn -0.7928 -0.6084 0.0365
vn -0.1305 -0.9910 0.0294
vn -0.0014 -0.9995 0.0306
vn -0.0000 -0.0000 1.0000
vn -0.3825 -0.9233 0.0342
vn -0.6084 -0.7928 0.0366
vn -0.5880 -0.4325 0.6835
vn -0.9910 -0.1305 0.0290
vn -0.3616 -0.6652 0.6533
vn -0.9997 -0.0000 0.0258
vn -0.3509 -0.6751 0.6490
vn -0.9234 -0.3825 0.0339
vn -0.3941 -0.6456 0.6541
vn -0.0048 -0.9852 0.1712
vn 0.0160 -0.4632 0.8861
vn 0.0126 -0.7165 0.6975
vn 0.0023 -0.8927 0.4507
vn -0.3709 -0.6638 0.6494
vn -0.4188 -0.6153 0.6678
vn -0.8018 -0.0007 0.5976
vn -0.7415 -0.1775 0.6470
vn 0.0029 -0.1413 0.9900
vn -0.1577 -0.0001 0.9875
vn -0.4102 -0.0002 0.9120
vn -0.6591 -0.0004 0.7521
vn -0.8230 -0.1873 0.5363
vn -0.9195 -0.1720 0.3533
vn -0.9755 -0.1495 0.1615
vn -0.1546 -0.0312 0.9875
vn -0.3927 -0.0795 0.9162
vn -0.6200 -0.1274 0.7742
vn -0.3315 -0.7636 0.5541
vn -0.2711 -0.8842 0.3803
vn -0.1933 -0.9649 0.1780
vn -0.1012 -0.1729 0.9797
vn -0.2305 -0.3964 0.8887
vn -0.3291 -0.5693 0.7534
vn -0.8862 -0.4254 0.1835
vn -0.7915 -0.4669 0.3944
vn -0.6565 -0.4805 0.5814
vn -0.1442 -0.1652 0.9757
vn -0.3108 -0.3599 0.8797
vn -0.4244 -0.4987 0.7557
vn -0.1509 -0.0837 0.9850
vn -0.3620 -0.2038 0.9096
vn -0.5408 -0.3116 0.7813
vn -0.0904 -0.1766 0.9801
vn -0.2074 -0.4068 0.8897
vn -0.2981 -0.5862 0.7534
vn -0.4232 -0.7160 0.5553
vn -0.5046 -0.7696 0.3913
vn -0.5736 -0.7962 0.1923
vn -0.3767 -0.7409 0.5560
vn -0.3932 -0.8318 0.3918
vn -0.3943 -0.8988 0.1916
vn -0.4630 -0.6778 0.5712
vn -0.6066 -0.6871 0.4000
vn -0.7299 -0.6559 0.1926
vn -0.9891 -0.0002 0.1471
vn -0.9471 -0.0004 0.3208
vn -0.8725 -0.0007 0.4887
vn -0.0984 -0.1791 0.9789
vn -0.2219 -0.4066 0.8863
vn -0.3140 -0.5785 0.7528
vn -0.3050 -0.6185 0.7242
vn -0.1723 -0.5777 0.7978
vn -0.0574 -0.5218 0.8511
vn -0.2611 -0.7001 0.6646
vn -0.1425 -0.7237 0.6753
vn -0.0458 -0.7332 0.6784
vn -0.2838 -0.7412 0.6083
vn -0.1738 -0.8206 0.5445
vn -0.0682 -0.8764 0.4768
vn -0.3095 -0.7556 0.5773
vn -0.2117 -0.8689 0.4474
vn -0.0946 -0.9535 0.2861
vn -0.3063 -0.7765 0.5506
vn -0.2022 -0.9078 0.3675
vn -0.0880 -0.9820 0.1670
vn -0.3225 -0.6017 0.7307
vn -0.2228 -0.4541 0.8626
vn -0.0952 -0.2692 0.9584
vn -0.3673 -0.6585 0.6568
vn -0.3658 -0.6613 0.6549
vn -0.7928 0.6084 0.0365
vn -0.1305 0.9910 0.0294
vn -0.0014 0.9995 0.0306
vn -0.3825 0.9233 0.0342
vn -0.6084 0.7928 0.0366
vn -0.5880 0.4325 0.6836
vn -0.9910 0.1305 0.0290
vn -0.3616 0.6652 0.6533
vn -0.3509 0.6751 0.6490
vn -0.9234 0.3825 0.0339
vn -0.3941 0.6456 0.6541
vn -0.0048 0.9852 0.1712
vn 0.0160 0.4632 0.8861
vn 0.0126 0.7165 0.6975
vn 0.0023 0.8927 0.4507
vn -0.3709 0.6638 0.6494
vn -0.4188 0.6153 0.6678
vn -0.8018 0.0007 0.5975
vn -0.7415 0.1775 0.6470
vn 0.0029 0.1413 0.9900
vn -0.1577 0.0001 0.9875
vn -0.4102 0.0002 0.9120
vn -0.6591 0.0004 0.7521
vn -0.8230 0.1873 0.5363
vn -0.9195 0.1720 0.3533
vn -0.9755 0.1495 0.1615
vn -0.1546 0.0312 0.9875
vn -0.3927 0.0795 0.9162
vn -0.6200 0.1274 0.7742
vn -0.3315 0.7636 0.5541
vn -0.2711 0.8842 0.3803
vn -0.1933 0.9649 0.1780
vn -0.1012 0.1729 0.9797
vn -0.2305 0.3964 0.8887
vn -0.3291 0.5693 0.7534
vn -0.8862 0.4254 0.1835
vn -0.7915 0.4669 0.3944
vn -0.6565 0.4805 0.5814
vn -0.1442 0.1652 0.9757
vn -0.3108 0.3599 0.8797
vn -0.4244 0.4987 0.7557
vn -0.1509 0.0837 0.9850
vn -0.3620 0.2038 0.9096
vn -0.5408 0.3116 0.7813
vn -0.0904 0.1766 0.9801
vn -0.2074 0.4068 0.8897
vn -0.2981 0.5862 0.7534
vn -0.4232 0.7160 0.5553
vn -0.5046 0.7696 0.3913
vn -0.5736 0.7962 0.1923
vn -0.3767 0.7409 0.5560
vn -0.3932 0.8318 0.3918
vn -0.3943 0.8988 0.1916
vn -0.4630 0.6778 0.5712
vn -0.6066 0.6871 0.4000
vn -0.7299 0.6559 0.1926
vn -0.9891 0.0002 0.1471
vn -0.9471 0.0004 0.3208
vn -0.8725 0.0007 0.4887
vn -0.0984 0.1791 0.9789
vn -0.2219 0.4066 0.8863
vn -0.3140 0.5785 0.7528
vn -0.3050 0.6185 0.7242
vn -0.1723 0.5777 0.7978
vn -0.0574 0.5218 0.8511
vn -0.2611 0.7001 0.6646
vn -0.1425 0.7237 0.6753
vn -0.0458 0.7332 0.6784
vn -0.2838 0.7412 0.6083
vn -0.1738 0.8206 0.5445
vn -0.0682 0.8764 0.4768
vn -0.3095 0.7556 0.5773
vn -0.2117 0.8689 0.4474
vn -0.0946 0.9535 0.2861
vn -0.3063 0.7765 0.5506
vn -0.2022 0.9078 0.3675
vn -0.0880 0.9820 0.1670
vn -0.3225 0.6017 0.7307
vn -0.2228 0.4541 0.8626
vn -0.0952 0.2692 0.9584
vn -0.3673 0.6585 0.6568
vn -0.3658 0.6613 0.6549
vn -0.0000 0.1305 -0.9914
vn -0.0000 1.0000 -0.0000
vn -0.0000 -0.9239 -0.3827
vn -0.0000 -0.3827 -0.9239
vn -0.0000 0.9239 -0.3827
vn -0.0000 -0.1138 -0.9935
vn -0.0000 -0.6088 -0.7934
vn -0.0000 0.3827 -0.9239
vn -0.0000 -0.9914 -0.1305
vn -0.0000 0.7934 -0.6088
vn -0.0000 0.9914 -0.1305
vn -0.0000 -0.7934 -0.6088
vn -0.0000 0.6088 -0.7934
vn -0.0000 -1.0000 -0.0000
vn -0.9473 -0.0004 0.3203
vn -0.6590 0.0004 0.7522
vn -0.1581 -0.0001 0.9874
vn -0.4106 -0.0002 0.9118
vn -0.1580 0.0001 0.9874
vn -0.8013 -0.0007 0.5983
vn -0.6590 -0.0004 0.7522
vn -0.9472 -0.0004 0.3207
vn -0.6589 0.0004 0.7522
vn -0.9472 0.0004 0.3207
vn -0.1580 -0.0001 0.9874
vn -0.9892 -0.0002 0.1468
vn -0.8013 -0.0007 0.5982
vn -0.6589 -0.0004 0.7522
vn -0.8729 -0.0007 0.4879
vn -0.8726 -0.0007 0.4885
vn -0.9891 -0.0002 0.1470
vn -0.8014 -0.0007 0.5982
vn -0.9472 -0.0004 0.3208
vn -0.9892 0.0002 0.1468
vn -0.8725 -0.0007 0.4886
vn -0.4107 -0.0002 0.9118
vn -0.9891 0.0002 0.1470
vn -0.9472 0.0004 0.3208
vn -0.8726 0.0007 0.4885
vn -0.4107 0.0002 0.9118
vn -0.4106 0.0002 0.9118
vn -0.8013 0.0007 0.5982
vn -0.8729 0.0007 0.4879
vn -0.8013 0.0007 0.5983
vn -0.9473 0.0004 0.3203
vn -0.8014 0.0007 0.5981
vn -0.1581 0.0001 0.9874
vn -0.8725 0.0007 0.4886
vn -0.0054 0.9995 0.0306
vn -0.0044 0.9995 0.0306
vn -0.0054 -0.9995 0.0306
vn -0.0066 -0.9996 0.0277
vn -0.0033 0.9995 0.0306
vn -0.0066 0.9996 0.0277
vn -0.7928 0.6083 0.0365
vn -0.0033 -0.9995 0.0306
vn -0.0044 -0.9995 0.0306
vn -0.0000 -0.0000 -1.0000
vn 0.7928 -0.6084 0.0365
vn 0.1305 -0.9910 0.0294
vn 0.0014 -0.9995 0.0306
vn 0.3825 -0.9233 0.0342
vn 0.6084 -0.7928 0.0366
vn 0.5880 -0.4325 0.6836
vn 0.9910 -0.1305 0.0290
vn 0.3616 -0.6652 0.6533
vn 0.9997 -0.0000 0.0258
vn 0.3509 -0.6751 0.6490
vn 0.9234 -0.3825 0.0339
vn 0.3941 -0.6456 0.6541
vn 0.0048 -0.9852 0.1712
vn -0.0160 -0.4632 0.8861
vn -0.0126 -0.7165 0.6975
vn -0.0023 -0.8927 0.4507
vn 0.3709 -0.6638 0.6494
vn 0.4188 -0.6153 0.6678
vn 0.8018 -0.0007 0.5976
vn 0.7415 -0.1775 0.6470
vn -0.0029 -0.1413 0.9900
vn 0.1577 -0.0001 0.9875
vn 0.4102 -0.0002 0.9120
vn 0.6591 -0.0004 0.7521
vn 0.8230 -0.1873 0.5363
vn 0.9195 -0.1720 0.3533
vn 0.9755 -0.1495 0.1615
vn 0.1546 -0.0312 0.9875
vn 0.3927 -0.0795 0.9162
vn 0.6200 -0.1274 0.7742
vn 0.3315 -0.7636 0.5541
vn 0.2711 -0.8842 0.3803
vn 0.1933 -0.9649 0.1780
vn 0.1012 -0.1729 0.9797
vn 0.2305 -0.3964 0.8887
vn 0.3291 -0.5693 0.7534
vn 0.8862 -0.4254 0.1835
vn 0.7915 -0.4669 0.3944
vn 0.6565 -0.4805 0.5814
vn 0.1442 -0.1652 0.9757
vn 0.3108 -0.3599 0.8797
vn 0.4244 -0.4987 0.7557
vn 0.1509 -0.0837 0.9850
vn 0.3620 -0.2038 0.9096
vn 0.5408 -0.3116 0.7813
vn 0.0904 -0.1766 0.9801
vn 0.2074 -0.4068 0.8897
vn 0.2981 -0.5862 0.7534
vn 0.4232 -0.7160 0.5553
vn 0.5046 -0.7696 0.3913
vn 0.5736 -0.7962 0.1923
vn 0.3767 -0.7409 0.5560
vn 0.3932 -0.8318 0.3918
vn 0.3943 -0.8988 0.1916
vn 0.4630 -0.6778 0.5712
vn 0.6066 -0.6871 0.4000
vn 0.7299 -0.6559 0.1926
vn 0.9891 -0.0002 0.1471
vn 0.9471 -0.0004 0.3208
vn 0.8725 -0.0007 0.4887
vn 0.0984 -0.1791 0.9789
vn 0.2219 -0.4066 0.8863
vn 0.3140 -0.5785 0.7528
vn 0.3050 -0.6185 0.7242
vn 0.1723 -0.5777 0.7978
vn 0.0574 -0.5218 0.8511
vn 0.2611 -0.7001 0.6646
vn 0.1425 -0.7237 0.6753
vn 0.0458 -0.7332 0.6784
vn 0.2838 -0.7412 0.6083
vn 0.1738 -0.8206 0.5445
vn 0.0682 -0.8764 0.4768
vn 0.3095 -0.7556 0.5773
vn 0.2117 -0.8689 0.4474
vn 0.0946 -0.9535 0.2861
vn 0.3063 -0.7765 0.5506
vn 0.2022 -0.9078 0.3675
vn 0.0880 -0.9820 0.1670
vn 0.3225 -0.6017 0.7307
vn 0.2228 -0.4541 0.8626
vn 0.0952 -0.2692 0.9584
vn 0.3673 -0.6585 0.6568
vn 0.3658 -0.6613 0.6549
vn 0.7928 0.6084 0.0365
vn 0.1305 0.9910 0.0294
vn 0.0014 0.9995 0.0306
vn 0.3825 0.9233 0.0342
vn 0.6084 0.7928 0.0366
vn 0.5880 0.4325 0.6835
vn 0.9910 0.1305 0.0290
vn 0.3616 0.6652 0.6533
vn 0.3509 0.6751 0.6490
vn 0.9234 0.3825 0.0339
vn 0.3941 0.6456 0.6541
vn 0.0048 0.9852 0.1712
vn -0.0160 0.4632 0.8861
vn -0.0126 0.7165 0.6975
vn -0.0023 0.8927 0.4507
vn 0.3709 0.6638 0.6494
vn 0.4188 0.6153 0.6678
vn 0.8018 0.0007 0.5975
vn 0.7415 0.1775 0.6470
vn -0.0029 0.1413 0.9900
vn 0.1577 0.0001 0.9875
vn 0.4102 0.0002 0.9120
vn 0.6591 0.0004 0.7521
vn 0.8230 0.1873 0.5363
vn 0.9195 0.1720 0.3533
vn 0.9755 0.1495 0.1615
vn 0.1546 0.0312 0.9875
vn 0.3927 0.0795 0.9162
vn 0.6200 0.1274 0.7742
vn 0.3315 0.7636 0.5541
vn 0.2711 0.8842 0.3803
vn 0.1933 0.9649 0.1780
vn 0.1012 0.1729 0.9797
vn 0.2305 0.3964 0.8887
vn 0.3291 0.5693 0.7534
vn 0.8862 0.4254 0.1835
vn 0.7915 0.4669 0.3944
vn 0.6565 0.4805 0.5814
vn 0.1442 0.1652 0.9757
vn 0.3108 0.3599 0.8797
vn 0.4244 0.4987 0.7557
vn 0.1509 0.0837 0.9850
vn 0.3620 0.2038 0.9096
vn 0.5408 0.3116 0.7813
vn 0.0904 0.1766 0.9801
vn 0.2074 0.4068 0.8897
vn 0.2981 0.5862 0.7534
vn 0.4232 0.7160 0.5553
vn 0.5046 0.7696 0.3913
vn 0.5736 0.7962 0.1923
vn 0.3767 0.7409 0.5560
vn 0.3932 0.8318 0.3918
vn 0.3943 0.8988 0.1916
vn 0.4630 0.6778 0.5712
vn 0.6066 0.6871 0.4000
vn 0.7299 0.6559 0.1926
vn 0.9891 0.0002 0.1471
vn 0.9471 0.0004 0.3208
vn 0.8725 0.0007 0.4887
vn 0.0984 0.1791 0.9789
vn 0.2219 0.4066 0.8863
vn 0.3140 0.5785 0.7528
vn 0.3050 0.6185 0.7242
vn 0.1723 0.5777 0.7978
vn 0.0574 0.5218 0.8511
vn 0.2611 0.7001 0.6646
vn 0.1425 0.7237 0.6753
vn 0.0458 0.7332 0.6784
vn 0.2838 0.7412 0.6083
vn 0.1738 0.8206 0.5445
vn 0.0682 0.8764 0.4768
vn 0.3095 0.7556 0.5773
vn 0.2117 0.8689 0.4474
vn 0.0946 0.9535 0.2861
vn 0.3063 0.7765 0.5506
vn 0.2022 0.9078 0.3675
vn 0.0880 0.9820 0.1670
vn 0.3225 0.6017 0.7307
vn 0.2228 0.4541 0.8626
vn 0.0952 0.2692 0.9584
vn 0.3673 0.6585 0.6568
vn 0.3658 0.6613 0.6549
vn 0.9473 -0.0004 0.3203
vn 0.6590 0.0004 0.7522
vn 0.1581 -0.0001 0.9874
vn 0.4106 -0.0002 0.9118
vn 0.1580 0.0001 0.9874
vn 0.8013 -0.0007 0.5983
vn 0.6590 -0.0004 0.7522
vn 0.9472 -0.0004 0.3207
vn 0.6589 0.0004 0.7522
vn 0.9472 0.0004 0.3207
vn 0.1580 -0.0001 0.9874
vn 0.9892 -0.0002 0.1468
vn 0.8013 -0.0007 0.5982
vn 0.6589 -0.0004 0.7522
vn 0.8729 -0.0007 0.4879
vn 0.8726 -0.0007 0.4885
vn 0.9891 -0.0002 0.1470
vn 0.8014 -0.0007 0.5982
vn 0.9472 -0.0004 0.3208
vn 0.9892 0.0002 0.1468
vn 0.8725 -0.0007 0.4886
vn 0.4107 -0.0002 0.9118
vn 0.9891 0.0002 0.1470
vn 0.9472 0.0004 0.3208
vn 0.8726 0.0007 0.4885
vn 0.4107 0.0002 0.9118
vn 0.4106 0.0002 0.9118
vn 0.8013 0.0007 0.5982
vn 0.8729 0.0007 0.4879
vn 0.8013 0.0007 0.5983
vn 0.9473 0.0004 0.3203
vn 0.8014 0.0007 0.5981
vn 0.1581 0.0001 0.9874
vn 0.8725 0.0007 0.4886
vn 0.0054 0.9995 0.0306
vn 0.0044 0.9995 0.0306
vn 0.0054 -0.9995 0.0306
vn 0.0066 -0.9996 0.0277
vn 0.0033 0.9995 0.0306
vn 0.0066 0.9996 0.0277
vn 0.7928 0.6083 0.0365
vn 0.0033 -0.9995 0.0306
vn 0.0044 -0.9995 0.0306
vt 0.376732 0.000000
vt 0.435457 0.000000
vt 0.434527 0.015012
vt 0.375392 0.014963
vt 0.375000 0.952100
vt 0.434148 0.953525
vt 0.434236 0.964311
vt 0.375102 0.964498
vt 0.375000 0.875000
vt 0.434134 0.875000
vt 0.794369 0.737137
vt 0.802059 0.720024
vt 0.815970 0.719862
vt 0.814400 0.730485
vt 0.434535 0.975927
vt 0.375400 0.976053
vt 0.435457 1.000000
vt 0.376732 1.000000
vt 0.850970 0.713109
vt 0.846994 0.712200
vt 0.846893 0.707400
vt 0.851938 0.708915
vt 0.823232 0.643840
vt 0.587039 0.098159
vt 0.574828 0.086368
vt 0.822978 0.654236
vt 0.375100 0.022182
vt 0.434234 0.022256
vt 0.434134 0.030029
vt 0.375000 0.029929
vt 0.552962 0.942933
vt 0.564984 0.931320
vt 0.779307 0.755310
vt 0.792044 0.750576
vt 0.434134 0.100775
vt 0.375000 0.100794
vt 0.848652 0.717022
vt 0.847084 0.716480
vt 0.841272 0.721337
vt 0.841189 0.716276
vt 0.847124 0.718341
vt 0.817640 0.742485
vt 0.550601 0.954103
vt 0.750000 0.720287
vt 0.794609 0.737019
vt 0.750000 0.736620
vt 0.758342 0.766086
vt 0.693250 0.817141
vt 0.723589 0.791887
vt 0.741768 0.777722
vt 0.590463 0.875005
vt 0.590460 0.909574
vt 0.574920 0.919194
vt 0.574915 0.875000
vt 0.750000 0.740772
vt 0.783134 0.741626
vt 0.760704 0.750000
vt 0.750000 0.750000
vt 0.625000 0.875000
vt 0.625000 0.885704
vt 0.604608 0.904200
vt 0.604632 0.875018
vt 0.750000 0.625000
vt 0.805153 0.625000
vt 0.804955 0.631067
vt 0.750000 0.631108
vt 0.822058 0.663863
vt 0.557893 0.064832
vt 0.574828 0.086367
vt 0.841040 0.707276
vt 0.839960 0.641651
vt 0.845507 0.641676
vt 0.822680 0.636460
vt 0.822507 0.583693
vt 0.593329 0.169043
vt 0.592724 0.108007
vt 0.817339 0.710595
vt 0.827426 0.642323
vt 0.750000 0.711367
vt 0.802360 0.710786
vt 0.802201 0.715671
vt 0.750000 0.716083
vt 0.804588 0.642361
vt 0.841119 0.712034
vt 0.587039 0.098159
vt 0.816615 0.715494
vt 0.851527 0.641983
vt 0.853278 0.642070
vt 0.853419 0.709500
vt 0.841601 0.618442
vt 0.841664 0.680163
vt 0.572050 0.060512
vt 0.567322 0.052554
vt 0.554986 0.030370
vt 0.550380 0.022528
vt 0.549020 0.030222
vt 0.544384 0.022394
vt 0.852360 0.713598
vt 0.841144 0.685581
vt 0.537561 0.955292
vt 0.547623 0.945535
vt 0.523249 0.963834
vt 0.531889 0.955455
vt 0.517288 0.964049
vt 0.526031 0.955740
vt 0.847278 0.719784
vt 0.841510 0.722697
vt 0.836385 0.694347
vt 0.831419 0.730505
vt 0.533845 0.015096
vt 0.539904 0.015228
vt 0.556415 0.044185
vt 0.849795 0.717612
vt 0.838971 0.691390
vt 0.814531 0.731820
vt 0.804969 0.740336
vt 0.529302 0.000000
vt 0.523485 0.945497
vt 0.523485 0.976490
vt 0.529302 1.000000
vt 0.525652 1.000029
vt 0.519702 0.975821
vt 0.519626 1.000000
vt 0.513683 0.975759
vt 0.534539 0.966818
vt 0.519696 0.975684
vt 0.541103 0.026765
vt 0.525647 0.000143
vt 0.519626 0.000000
vt 0.549560 0.125000
vt 0.549526 0.119039
vt 0.555488 0.119036
vt 0.555522 0.125000
vt 0.572517 0.141745
vt 0.572549 0.147237
vt 0.593416 0.177903
vt 0.593464 0.182661
vt 0.798289 0.737251
vt 0.791216 0.745231
vt 0.748463 0.771359
vt 0.770764 0.755695
vt 0.753387 0.766979
vt 0.774318 0.752284
vt 0.782769 0.743839
vt 0.762995 0.750000
vt 0.721363 0.792473
vt 0.720260 0.792792
vt 0.625000 0.887995
vt 0.606184 0.908597
vt 0.685975 0.821921
vt 0.686992 0.820339
vt 0.717478 0.794961
vt 0.604603 0.910327
vt 0.593930 0.914495
vt 0.624950 0.877188
vt 0.631388 0.869898
vt 0.641496 0.859877
vt 0.677078 0.828593
vt 0.590459 0.915850
vt 0.576953 0.924503
vt 0.541697 0.949894
vt 0.625085 0.874571
vt 0.570556 0.929101
vt 0.537635 0.953956
vt 0.531888 0.955408
vt 0.574116 0.923706
vt 0.791340 0.745127
vt 0.781292 0.747387
vt 0.797720 0.739011
vt 0.799230 0.737962
vt 0.789358 0.741786
vt 0.434148 0.953525
vt 0.434134 0.030029
vt 0.434234 0.022256
vt 0.374951 0.099906
vt 0.434134 0.099886
vt 0.750000 0.632022
vt 0.804926 0.631975
vt 0.845525 0.642549
vt 0.839974 0.642522
vt 0.593322 0.168331
vt 0.822510 0.584383
vt 0.827292 0.643229
vt 0.804558 0.643270
vt 0.853280 0.642964
vt 0.851533 0.642871
vt 0.841602 0.619254
vt 0.555483 0.118143
vt 0.549521 0.118146
vt 0.572513 0.140922
vt 0.593409 0.177190
vt 0.481478 1.000000
vt 0.480877 0.975828
vt 0.500073 0.975787
vt 0.500540 1.000000
vt 0.523661 0.119051
vt 0.526599 0.125000
vt 0.374951 0.100794
vt 0.480477 0.103171
vt 0.458123 0.100716
vt 0.523661 0.118159
vt 0.514401 0.112199
vt 0.458123 0.101606
vt 0.480477 0.104062
vt 0.499672 0.107087
vt 0.514401 0.113091
vt 0.499672 0.107978
vt 0.375000 0.099906
vt 0.374976 0.099906
vt 0.549463 0.107941
vt 0.549492 0.113068
vt 0.572459 0.131519
vt 0.555425 0.107933
vt 0.480576 0.022314
vt 0.480477 0.030107
vt 0.499672 0.030139
vt 0.499772 0.022338
vt 0.841597 0.614587
vt 0.822497 0.580425
vt 0.822482 0.575816
vt 0.841592 0.609151
vt 0.500064 0.015067
vt 0.853268 0.636940
vt 0.851496 0.636878
vt 0.851460 0.630934
vt 0.853255 0.630965
vt 0.458142 0.954104
vt 0.458225 0.964236
vt 0.480578 0.964165
vt 0.480501 0.954643
vt 0.499774 0.964105
vt 0.499701 0.955105
vt 0.841596 0.613774
vt 0.853270 0.637833
vt 0.851501 0.637767
vt 0.822479 0.575126
vt 0.822464 0.570525
vt 0.500073 0.975788
vt 0.822494 0.579736
vt 0.841591 0.608338
vt 0.572486 0.136243
vt 0.555454 0.113063
vt 0.841585 0.602911
vt 0.555449 0.112169
vt 0.572481 0.135421
vt 0.572454 0.130697
vt 0.555420 0.107040
vt 0.458123 0.030069
vt 0.458223 0.022286
vt 0.458515 0.015033
vt 0.480578 0.964165
vt 0.499774 0.964105
vt 0.500064 0.015067
vt 0.500540 0.000000
vt 0.499672 0.030139
vt 0.593369 0.173136
vt 0.459279 1.000000
vt 0.458523 0.975876
vt 0.549458 0.107049
vt 0.851423 0.625000
vt 0.853243 0.625000
vt 0.549487 0.112176
vt 0.593362 0.172424
vt 0.853257 0.631858
vt 0.851465 0.631823
vt 0.500540 0.000000
vt 0.480877 0.975828
vt 0.481478 1.000000
vt 0.500540 1.000000
vt 0.480477 0.875000
vt 0.499672 0.875000
vt 0.480869 0.015051
vt 0.481478 0.000000
vt 0.458123 0.875000
vt 0.480576 0.022314
vt 0.480869 0.015051
vt 0.480501 0.954643
vt 0.480477 0.875000
vt 0.499672 0.875000
vt 0.459279 0.000000
vt 0.481478 0.000000
vt 0.458123 0.875000
vt 0.458142 0.954104
vt 0.458223 0.022286
vt 0.458123 0.030069
vt 0.480477 0.030107
vt 0.458523 0.975876
vt 0.839796 0.631690
vt 0.845297 0.631700
vt 0.845155 0.625000
vt 0.839685 0.625000
vt 0.750000 0.638140
vt 0.804728 0.638052
vt 0.828957 0.631960
vt 0.829985 0.625000
vt 0.750000 0.643393
vt 0.845420 0.637537
vt 0.828061 0.638023
vt 0.839891 0.637518
vt 0.829091 0.631053
vt 0.845278 0.630827
vt 0.839781 0.630818
vt 0.804757 0.637143
vt 0.750000 0.637225
vt 0.845401 0.636664
vt 0.839877 0.636646
vt 0.828195 0.637116
vt 0.750000 0.642479
s 0
usemtl 
f 213/1/1 359/2/1 360/3/1 214/4/1
f 211/5/2 363/6/2 361/7/2 210/8/2
f 1/9/3 365/10/3 363/6/3 211/5/3
f 89/11/4 27/12/4 25/13/4 85/14/4
f 210/8/5 361/7/5 364/15/5 212/16/5
f 212/16/6 364/15/6 359/17/6 213/18/6
f 45/19/4 22/20/4 15/21/4 33/22/4
f 44/23/7 61/24/7 81/25/7 49/26/7
f 215/27/8 366/28/8 362/29/8 216/30/8
f 76/31/9 65/32/9 88/33/9 84/34/9
f 216/30/10 362/29/10 236/35/10 238/36/10
f 48/37/4 26/38/4 22/20/4 45/19/4
f 53/39/4 23/40/4 26/38/4 56/41/4
f 85/14/4 25/13/4 23/40/4 53/39/4
f 52/42/11 73/43/11 76/31/11 84/34/11
f 24/44/4 27/12/4 89/45/4 5/46/4
f 214/4/12 360/3/12 366/28/12 215/27/12
f 108/47/13 96/48/13 100/49/13 104/50/13
f 10/51/14 97/52/14 93/53/14 6/54/14
f 7/55/15 109/56/15 105/57/15 8/58/15
f 8/59/16 105/60/16 101/61/16 9/62/16
f 9/62/17 101/61/17 97/52/17 10/51/17
f 2/63/4 4/64/4 382/65/4 384/66/4
f 57/67/18 68/68/18 73/43/18 52/42/18
f 49/26/19 81/69/19 68/68/19 57/67/19
f 15/21/4 14/70/4 394/71/4 396/72/4
f 32/73/20 261/74/20 255/75/20 40/76/20
f 14/70/4 13/77/4 392/78/4 394/71/4
f 16/79/4 17/80/4 20/81/4 18/82/4
f 13/77/4 17/80/4 393/83/4 392/78/4
f 22/20/4 21/84/4 14/70/4 15/21/4
f 18/82/4 20/81/4 27/12/4 24/44/4
f 40/76/21 61/85/21 44/23/21 32/73/21
f 21/84/4 19/86/4 13/77/4 14/70/4
f 19/86/4 20/81/4 17/80/4 13/77/4
f 26/38/4 23/40/4 21/84/4 22/20/4
f 56/41/4 26/38/4 48/37/4
f 23/40/4 25/13/4 19/86/4 21/84/4
f 5/46/22 89/45/22 109/56/22 7/55/22
f 25/13/4 27/12/4 20/81/4 19/86/4
f 33/22/23 258/87/23 259/88/23 35/89/23
f 35/89/24 259/88/24 260/90/24 34/91/24
f 34/91/25 260/90/25 261/74/25 32/73/25
f 61/85/26 40/76/26 42/92/26 63/93/26
f 63/93/27 42/92/27 43/94/27 62/95/27
f 62/95/28 43/94/28 41/96/28 60/97/28
f 45/19/29 33/22/29 35/89/29 47/98/29
f 47/98/30 35/89/30 34/91/30 46/99/30
f 46/99/31 34/91/31 32/73/31 44/23/31
f 65/32/32 76/31/32 78/100/32 67/101/32
f 67/101/33 78/100/33 79/102/33 66/103/33
f 66/103/34 79/102/34 77/104/34 64/105/34
f 53/39/35 56/41/35 58/106/35 55/107/35
f 55/107/36 58/106/36 59/108/36 54/109/36
f 54/109/37 59/108/37 57/67/37 52/42/37
f 60/97/38 80/110/38 82/111/38 62/95/38
f 62/95/39 82/111/39 83/112/39 63/93/39
f 63/93/40 83/112/40 81/25/40 61/24/40
f 56/41/41 48/37/41 50/113/41 58/106/41
f 58/106/42 50/113/42 51/114/42 59/108/42
f 59/108/43 51/114/43 49/26/43 57/67/43
f 48/37/44 45/19/44 47/98/44 50/113/44
f 50/113/45 47/98/45 46/99/45 51/114/45
f 51/114/46 46/99/46 44/23/46 49/26/46
f 85/14/47 53/39/47 55/107/47 87/115/47
f 87/115/48 55/107/48 54/109/48 86/116/48
f 86/116/49 54/109/49 52/42/49 84/34/49
f 73/43/50 68/68/50 70/117/50 75/118/50
f 75/119/51 70/120/51 71/121/51 74/122/51
f 74/122/52 71/121/52 69/123/52 72/124/52
f 76/31/53 73/43/53 75/125/53 78/100/53
f 78/100/54 75/125/54 74/126/54 79/102/54
f 79/102/55 74/126/55 72/124/55 77/104/55
f 68/68/56 81/69/56 83/112/56 70/127/56
f 70/127/57 83/112/57 82/111/57 71/128/57
f 71/128/58 82/111/58 80/110/58 69/129/58
f 36/130/59 271/131/59 270/132/59 38/133/59
f 38/133/60 270/132/60 272/134/60 39/135/60
f 39/135/61 272/134/61 274/136/61 37/137/61
f 89/11/62 85/14/62 87/115/62 91/138/62
f 91/138/63 87/115/63 86/116/63 90/139/63
f 90/139/64 86/116/64 84/34/64 88/33/64
f 108/47/65 104/50/65 106/140/65 110/141/65
f 110/141/66 106/140/66 107/142/66 111/143/66
f 111/144/67 107/145/67 105/57/67 109/56/67
f 104/50/68 100/49/68 102/146/68 106/140/68
f 106/140/69 102/146/69 103/147/69 107/142/69
f 107/148/70 103/149/70 101/61/70 105/60/70
f 100/49/71 96/48/71 98/150/71 102/146/71
f 102/146/72 98/150/72 99/151/72 103/152/72
f 103/153/73 99/154/73 97/52/73 101/61/73
f 96/48/74 92/155/74 94/156/74 98/150/74
f 98/150/75 94/156/75 95/157/75 99/158/75
f 99/159/76 95/160/76 93/53/76 97/52/76
f 92/155/77 65/32/77 67/161/77 94/162/77
f 94/163/78 67/164/78 66/165/78 95/166/78
f 95/166/79 66/165/79 64/105/79 93/53/79
f 88/33/80 108/47/80 110/141/80 90/167/80
f 90/167/81 110/141/81 111/168/81 91/169/81
f 91/170/82 111/171/82 109/56/82 89/45/82
f 33/22/4 15/21/4 396/72/4 258/87/4
f 92/155/83 96/48/83 108/47/83 88/33/83
f 65/32/84 92/155/84 88/33/84
f 220/1/85 221/4/85 329/3/85 334/2/85
f 218/5/86 217/8/86 330/7/86 333/172/86
f 112/9/87 218/5/87 333/172/87 328/10/87
f 187/11/4 183/14/4 131/13/4 133/12/4
f 217/8/88 219/16/88 331/15/88 330/7/88
f 219/16/89 220/18/89 334/17/89 331/15/89
f 143/19/4 135/22/4 121/21/4 128/20/4
f 142/23/90 147/26/90 179/25/90 159/24/90
f 222/27/91 223/30/91 327/173/91 332/174/91
f 174/31/92 182/34/92 186/33/92 163/32/92
f 223/30/10 237/175/10 234/176/10 327/173/10
f 146/37/4 143/19/4 128/20/4 132/38/4
f 151/39/4 154/41/4 132/38/4 129/40/4
f 183/14/4 151/39/4 129/40/4 131/13/4
f 150/42/93 182/34/93 174/31/93 171/43/93
f 130/44/4 113/46/4 187/45/4 133/12/4
f 221/4/94 222/27/94 332/174/94 329/3/94
f 206/47/95 202/50/95 198/49/95 194/48/95
f 118/51/96 114/54/96 191/53/96 195/52/96
f 115/55/97 116/58/97 203/57/97 207/56/97
f 116/59/98 117/62/98 199/61/98 203/60/98
f 117/62/99 118/51/99 195/52/99 199/61/99
f 2/63/4 367/177/4 371/178/4 4/64/4
f 155/67/100 150/42/100 171/43/100 166/68/100
f 147/26/101 155/67/101 166/68/101 179/69/101
f 121/21/4 378/179/4 377/180/4 120/70/4
f 134/73/102 138/76/102 284/181/102 283/182/102
f 120/70/4 377/180/4 379/183/4 119/77/4
f 122/79/4 124/82/4 126/81/4 123/80/4
f 119/77/4 379/183/4 381/184/4 123/80/4
f 128/20/4 121/21/4 120/70/4 127/84/4
f 124/82/4 130/44/4 133/12/4 126/81/4
f 138/76/103 134/73/103 142/23/103 159/85/103
f 127/84/4 120/70/4 119/77/4 125/86/4
f 125/86/4 119/77/4 123/80/4 126/81/4
f 132/38/4 128/20/4 127/84/4 129/40/4
f 154/41/4 146/37/4 132/38/4
f 129/40/4 127/84/4 125/86/4 131/13/4
f 113/46/104 115/55/104 207/56/104 187/45/104
f 131/13/4 125/86/4 126/81/4 133/12/4
f 135/22/105 137/89/105 285/185/105 281/186/105
f 137/89/106 136/91/106 278/187/106 285/185/106
f 136/91/107 134/73/107 283/182/107 278/187/107
f 159/85/108 161/93/108 140/92/108 138/76/108
f 161/93/109 160/95/109 141/94/109 140/92/109
f 160/95/110 158/97/110 139/96/110 141/94/110
f 143/19/111 145/98/111 137/89/111 135/22/111
f 145/98/112 144/99/112 136/91/112 137/89/112
f 144/99/113 142/23/113 134/73/113 136/91/113
f 163/32/114 165/101/114 176/100/114 174/31/114
f 165/101/115 164/103/115 177/102/115 176/100/115
f 164/103/116 162/105/116 175/104/116 177/102/116
f 151/39/117 153/107/117 156/106/117 154/41/117
f 153/107/118 152/109/118 157/108/118 156/106/118
f 152/109/119 150/42/119 155/67/119 157/108/119
f 158/97/120 160/95/120 180/111/120 178/110/120
f 160/95/121 161/93/121 181/112/121 180/111/121
f 161/93/122 159/24/122 179/25/122 181/112/122
f 154/41/123 156/106/123 148/113/123 146/37/123
f 156/106/124 157/108/124 149/114/124 148/113/124
f 157/108/125 155/67/125 147/26/125 149/114/125
f 146/37/126 148/113/126 145/98/126 143/19/126
f 148/113/127 149/114/127 144/99/127 145/98/127
f 149/114/128 147/26/128 142/23/128 144/99/128
f 183/14/129 185/115/129 153/107/129 151/39/129
f 185/115/130 184/116/130 152/109/130 153/107/130
f 184/116/131 182/34/131 150/42/131 152/109/131
f 171/43/132 173/118/132 168/117/132 166/68/132
f 173/119/133 172/122/133 169/121/133 168/120/133
f 172/122/134 170/124/134 167/123/134 169/121/134
f 174/31/135 176/100/135 173/125/135 171/43/135
f 176/100/136 177/102/136 172/126/136 173/125/136
f 177/102/137 175/104/137 170/124/137 172/126/137
f 166/68/138 168/127/138 181/112/138 179/69/138
f 168/127/139 169/128/139 180/111/139 181/112/139
f 169/128/140 167/129/140 178/110/140 180/111/140
f 36/130/141 38/133/141 286/188/141 291/189/141
f 38/133/142 39/135/142 293/190/142 286/188/142
f 39/135/143 37/137/143 292/191/143 293/190/143
f 187/11/144 189/138/144 185/115/144 183/14/144
f 189/138/145 188/139/145 184/116/145 185/115/145
f 188/139/146 186/33/146 182/34/146 184/116/146
f 206/47/147 208/141/147 204/140/147 202/50/147
f 208/141/148 209/143/148 205/142/148 204/140/148
f 209/144/149 207/56/149 203/57/149 205/145/149
f 202/50/150 204/140/150 200/146/150 198/49/150
f 204/140/151 205/142/151 201/147/151 200/146/151
f 205/148/152 203/60/152 199/61/152 201/149/152
f 198/49/153 200/146/153 196/150/153 194/48/153
f 200/146/154 201/152/154 197/151/154 196/150/154
f 201/153/155 199/61/155 195/52/155 197/154/155
f 194/48/156 196/150/156 192/156/156 190/155/156
f 196/150/157 197/158/157 193/157/157 192/156/157
f 197/159/158 195/52/158 191/53/158 193/160/158
f 190/155/159 192/162/159 165/161/159 163/32/159
f 192/163/160 193/166/160 164/165/160 165/164/160
f 193/166/161 191/53/161 162/105/161 164/165/161
f 186/33/162 188/167/162 208/141/162 206/47/162
f 188/167/163 189/169/163 209/168/163 208/141/163
f 189/170/164 187/45/164 207/56/164 209/171/164
f 135/22/4 281/186/4 378/179/4 121/21/4
f 190/155/165 186/33/165 206/47/165 194/48/165
f 163/32/166 186/33/166 190/155/166
f 347/192/6 345/193/6 342/194/6 339/195/6
f 225/196/167 224/197/167 239/197/167 240/196/167
f 238/198/168 236/35/168 251/35/168 253/36/168
f 230/199/169 232/200/169 323/200/169 245/199/169
f 227/201/170 226/202/170 241/202/170 242/201/170
f 235/203/171 233/204/171 248/204/171 250/203/171
f 224/197/172 227/201/172 242/201/172 239/197/172
f 226/202/173 231/205/173 246/205/173 241/202/173
f 228/206/174 225/196/174 240/196/174 243/206/174
f 232/200/175 234/176/175 249/176/175 247/200/175
f 233/204/176 229/207/176 244/207/176 248/204/176
f 236/35/177 235/203/177 250/203/177 251/35/177
f 231/205/178 230/199/178 245/199/178 246/205/178
f 229/207/179 228/206/179 243/206/179 244/207/179
f 252/208/10 253/36/10 251/35/10 249/176/10
f 249/176/10 251/35/10 250/203/10 247/200/10
f 247/200/10 250/203/10 248/204/10 245/199/10 323/200/10
f 244/207/10 246/205/10 245/199/10 248/204/10
f 246/205/10 244/207/10 243/206/10 241/202/10
f 241/202/10 243/206/10 240/196/10 242/201/10
f 239/197/10 242/201/10 240/196/10
f 234/176/180 237/209/180 252/208/180 249/176/180
f 256/210/10 264/211/10 228/206/10 229/207/10
f 257/212/181 254/213/181 43/94/181 42/92/181
f 311/214/91 315/215/91 306/216/91 303/217/91
f 296/218/182 299/219/182 287/220/182 289/221/182
f 305/222/94 303/217/94 158/97/94 178/110/94
f 267/223/183 266/224/183 273/225/183 275/226/183
f 322/227/86 321/228/86 312/229/86 316/230/86
f 316/230/86 312/229/86 309/231/86 308/232/86
f 260/90/184 259/88/184 267/223/184 268/233/184
f 281/186/185 285/185/185 301/234/185 295/235/185
f 274/136/186 277/236/186 28/237/186 37/137/186
f 309/231/88 302/238/88 170/124/88 175/104/88
f 263/239/187 268/233/187 276/240/187 277/236/187
f 268/233/184 267/223/184 275/226/184 276/240/184
f 265/241/188 262/242/188 254/213/188 257/212/188
f 289/221/189 287/220/189 28/237/189 30/243/189
f 270/132/59 271/131/59 264/211/59 262/242/59
f 294/244/190 300/245/190 279/246/190 282/247/190
f 327/173/10 234/176/10 232/200/10 320/248/10
f 329/3/94 332/174/94 318/249/94 324/250/94
f 345/193/5 344/251/5 337/252/5 342/194/5
f 335/253/1 339/254/1 69/129/1 80/110/1
f 336/255/8 341/217/8 60/97/8 41/96/8
f 291/189/10 227/201/10 224/197/10 36/130/10
f 278/187/182 283/182/182 299/219/182 296/218/182
f 259/88/191 258/87/191 266/224/191 267/223/191
f 254/213/192 256/210/192 41/96/192 43/94/192
f 269/256/193 263/239/193 277/236/193 274/136/193
f 277/236/194 276/240/194 30/243/194 28/237/194
f 255/75/195 257/212/195 42/92/195 40/76/195
f 261/74/187 260/90/187 268/233/187 263/239/187
f 269/256/196 265/241/196 257/212/196 255/75/196
f 262/242/197 264/211/197 256/210/197 254/213/197
f 228/206/10 264/211/10 271/131/10 225/196/10
f 331/15/89 334/17/89 326/257/89 325/258/89
f 255/75/198 261/74/198 263/239/198 269/256/198
f 272/134/199 270/132/199 262/242/199 265/241/199
f 280/259/200 282/247/200 141/94/200 139/96/200
f 275/226/183 273/225/183 29/260/183 31/261/183
f 274/136/201 272/134/201 265/241/201 269/256/201
f 276/240/202 275/226/202 31/261/202 30/243/202
f 225/196/10 271/131/10 36/130/10 224/197/10
f 306/216/10 231/205/10 280/259/10 139/96/10
f 303/217/91 306/216/91 139/96/91 158/97/91
f 297/262/203 294/244/203 282/247/203 280/259/203
f 286/188/204 293/190/204 300/245/204 294/244/204
f 300/245/205 298/263/205 284/181/205 279/246/205
f 288/264/206 289/221/206 30/243/206 31/261/206
f 301/234/207 296/218/207 289/221/207 288/264/207
f 299/219/208 298/263/208 292/191/208 287/220/208
f 295/235/185 301/234/185 288/264/185 290/265/185
f 279/246/209 284/181/209 138/76/209 140/92/209
f 287/220/210 292/191/210 37/137/210 28/237/210
f 282/247/211 279/246/211 140/92/211 141/94/211
f 283/182/212 284/181/212 298/263/212 299/219/212
f 280/259/10 231/205/10 226/202/10 297/262/10
f 285/185/207 278/187/207 296/218/207 301/234/207
f 291/189/141 286/188/141 294/244/141 297/262/141
f 290/265/213 288/264/213 31/261/213 29/260/213
f 293/190/214 292/191/214 298/263/214 300/245/214
f 307/266/85 305/222/85 178/110/85 167/129/85
f 310/267/89 317/268/89 307/269/89 302/238/89
f 313/270/215 316/230/215 308/232/215 304/271/215
f 318/249/91 320/248/91 315/215/91 311/214/91
f 325/258/89 326/257/89 317/268/89 310/267/89
f 312/229/88 310/267/88 302/238/88 309/231/88
f 315/215/10 230/199/10 231/205/10 306/216/10
f 314/272/94 311/214/94 303/217/94 305/222/94
f 317/273/85 314/272/85 305/222/85 307/266/85
f 321/228/88 325/258/88 310/267/88 312/229/88
f 324/250/94 318/249/94 311/214/94 314/272/94
f 319/274/216 322/227/216 316/230/216 313/270/216
f 337/252/2 338/232/2 64/105/2 77/104/2
f 350/275/12 343/276/12 335/253/12 341/217/12
f 346/277/217 349/278/217 340/279/217 338/232/217
f 339/195/6 342/194/6 72/124/6 69/123/6
f 338/232/218 340/279/218 6/54/218 93/53/218 64/105/218
f 229/207/10 336/255/10 41/96/10 256/210/10
f 333/172/86 330/7/86 321/228/86 322/227/86
f 342/194/5 337/252/5 77/104/5 72/124/5
f 341/217/12 335/253/12 80/110/12 60/97/12
f 330/7/88 331/15/88 325/258/88 321/228/88
f 328/10/219 333/172/219 322/227/219 319/274/219
f 332/174/91 327/173/91 320/248/91 318/249/91
f 308/232/86 309/231/86 175/104/86 162/105/86
f 304/271/220 308/232/220 162/105/220 191/53/220 114/54/220
f 297/262/10 226/202/10 227/201/10 291/189/10
f 320/248/10 232/200/10 230/199/10 315/215/10
f 334/2/85 329/3/85 324/250/85 326/280/85
f 323/200/4 232/200/4 247/200/4
f 326/280/221 324/250/221 314/272/221 317/273/221
f 302/238/89 307/269/89 167/123/89 170/124/89
f 343/276/1 347/281/1 339/254/1 335/253/1
f 363/6/222 365/10/222 357/282/222 354/283/222
f 358/284/12 352/250/12 343/276/12 350/275/12
f 344/251/2 346/277/2 338/232/2 337/252/2
f 353/285/8 358/284/8 350/275/8 348/286/8
f 233/204/10 348/286/10 336/255/10 229/207/10
f 352/250/1 356/280/1 347/281/1 343/276/1
f 348/286/8 350/275/8 341/217/8 336/255/8
f 351/228/2 354/283/2 346/277/2 344/251/2
f 235/203/10 353/285/10 348/286/10 233/204/10
f 366/28/12 360/3/12 352/250/12 358/284/12
f 355/287/5 351/228/5 344/251/5 345/193/5
f 354/283/223 357/282/223 349/278/223 346/277/223
f 362/29/8 366/28/8 358/284/8 353/285/8
f 364/15/5 361/7/5 351/228/5 355/287/5
f 236/35/10 362/29/10 353/285/10 235/203/10
f 360/3/1 359/2/1 356/280/1 352/250/1
f 359/17/6 364/15/6 355/287/6 356/257/6
f 361/7/2 363/6/2 354/283/2 351/228/2
f 356/257/6 355/287/6 345/193/6 347/192/6
f 210/8/224 212/16/224 213/18/224 214/4/224 215/27/224 216/30/224 238/36/224 253/36/224 252/208/224 237/209/224 223/30/224 222/27/224 221/4/224 220/1/224 219/16/224 217/8/224 218/5/224 112/9/224 1/9/224 211/5/224
f 368/288/4 370/289/4 12/290/4 11/291/4
f 371/178/4 367/177/4 373/292/4 374/293/4
f 370/289/4 290/265/4 29/260/4 12/290/4
f 369/294/4 368/288/4 11/291/4 3/295/4
f 371/178/4 369/294/4 3/295/4 4/64/4
f 374/293/4 373/292/4 380/296/4 381/184/4
f 372/297/4 295/235/4 290/265/4 370/289/4
f 376/298/4 375/299/4 368/288/4 369/294/4
f 375/299/4 372/297/4 370/289/4 368/288/4
f 374/293/4 376/298/4 369/294/4 371/178/4
f 377/180/4 378/179/4 372/297/4 375/299/4
f 381/184/4 379/183/4 376/298/4 374/293/4
f 378/179/4 281/186/4 295/235/4 372/297/4
f 379/183/4 377/180/4 375/299/4 376/298/4
f 381/184/4 380/296/4 122/79/4 123/80/4
f 385/300/4 382/65/4 4/64/4 3/295/4
f 383/301/4 386/302/4 11/291/4 12/290/4
f 386/302/4 385/300/4 3/295/4 11/291/4
f 384/66/4 382/65/4 389/303/4 387/304/4
f 273/225/4 383/301/4 12/290/4 29/260/4
f 391/305/4 390/306/4 386/302/4 383/301/4
f 388/307/4 389/303/4 382/65/4 385/300/4
f 390/306/4 388/307/4 385/300/4 386/302/4
f 387/304/4 389/303/4 393/83/4 395/308/4
f 266/224/4 391/305/4 383/301/4 273/225/4
f 396/72/4 394/71/4 390/306/4 391/305/4
f 392/78/4 393/83/4 389/303/4 388/307/4
f 394/71/4 392/78/4 388/307/4 390/306/4
f 395/308/4 393/83/4 17/80/4 16/79/4
f 258/87/4 396/72/4 391/305/4 266/224/4
f 588/1/225 589/4/225 728/3/225 727/2/225
f 586/5/226 585/8/226 729/7/226 731/6/226
f 1/9/227 586/5/227 731/6/227 365/10/227
f 474/11/4 470/14/4 410/13/4 412/12/4
f 585/8/228 587/16/228 732/15/228 729/7/228
f 587/16/229 588/18/229 727/17/229 732/15/229
f 430/19/4 418/22/4 403/21/4 408/20/4
f 429/23/230 434/26/230 466/25/230 446/24/230
f 590/27/231 591/30/231 730/29/231 733/28/231
f 461/31/232 469/34/232 473/33/232 450/32/232
f 591/30/233 613/36/233 611/35/233 730/29/233
f 433/37/4 430/19/4 408/20/4 411/38/4
f 438/39/4 441/41/4 411/38/4 409/40/4
f 470/14/4 438/39/4 409/40/4 410/13/4
f 437/42/234 469/34/234 461/31/234 458/43/234
f 24/44/4 5/46/4 474/45/4 412/12/4
f 589/4/235 590/27/235 733/28/235 728/3/235
f 493/47/236 489/50/236 485/49/236 481/48/236
f 10/51/237 6/54/237 478/53/237 482/52/237
f 7/55/238 8/58/238 490/57/238 494/56/238
f 8/59/239 9/62/239 486/61/239 490/60/239
f 9/62/240 10/51/240 482/52/240 486/61/240
f 2/63/4 384/66/4 746/65/4 398/64/4
f 442/67/241 437/42/241 458/43/241 453/68/241
f 434/26/242 442/67/242 453/68/242 466/69/242
f 403/21/4 757/72/4 756/71/4 402/70/4
f 417/73/243 425/76/243 630/75/243 636/74/243
f 402/70/4 756/71/4 754/78/4 401/77/4
f 16/79/4 18/82/4 406/81/4 404/80/4
f 401/77/4 754/78/4 755/83/4 404/80/4
f 408/20/4 403/21/4 402/70/4 407/84/4
f 18/82/4 24/44/4 412/12/4 406/81/4
f 425/76/244 417/73/244 429/23/244 446/85/244
f 407/84/4 402/70/4 401/77/4 405/86/4
f 405/86/4 401/77/4 404/80/4 406/81/4
f 411/38/4 408/20/4 407/84/4 409/40/4
f 441/41/4 433/37/4 411/38/4
f 409/40/4 407/84/4 405/86/4 410/13/4
f 5/46/245 7/55/245 494/56/245 474/45/245
f 410/13/4 405/86/4 406/81/4 412/12/4
f 418/22/246 420/89/246 634/88/246 633/87/246
f 420/89/247 419/91/247 635/90/247 634/88/247
f 419/91/248 417/73/248 636/74/248 635/90/248
f 446/85/249 448/93/249 427/92/249 425/76/249
f 448/93/250 447/95/250 428/94/250 427/92/250
f 447/95/251 445/97/251 426/96/251 428/94/251
f 430/19/252 432/98/252 420/89/252 418/22/252
f 432/98/253 431/99/253 419/91/253 420/89/253
f 431/99/254 429/23/254 417/73/254 419/91/254
f 450/32/255 452/101/255 463/100/255 461/31/255
f 452/101/256 451/103/256 464/102/256 463/100/256
f 451/103/257 449/105/257 462/104/257 464/102/257
f 438/39/258 440/107/258 443/106/258 441/41/258
f 440/107/259 439/109/259 444/108/259 443/106/259
f 439/109/260 437/42/260 442/67/260 444/108/260
f 445/97/261 447/95/261 467/111/261 465/110/261
f 447/95/262 448/93/262 468/112/262 467/111/262
f 448/93/263 446/24/263 466/25/263 468/112/263
f 441/41/264 443/106/264 435/113/264 433/37/264
f 443/106/265 444/108/265 436/114/265 435/113/265
f 444/108/266 442/67/266 434/26/266 436/114/266
f 433/37/267 435/113/267 432/98/267 430/19/267
f 435/113/268 436/114/268 431/99/268 432/98/268
f 436/114/269 434/26/269 429/23/269 431/99/269
f 470/14/270 472/115/270 440/107/270 438/39/270
f 472/115/271 471/116/271 439/109/271 440/107/271
f 471/116/272 469/34/272 437/42/272 439/109/272
f 458/43/273 460/118/273 455/117/273 453/68/273
f 460/119/274 459/122/274 456/121/274 455/120/274
f 459/122/275 457/124/275 454/123/275 456/121/275
f 461/31/276 463/100/276 460/125/276 458/43/276
f 463/100/277 464/102/277 459/126/277 460/125/277
f 464/102/278 462/104/278 457/124/278 459/126/278
f 453/68/279 455/127/279 468/112/279 466/69/279
f 455/127/280 456/128/280 467/111/280 468/112/280
f 456/128/281 454/129/281 465/110/281 467/111/281
f 421/130/282 423/133/282 645/132/282 646/131/282
f 423/133/283 424/135/283 647/134/283 645/132/283
f 424/135/284 422/137/284 649/136/284 647/134/284
f 474/11/285 476/138/285 472/115/285 470/14/285
f 476/138/286 475/139/286 471/116/286 472/115/286
f 475/139/287 473/33/287 469/34/287 471/116/287
f 493/47/288 495/141/288 491/140/288 489/50/288
f 495/141/289 496/143/289 492/142/289 491/140/289
f 496/144/290 494/56/290 490/57/290 492/145/290
f 489/50/291 491/140/291 487/146/291 485/49/291
f 491/140/292 492/142/292 488/147/292 487/146/292
f 492/148/293 490/60/293 486/61/293 488/149/293
f 485/49/294 487/146/294 483/150/294 481/48/294
f 487/146/295 488/152/295 484/151/295 483/150/295
f 488/153/296 486/61/296 482/52/296 484/154/296
f 481/48/297 483/150/297 479/156/297 477/155/297
f 483/150/298 484/158/298 480/157/298 479/156/298
f 484/159/299 482/52/299 478/53/299 480/160/299
f 477/155/300 479/162/300 452/161/300 450/32/300
f 479/163/301 480/166/301 451/165/301 452/164/301
f 480/166/302 478/53/302 449/105/302 451/165/302
f 473/33/303 475/167/303 495/141/303 493/47/303
f 475/167/304 476/169/304 496/168/304 495/141/304
f 476/170/305 474/45/305 494/56/305 496/171/305
f 418/22/4 633/87/4 757/72/4 403/21/4
f 477/155/306 473/33/306 493/47/306 481/48/306
f 450/32/307 473/33/307 477/155/307
f 595/1/308 705/2/308 700/3/308 596/4/308
f 593/5/309 704/172/309 701/7/309 592/8/309
f 112/9/310 328/10/310 704/172/310 593/5/310
f 562/11/4 508/12/4 506/13/4 558/14/4
f 592/8/311 701/7/311 702/15/311 594/16/311
f 594/16/312 702/15/312 705/17/312 595/18/312
f 518/19/4 504/20/4 499/21/4 510/22/4
f 517/23/313 534/24/313 554/25/313 522/26/313
f 597/27/314 703/174/314 699/173/314 598/30/314
f 549/31/315 538/32/315 561/33/315 557/34/315
f 598/30/233 699/173/233 609/176/233 612/175/233
f 521/37/4 507/38/4 504/20/4 518/19/4
f 526/39/4 505/40/4 507/38/4 529/41/4
f 558/14/4 506/13/4 505/40/4 526/39/4
f 525/42/316 546/43/316 549/31/316 557/34/316
f 130/44/4 508/12/4 562/45/4 113/46/4
f 596/4/317 700/3/317 703/174/317 597/27/317
f 581/47/318 569/48/318 573/49/318 577/50/318
f 118/51/319 570/52/319 566/53/319 114/54/319
f 115/55/320 582/56/320 578/57/320 116/58/320
f 116/59/321 578/60/321 574/61/321 117/62/321
f 117/62/322 574/61/322 570/52/322 118/51/322
f 2/63/4 398/64/4 737/178/4 367/177/4
f 530/67/323 541/68/323 546/43/323 525/42/323
f 522/26/324 554/69/324 541/68/324 530/67/324
f 499/21/4 498/70/4 742/180/4 743/179/4
f 509/73/325 658/182/325 659/181/325 513/76/325
f 498/70/4 497/77/4 744/183/4 742/180/4
f 122/79/4 500/80/4 502/81/4 124/82/4
f 497/77/4 500/80/4 745/184/4 744/183/4
f 504/20/4 503/84/4 498/70/4 499/21/4
f 124/82/4 502/81/4 508/12/4 130/44/4
f 513/76/326 534/85/326 517/23/326 509/73/326
f 503/84/4 501/86/4 497/77/4 498/70/4
f 501/86/4 502/81/4 500/80/4 497/77/4
f 507/38/4 505/40/4 503/84/4 504/20/4
f 529/41/4 507/38/4 521/37/4
f 505/40/4 506/13/4 501/86/4 503/84/4
f 113/46/327 562/45/327 582/56/327 115/55/327
f 506/13/4 508/12/4 502/81/4 501/86/4
f 510/22/328 656/186/328 660/185/328 512/89/328
f 512/89/329 660/185/329 653/187/329 511/91/329
f 511/91/330 653/187/330 658/182/330 509/73/330
f 534/85/331 513/76/331 515/92/331 536/93/331
f 536/93/332 515/92/332 516/94/332 535/95/332
f 535/95/333 516/94/333 514/96/333 533/97/333
f 518/19/334 510/22/334 512/89/334 520/98/334
f 520/98/335 512/89/335 511/91/335 519/99/335
f 519/99/336 511/91/336 509/73/336 517/23/336
f 538/32/337 549/31/337 551/100/337 540/101/337
f 540/101/338 551/100/338 552/102/338 539/103/338
f 539/103/339 552/102/339 550/104/339 537/105/339
f 526/39/340 529/41/340 531/106/340 528/107/340
f 528/107/341 531/106/341 532/108/341 527/109/341
f 527/109/342 532/108/342 530/67/342 525/42/342
f 533/97/343 553/110/343 555/111/343 535/95/343
f 535/95/344 555/111/344 556/112/344 536/93/344
f 536/93/345 556/112/345 554/25/345 534/24/345
f 529/41/346 521/37/346 523/113/346 531/106/346
f 531/106/347 523/113/347 524/114/347 532/108/347
f 532/108/348 524/114/348 522/26/348 530/67/348
f 521/37/349 518/19/349 520/98/349 523/113/349
f 523/113/350 520/98/350 519/99/350 524/114/350
f 524/114/351 519/99/351 517/23/351 522/26/351
f 558/14/352 526/39/352 528/107/352 560/115/352
f 560/115/353 528/107/353 527/109/353 559/116/353
f 559/116/354 527/109/354 525/42/354 557/34/354
f 546/43/355 541/68/355 543/117/355 548/118/355
f 548/119/356 543/120/356 544/121/356 547/122/356
f 547/122/357 544/121/357 542/123/357 545/124/357
f 549/31/358 546/43/358 548/125/358 551/100/358
f 551/100/359 548/125/359 547/126/359 552/102/359
f 552/102/360 547/126/360 545/124/360 550/104/360
f 541/68/361 554/69/361 556/112/361 543/127/361
f 543/127/362 556/112/362 555/111/362 544/128/362
f 544/128/363 555/111/363 553/110/363 542/129/363
f 421/130/364 666/189/364 661/188/364 423/133/364
f 423/133/365 661/188/365 668/190/365 424/135/365
f 424/135/366 668/190/366 667/191/366 422/137/366
f 562/11/367 558/14/367 560/115/367 564/138/367
f 564/138/368 560/115/368 559/116/368 563/139/368
f 563/139/369 559/116/369 557/34/369 561/33/369
f 581/47/370 577/50/370 579/140/370 583/141/370
f 583/141/371 579/140/371 580/142/371 584/143/371
f 584/144/372 580/145/372 578/57/372 582/56/372
f 577/50/373 573/49/373 575/146/373 579/140/373
f 579/140/374 575/146/374 576/147/374 580/142/374
f 580/148/375 576/149/375 574/61/375 578/60/375
f 573/49/376 569/48/376 571/150/376 575/146/376
f 575/146/377 571/150/377 572/151/377 576/152/377
f 576/153/378 572/154/378 570/52/378 574/61/378
f 569/48/379 565/155/379 567/156/379 571/150/379
f 571/150/380 567/156/380 568/157/380 572/158/380
f 572/159/381 568/160/381 566/53/381 570/52/381
f 565/155/382 538/32/382 540/161/382 567/162/382
f 567/163/383 540/164/383 539/165/383 568/166/383
f 568/166/384 539/165/384 537/105/384 566/53/384
f 561/33/385 581/47/385 583/141/385 563/167/385
f 563/167/386 583/141/386 584/168/386 564/169/386
f 564/170/387 584/171/387 582/56/387 562/45/387
f 510/22/4 499/21/4 743/179/4 656/186/4
f 565/155/388 569/48/388 581/47/388 561/33/388
f 538/32/389 565/155/389 561/33/389
f 717/192/229 710/195/229 712/194/229 715/193/229
f 600/196/167 615/196/167 614/197/167 599/197/167
f 613/198/168 628/36/168 626/35/168 611/35/168
f 605/199/169 620/199/169 695/200/169 607/200/169
f 602/201/170 617/201/170 616/202/170 601/202/170
f 610/203/171 625/203/171 623/204/171 608/204/171
f 599/197/172 614/197/172 617/201/172 602/201/172
f 601/202/173 616/202/173 621/205/173 606/205/173
f 603/206/174 618/206/174 615/196/174 600/196/174
f 607/200/175 622/200/175 624/176/175 609/176/175
f 608/204/176 623/204/176 619/207/176 604/207/176
f 611/35/177 626/35/177 625/203/177 610/203/177
f 606/205/178 621/205/178 620/199/178 605/199/178
f 604/207/179 619/207/179 618/206/179 603/206/179
f 627/208/233 624/176/233 626/35/233 628/36/233
f 624/176/233 622/200/233 625/203/233 626/35/233
f 622/200/233 695/200/233 620/199/233 623/204/233 625/203/233
f 619/207/233 623/204/233 620/199/233 621/205/233
f 621/205/233 616/202/233 618/206/233 619/207/233
f 616/202/233 617/201/233 615/196/233 618/206/233
f 614/197/233 615/196/233 617/201/233
f 609/176/180 624/176/180 627/208/180 612/209/180
f 631/210/233 604/207/233 603/206/233 639/211/233
f 632/212/390 427/92/390 428/94/390 629/213/390
f 685/214/314 678/217/314 680/216/314 688/215/314
f 671/218/391 664/221/391 662/220/391 674/219/391
f 679/222/317 553/110/317 533/97/317 678/217/317
f 642/223/392 650/226/392 648/225/392 641/224/392
f 694/227/309 689/230/309 686/229/309 693/228/309
f 689/230/309 682/232/309 683/231/309 686/229/309
f 635/90/393 643/233/393 642/223/393 634/88/393
f 656/186/394 670/235/394 676/234/394 660/185/394
f 649/136/395 422/137/395 413/237/395 652/236/395
f 683/231/311 550/104/311 545/124/311 677/238/311
f 638/239/396 652/236/396 651/240/396 643/233/396
f 643/233/393 651/240/393 650/226/393 642/223/393
f 640/241/397 632/212/397 629/213/397 637/242/397
f 664/221/398 415/243/398 413/237/398 662/220/398
f 645/132/282 637/242/282 639/211/282 646/131/282
f 669/244/399 657/247/399 654/246/399 675/245/399
f 699/173/233 692/248/233 607/200/233 609/176/233
f 700/3/317 696/250/317 691/249/317 703/174/317
f 715/193/228 712/194/228 708/252/228 714/251/228
f 706/253/225 465/110/225 454/129/225 710/254/225
f 707/255/231 426/96/231 445/97/231 711/217/231
f 666/189/233 421/130/233 599/197/233 602/201/233
f 653/187/391 671/218/391 674/219/391 658/182/391
f 634/88/400 642/223/400 641/224/400 633/87/400
f 629/213/401 428/94/401 426/96/401 631/210/401
f 644/256/402 649/136/402 652/236/402 638/239/402
f 652/236/403 413/237/403 415/243/403 651/240/403
f 630/75/404 425/76/404 427/92/404 632/212/404
f 636/74/396 638/239/396 643/233/396 635/90/396
f 644/256/405 630/75/405 632/212/405 640/241/405
f 637/242/406 629/213/406 631/210/406 639/211/406
f 603/206/233 600/196/233 646/131/233 639/211/233
f 702/15/312 697/258/312 698/257/312 705/17/312
f 630/75/407 644/256/407 638/239/407 636/74/407
f 647/134/408 640/241/408 637/242/408 645/132/408
f 655/259/409 514/96/409 516/94/409 657/247/409
f 650/226/392 416/261/392 414/260/392 648/225/392
f 649/136/410 644/256/410 640/241/410 647/134/410
f 651/240/411 415/243/411 416/261/411 650/226/411
f 600/196/233 599/197/233 421/130/233 646/131/233
f 680/216/233 514/96/233 655/259/233 606/205/233
f 678/217/314 533/97/314 514/96/314 680/216/314
f 672/262/412 655/259/412 657/247/412 669/244/412
f 661/188/413 669/244/413 675/245/413 668/190/413
f 675/245/414 654/246/414 659/181/414 673/263/414
f 663/264/415 416/261/415 415/243/415 664/221/415
f 676/234/416 663/264/416 664/221/416 671/218/416
f 674/219/417 662/220/417 667/191/417 673/263/417
f 670/235/394 665/265/394 663/264/394 676/234/394
f 654/246/418 515/92/418 513/76/418 659/181/418
f 662/220/419 413/237/419 422/137/419 667/191/419
f 657/247/420 516/94/420 515/92/420 654/246/420
f 658/182/421 674/219/421 673/263/421 659/181/421
f 655/259/233 672/262/233 601/202/233 606/205/233
f 660/185/416 676/234/416 671/218/416 653/187/416
f 666/189/364 672/262/364 669/244/364 661/188/364
f 665/265/422 414/260/422 416/261/422 663/264/422
f 668/190/423 675/245/423 673/263/423 667/191/423
f 681/266/308 542/129/308 553/110/308 679/222/308
f 684/267/312 677/238/312 681/269/312 690/268/312
f 313/270/424 304/271/424 682/232/424 689/230/424
f 691/249/314 685/214/314 688/215/314 692/248/314
f 697/258/312 684/267/312 690/268/312 698/257/312
f 686/229/311 683/231/311 677/238/311 684/267/311
f 688/215/233 680/216/233 606/205/233 605/199/233
f 687/272/317 679/222/317 678/217/317 685/214/317
f 690/273/308 681/266/308 679/222/308 687/272/308
f 693/228/311 686/229/311 684/267/311 697/258/311
f 696/250/317 687/272/317 685/214/317 691/249/317
f 319/274/425 313/270/425 689/230/425 694/227/425
f 708/252/226 462/104/226 449/105/226 709/232/226
f 719/275/235 711/217/235 706/253/235 713/276/235
f 716/277/426 709/232/426 340/279/426 349/278/426
f 710/195/229 454/123/229 457/124/229 712/194/229
f 709/232/427 449/105/427 478/53/427 6/54/427 340/279/427
f 604/207/233 631/210/233 426/96/233 707/255/233
f 704/172/309 694/227/309 693/228/309 701/7/309
f 712/194/228 457/124/228 462/104/228 708/252/228
f 711/217/235 445/97/235 465/110/235 706/253/235
f 701/7/311 693/228/311 697/258/311 702/15/311
f 328/10/428 319/274/428 694/227/428 704/172/428
f 703/174/314 691/249/314 692/248/314 699/173/314
f 682/232/309 537/105/309 550/104/309 683/231/309
f 304/271/429 114/54/429 566/53/429 537/105/429 682/232/429
f 672/262/233 666/189/233 602/201/233 601/202/233
f 692/248/233 688/215/233 605/199/233 607/200/233
f 705/2/308 698/280/308 696/250/308 700/3/308
f 695/200/4 622/200/4 607/200/4
f 698/280/430 690/273/430 687/272/430 696/250/430
f 677/238/312 545/124/312 542/123/312 681/269/312
f 713/276/225 706/253/225 710/254/225 717/281/225
f 731/6/431 723/283/431 357/282/431 365/10/431
f 726/284/235 719/275/235 713/276/235 721/250/235
f 714/251/226 708/252/226 709/232/226 716/277/226
f 722/285/231 718/286/231 719/275/231 726/284/231
f 608/204/233 604/207/233 707/255/233 718/286/233
f 721/250/225 713/276/225 717/281/225 725/280/225
f 718/286/231 707/255/231 711/217/231 719/275/231
f 720/228/226 714/251/226 716/277/226 723/283/226
f 610/203/233 608/204/233 718/286/233 722/285/233
f 733/28/235 726/284/235 721/250/235 728/3/235
f 724/287/228 715/193/228 714/251/228 720/228/228
f 723/283/432 716/277/432 349/278/432 357/282/432
f 730/29/231 722/285/231 726/284/231 733/28/231
f 732/15/228 724/287/228 720/228/228 729/7/228
f 611/35/233 610/203/233 722/285/233 730/29/233
f 728/3/225 721/250/225 725/280/225 727/2/225
f 727/17/229 725/257/229 724/287/229 732/15/229
f 729/7/226 720/228/226 723/283/226 731/6/226
f 725/257/229 717/192/229 715/193/229 724/287/229
f 585/8/224 586/5/224 1/9/224 112/9/224 593/5/224 592/8/224 594/16/224 595/1/224 596/4/224 597/27/224 598/30/224 612/209/224 627/208/224 628/36/224 613/36/224 591/30/224 590/27/224 589/4/224 588/18/224 587/16/224
f 734/288/4 399/291/4 400/290/4 736/289/4
f 737/178/4 739/293/4 373/292/4 367/177/4
f 736/289/4 400/290/4 414/260/4 665/265/4
f 735/294/4 397/295/4 399/291/4 734/288/4
f 737/178/4 398/64/4 397/295/4 735/294/4
f 739/293/4 745/184/4 380/296/4 373/292/4
f 738/297/4 736/289/4 665/265/4 670/235/4
f 741/298/4 735/294/4 734/288/4 740/299/4
f 740/299/4 734/288/4 736/289/4 738/297/4
f 739/293/4 737/178/4 735/294/4 741/298/4
f 742/180/4 740/299/4 738/297/4 743/179/4
f 745/184/4 739/293/4 741/298/4 744/183/4
f 743/179/4 738/297/4 670/235/4 656/186/4
f 744/183/4 741/298/4 740/299/4 742/180/4
f 745/184/4 500/80/4 122/79/4 380/296/4
f 748/300/4 397/295/4 398/64/4 746/65/4
f 747/301/4 400/290/4 399/291/4 749/302/4
f 749/302/4 399/291/4 397/295/4 748/300/4
f 384/66/4 387/304/4 751/303/4 746/65/4
f 648/225/4 414/260/4 400/290/4 747/301/4
f 753/305/4 747/301/4 749/302/4 752/306/4
f 750/307/4 748/300/4 746/65/4 751/303/4
f 752/306/4 749/302/4 748/300/4 750/307/4
f 387/304/4 395/308/4 755/83/4 751/303/4
f 641/224/4 648/225/4 747/301/4 753/305/4
f 757/72/4 753/305/4 752/306/4 756/71/4
f 754/78/4 750/307/4 751/303/4 755/83/4
f 756/71/4 752/306/4 750/307/4 754/78/4
f 395/308/4 16/79/4 404/80/4 755/83/4
f 633/87/4 641/224/4 753/305/4 757/72/4
