{
	"asset":{
		"generator":"Khronos glTF Blender I/O v4.2.83",
		"version":"2.0"
	},
	"scene":0,
	"scenes":[
		{
			"name":"Scene",
			"nodes":[
				0,
				1,
				2,
				3,
				4,
				5
			]
		}
	],
	"nodes":[
		{
			"mesh":0,
			"name":"Body",
			"translation":[
				0,
				-0.0004595262580551207,
				0.021994002163410187
			]
		},
		{
			"mesh":1,
			"name":"Body_collizion",
			"translation":[
				0,
				-0.0004595262580551207,
				0.02199399471282959
			]
		},
		{
			"mesh":2,
			"name":"Drive_wheel_R_collision",
			"rotation":[
				-0.20597632229328156,
				0.6764419674873352,
				-0.20597632229328156,
				0.67644202709198
			],
			"translation":[
				-0.20749686658382416,
				0.0010734819807112217,
				0.06214447319507599
			]
		},
		{
			"mesh":3,
			"name":"Drive_wheel_R",
			"rotation":[
				-0.20597632229328156,
				0.6764419674873352,
				-0.20597632229328156,
				0.67644202709198
			],
			"translation":[
				-0.20749686658382416,
				0.0010734819807112217,
				0.06214447319507599
			]
		},
		{
			"mesh":4,
			"name":"Drive_wheel_L_collision",
			"rotation":[
				-0.20597632229328156,
				0.6764419674873352,
				-0.20597632229328156,
				0.67644202709198
			],
			"translation":[
				0.20749448239803314,
				0.0010734995594248176,
				0.06227964907884598
			]
		},
		{
			"mesh":5,
			"name":"Drive_wheel_L",
			"rotation":[
				-0.20597632229328156,
				0.6764419674873352,
				-0.20597632229328156,
				0.67644202709198
			],
			"translation":[
				0.20749448239803314,
				0.0010734995594248176,
				0.06227964907884598
			]
		}
	],
	"materials":[
		{
			"doubleSided":true,
			"name":"Aluminium_Plastic_4K",
			"normalTexture":{
				"index":0
			},
			"pbrMetallicRoughness":{
				"baseColorTexture":{
					"index":1
				},
				"metallicRoughnessTexture":{
					"index":2
				}
			}
		},
		{
			"doubleSided":true,
			"name":"Aluminium_Rubber_2k",
			"normalTexture":{
				"index":3
			},
			"pbrMetallicRoughness":{
				"baseColorTexture":{
					"index":4
				},
				"metallicRoughnessTexture":{
					"index":5
				}
			}
		}
	],
	"meshes":[
		{
			"name":"Cube.012",
			"primitives":[
				{
					"attributes":{
						"POSITION":0,
						"NORMAL":1,
						"TEXCOORD_0":2
					},
					"indices":3,
					"material":0
				}
			]
		},
		{
			"name":"Cube.013",
			"primitives":[
				{
					"attributes":{
						"POSITION":4,
						"NORMAL":5,
						"TEXCOORD_0":6
					},
					"indices":7
				}
			]
		},
		{
			"name":"Cylinder.003",
			"primitives":[
				{
					"attributes":{
						"POSITION":8,
						"NORMAL":9,
						"TEXCOORD_0":10,
						"TEXCOORD_1":11
					},
					"indices":12
				}
			]
		},
		{
			"name":"Cylinder.005",
			"primitives":[
				{
					"attributes":{
						"POSITION":13,
						"NORMAL":14,
						"TEXCOORD_0":15
					},
					"indices":16,
					"material":1
				}
			]
		},
		{
			"name":"Cylinder.007",
			"primitives":[
				{
					"attributes":{
						"POSITION":17,
						"NORMAL":18,
						"TEXCOORD_0":19,
						"TEXCOORD_1":20
					},
					"indices":12
				}
			]
		},
		{
			"name":"Cylinder.004",
			"primitives":[
				{
					"attributes":{
						"POSITION":21,
						"NORMAL":22,
						"TEXCOORD_0":23
					},
					"indices":16,
					"material":1
				}
			]
		}
	],
	"textures":[
		{
			"sampler":0,
			"source":0
		},
		{
			"sampler":0,
			"source":1
		},
		{
			"sampler":0,
			"source":2
		},
		{
			"sampler":0,
			"source":3
		},
		{
			"sampler":0,
			"source":4
		},
		{
			"sampler":0,
			"source":5
		}
	],
	"images":[
		{
			"mimeType":"image/png",
			"name":"Aluminium_Plastic_4K_normal",
			"uri":"textures/Aluminium_Plastic_4K_normal.png"
		},
		{
			"mimeType":"image/png",
			"name":"Aluminium_Plastic_4K_color",
			"uri":"textures/Aluminium_Plastic_4K_color.png"
		},
		{
			"mimeType":"image/png",
			"name":"Aluminium_Plastic_4K_metallic-Aluminium_Plastic_4K_roughness",
			"uri":"textures/Aluminium_Plastic_4K_metallic-Aluminium_Plastic_4K_roughness.png"
		},
		{
			"mimeType":"image/png",
			"name":"Aluminium_Rubber_2K_normal",
			"uri":"textures/Aluminium_Rubber_2K_normal.png"
		},
		{
			"mimeType":"image/png",
			"name":"Aluminium_Rubber_2K_color",
			"uri":"textures/Aluminium_Rubber_2K_color.png"
		},
		{
			"mimeType":"image/png",
			"name":"Aluminium_Rubber_2K_metallic-Aluminium_Rubber_2K_roughness",
			"uri":"textures/Aluminium_Rubber_2K_metallic-Aluminium_Rubber_2K_roughness.png"
		}
	],
	"accessors":[
		{
			"bufferView":0,
			"componentType":5126,
			"count":3355,
			"max":[
				0.21650412678718567,
				0.3458070456981659,
				0.18250080943107605
			],
			"min":[
				-0.21650412678718567,
				-0.34488794207572937,
				-8.642673492431641e-07
			],
			"type":"VEC3"
		},
		{
			"bufferView":1,
			"componentType":5126,
			"count":3355,
			"type":"VEC3"
		},
		{
			"bufferView":2,
			"componentType":5126,
			"count":3355,
			"type":"VEC2"
		},
		{
			"bufferView":3,
			"componentType":5123,
			"count":11526,
			"type":"SCALAR"
		},
		{
			"bufferView":4,
			"componentType":5126,
			"count":2301,
			"max":[
				0.21650412678718567,
				0.3458070158958435,
				0.18250080943107605
			],
			"min":[
				-0.21650412678718567,
				-0.34488797187805176,
				-8.642673492431641e-07
			],
			"type":"VEC3"
		},
		{
			"bufferView":5,
			"componentType":5126,
			"count":2301,
			"type":"VEC3"
		},
		{
			"bufferView":6,
			"componentType":5126,
			"count":2301,
			"type":"VEC2"
		},
		{
			"bufferView":7,
			"componentType":5123,
			"count":4530,
			"type":"SCALAR"
		},
		{
			"bufferView":8,
			"componentType":5126,
			"count":1152,
			"max":[
				0.0625000074505806,
				0.0625000074505806,
				0.015000002458691597
			],
			"min":[
				-0.0625000074505806,
				-0.0625000074505806,
				-0.01499999687075615
			],
			"type":"VEC3"
		},
		{
			"bufferView":9,
			"componentType":5126,
			"count":1152,
			"type":"VEC3"
		},
		{
			"bufferView":10,
			"componentType":5126,
			"count":1152,
			"type":"VEC2"
		},
		{
			"bufferView":11,
			"componentType":5126,
			"count":1152,
			"type":"VEC2"
		},
		{
			"bufferView":12,
			"componentType":5123,
			"count":2100,
			"type":"SCALAR"
		},
		{
			"bufferView":13,
			"componentType":5126,
			"count":2384,
			"max":[
				0.0625000074505806,
				0.0625000074505806,
				0.014999999664723873
			],
			"min":[
				-0.0625000074505806,
				-0.0625000074505806,
				-0.014999999664723873
			],
			"type":"VEC3"
		},
		{
			"bufferView":14,
			"componentType":5126,
			"count":2384,
			"type":"VEC3"
		},
		{
			"bufferView":15,
			"componentType":5126,
			"count":2384,
			"type":"VEC2"
		},
		{
			"bufferView":16,
			"componentType":5123,
			"count":4524,
			"type":"SCALAR"
		},
		{
			"bufferView":17,
			"componentType":5126,
			"count":1152,
			"max":[
				0.0625000074505806,
				0.0625000074505806,
				0.015000002458691597
			],
			"min":[
				-0.0625000074505806,
				-0.0625000074505806,
				-0.01499999687075615
			],
			"type":"VEC3"
		},
		{
			"bufferView":18,
			"componentType":5126,
			"count":1152,
			"type":"VEC3"
		},
		{
			"bufferView":19,
			"componentType":5126,
			"count":1152,
			"type":"VEC2"
		},
		{
			"bufferView":20,
			"componentType":5126,
			"count":1152,
			"type":"VEC2"
		},
		{
			"bufferView":21,
			"componentType":5126,
			"count":2384,
			"max":[
				0.06254000216722488,
				0.06244063377380371,
				0.015000012703239918
			],
			"min":[
				-0.06246001273393631,
				-0.06255938112735748,
				-0.014999986626207829
			],
			"type":"VEC3"
		},
		{
			"bufferView":22,
			"componentType":5126,
			"count":2384,
			"type":"VEC3"
		},
		{
			"bufferView":23,
			"componentType":5126,
			"count":2384,
			"type":"VEC2"
		}
	],
	"bufferViews":[
		{
			"buffer":0,
			"byteLength":40260,
			"byteOffset":0,
			"target":34962
		},
		{
			"buffer":0,
			"byteLength":40260,
			"byteOffset":40260,
			"target":34962
		},
		{
			"buffer":0,
			"byteLength":26840,
			"byteOffset":80520,
			"target":34962
		},
		{
			"buffer":0,
			"byteLength":23052,
			"byteOffset":107360,
			"target":34963
		},
		{
			"buffer":0,
			"byteLength":27612,
			"byteOffset":130412,
			"target":34962
		},
		{
			"buffer":0,
			"byteLength":27612,
			"byteOffset":158024,
			"target":34962
		},
		{
			"buffer":0,
			"byteLength":18408,
			"byteOffset":185636,
			"target":34962
		},
		{
			"buffer":0,
			"byteLength":9060,
			"byteOffset":204044,
			"target":34963
		},
		{
			"buffer":0,
			"byteLength":13824,
			"byteOffset":213104,
			"target":34962
		},
		{
			"buffer":0,
			"byteLength":13824,
			"byteOffset":226928,
			"target":34962
		},
		{
			"buffer":0,
			"byteLength":9216,
			"byteOffset":240752,
			"target":34962
		},
		{
			"buffer":0,
			"byteLength":9216,
			"byteOffset":249968,
			"target":34962
		},
		{
			"buffer":0,
			"byteLength":4200,
			"byteOffset":259184,
			"target":34963
		},
		{
			"buffer":0,
			"byteLength":28608,
			"byteOffset":263384,
			"target":34962
		},
		{
			"buffer":0,
			"byteLength":28608,
			"byteOffset":291992,
			"target":34962
		},
		{
			"buffer":0,
			"byteLength":19072,
			"byteOffset":320600,
			"target":34962
		},
		{
			"buffer":0,
			"byteLength":9048,
			"byteOffset":339672,
			"target":34963
		},
		{
			"buffer":0,
			"byteLength":13824,
			"byteOffset":348720,
			"target":34962
		},
		{
			"buffer":0,
			"byteLength":13824,
			"byteOffset":362544,
			"target":34962
		},
		{
			"buffer":0,
			"byteLength":9216,
			"byteOffset":376368,
			"target":34962
		},
		{
			"buffer":0,
			"byteLength":9216,
			"byteOffset":385584,
			"target":34962
		},
		{
			"buffer":0,
			"byteLength":28608,
			"byteOffset":394800,
			"target":34962
		},
		{
			"buffer":0,
			"byteLength":28608,
			"byteOffset":423408,
			"target":34962
		},
		{
			"buffer":0,
			"byteLength":19072,
			"byteOffset":452016,
			"target":34962
		}
	],
	"samplers":[
		{
			"magFilter":9729,
			"minFilter":9987
		}
	],
	"buffers":[
		{
			"byteLength":471088,
			"uri":"AMR100_LP.bin"
		}
	]
}
