{
    "asset" : {
        "generator" : "Khronos glTF Blender I/O v1.4.40",
        "version" : "2.0"
    },
    "extensionsUsed" : [
        "KHR_texture_transform"
    ],
    "extensionsRequired" : [
        "KHR_texture_transform"
    ],
    "scene" : 0,
    "scenes" : [
        {
            "name" : "Scene",
            "nodes" : [
                0
            ]
        }
    ],
    "nodes" : [
        {
            "mesh" : 0,
            "name" : "Frame"
        }
    ],
    "materials" : [
        {
            "doubleSided" : true,
            "name" : "Aluminium3_2K",
            "normalTexture" : {
                "extensions" : {
                    "KHR_texture_transform" : {
                        "offset" : [
                            0,
                            -3
                        ],
                        "scale" : [
                            4,
                            4
                        ]
                    }
                },
                "index" : 0,
                "texCoord" : 0
            },
            "pbrMetallicRoughness" : {
                "baseColorTexture" : {
                    "extensions" : {
                        "KHR_texture_transform" : {
                            "offset" : [
                                0,
                                -3
                            ],
                            "scale" : [
                                4,
                                4
                            ]
                        }
                    },
                    "index" : 1,
                    "texCoord" : 0
                },
                "metallicRoughnessTexture" : {
                    "extensions" : {
                        "KHR_texture_transform" : {
                            "offset" : [
                                0,
                                -3
                            ],
                            "scale" : [
                                4,
                                4
                            ]
                        }
                    },
                    "index" : 2,
                    "texCoord" : 0
                }
            }
        }
    ],
    "meshes" : [
        {
            "name" : "Cube",
            "primitives" : [
                {
                    "attributes" : {
                        "POSITION" : 0,
                        "NORMAL" : 1,
                        "TEXCOORD_0" : 2
                    },
                    "indices" : 3,
                    "material" : 0
                }
            ]
        }
    ],
    "textures" : [
        {
            "sampler" : 0,
            "source" : 0
        },
        {
            "sampler" : 0,
            "source" : 1
        },
        {
            "sampler" : 0,
            "source" : 2
        }
    ],
    "images" : [
        {
            "mimeType" : "image/jpeg",
            "name" : "Metal011_2K-JPG_NormalGL",
            "uri" : "textures/Metal011_2K-JPG_NormalGL.jpg"
        },
        {
            "mimeType" : "image/jpeg",
            "name" : "Metal011_2K-JPG_Color",
            "uri" : "textures/Metal011_2K-JPG_Color.jpg"
        },
        {
            "mimeType" : "image/png",
            "name" : "Metal011_2K-JPG_Metalness-Metal011_2K-JPG_Roughness",
            "uri" : "textures/Metal011_2K-JPG_Metalness-Metal011_2K-JPG_Roughness.png"
        }
    ],
    "accessors" : [
        {
            "bufferView" : 0,
            "componentType" : 5126,
            "count" : 2148,
            "max" : [
                0.2139258235692978,
                0.3429752588272095,
                0.004000000189989805
            ],
            "min" : [
                -0.2139258235692978,
                -0.3420247435569763,
                -0.004000000189989805
            ],
            "type" : "VEC3"
        },
        {
            "bufferView" : 1,
            "componentType" : 5126,
            "count" : 2148,
            "type" : "VEC3"
        },
        {
            "bufferView" : 2,
            "componentType" : 5126,
            "count" : 2148,
            "type" : "VEC2"
        },
        {
            "bufferView" : 3,
            "componentType" : 5123,
            "count" : 6636,
            "type" : "SCALAR"
        }
    ],
    "bufferViews" : [
        {
            "buffer" : 0,
            "byteLength" : 25776,
            "byteOffset" : 0
        },
        {
            "buffer" : 0,
            "byteLength" : 25776,
            "byteOffset" : 25776
        },
        {
            "buffer" : 0,
            "byteLength" : 17184,
            "byteOffset" : 51552
        },
        {
            "buffer" : 0,
            "byteLength" : 13272,
            "byteOffset" : 68736
        }
    ],
    "samplers" : [
        {
            "magFilter" : 9729,
            "minFilter" : 9986
        }
    ],
    "buffers" : [
        {
            "byteLength" : 82008,
            "uri" : "robot_frame.bin"
        }
    ]
}
