# Blender 4.2.16 LTS
# www.blender.org
o tmp_export_Caster_axis
v 0.005860 0.000154 -0.004900
v 0.005860 0.000154 0.000000
v 0.002971 -0.004849 -0.004900
v 0.002971 -0.004849 0.000000
v -0.002806 -0.004849 -0.004900
v -0.002806 -0.004849 0.000000
v -0.005694 0.000154 -0.004900
v -0.005694 0.000154 0.000000
v -0.002806 0.005157 -0.004900
v -0.002806 0.005157 0.000000
v 0.002971 0.005157 -0.004900
v 0.002971 0.005157 0.000000
v 0.000000 0.002996 -0.004900
v 0.000000 0.003001 0.079802
v 0.002119 0.002119 -0.004900
v 0.002122 0.002122 0.079802
v 0.002996 -0.000000 -0.004900
v 0.003001 -0.000000 0.079802
v 0.002119 -0.002119 -0.004900
v 0.002122 -0.002122 0.079802
v 0.000000 -0.002996 -0.004900
v 0.000000 -0.003001 0.079802
v -0.002119 -0.002119 -0.004900
v -0.002122 -0.002122 0.079802
v -0.002996 -0.000000 -0.004900
v -0.003001 -0.000000 0.079802
v -0.002119 0.002119 -0.004900
v -0.002122 0.002122 0.079802
v 0.002867 0.002867 0.079802
v 0.000000 0.004055 0.079802
v 0.004055 -0.000000 0.079802
v 0.002867 -0.002867 0.079802
v 0.000000 -0.004055 0.079802
v -0.002867 -0.002867 0.079802
v -0.004055 -0.000000 0.079802
v -0.002867 0.002867 0.079802
v 0.000000 0.003001 0.090803
v 0.002122 0.002122 0.090803
v 0.003001 -0.000000 0.090803
v 0.002122 -0.002122 0.090803
v 0.000000 -0.003001 0.090803
v -0.002122 -0.002122 0.090803
v -0.003001 -0.000000 0.090803
v -0.002122 0.002122 0.090803
v 0.000000 0.002996 -0.010500
v 0.002119 0.002119 -0.010500
v 0.002996 -0.000000 -0.010500
v 0.002119 -0.002119 -0.010500
v 0.000000 -0.002996 -0.010500
v -0.002119 -0.002119 -0.010500
v -0.002996 -0.000000 -0.010500
v -0.002119 0.002119 -0.010500
v 0.000000 0.004028 0.000000
v 0.002848 0.002848 0.000000
v 0.004028 -0.000000 -0.000000
v 0.000000 -0.004028 -0.000000
v 0.002848 -0.002848 -0.000000
v -0.002848 -0.002848 0.000000
v -0.004028 -0.000000 0.000000
v -0.002848 0.002848 0.000000
vn 0.8660 -0.5000 -0.0000
vn -0.0000 -1.0000 -0.0000
vn -0.8660 -0.5000 -0.0000
vn -0.8660 0.5000 -0.0000
vn -0.0000 -0.0000 1.0000
vn -0.0000 1.0000 -0.0000
vn 0.8660 0.5000 -0.0000
vn -0.0000 -0.0000 -1.0000
vn 1.0000 -0.0000 -0.0000
vn 0.7071 -0.7071 -0.0000
vn 0.7071 0.7071 -0.0000
vn -0.7071 0.7071 -0.0000
vn -1.0000 -0.0000 -0.0000
vn -0.7071 -0.7071 -0.0000
vn -0.7071 -0.7071 -0.0003
vn -0.0000 -1.0000 -0.0003
vn -0.0000 1.0000 -0.0003
vn -0.7071 0.7071 -0.0003
vn 1.0000 -0.0000 -0.0003
vn 0.7071 0.7071 -0.0003
vn 0.7071 -0.7071 -0.0003
vn -1.0000 -0.0000 -0.0003
vt 1.000000 0.500000
vt 0.833333 1.000000
vt 0.833333 0.500000
vt 0.666667 1.000000
vt 0.666667 0.500000
vt 0.500000 1.000000
vt 0.500000 0.500000
vt 0.333333 1.000000
vt 0.333333 0.500000
vt 0.457846 0.370000
vt 0.256412 0.413885
vt 0.374732 0.364875
vt 0.166667 1.000000
vt 0.166667 0.500000
vt -0.000000 1.000000
vt -0.000000 0.500000
vt 0.542154 0.370000
vt 0.668387 0.334581
vt 0.631926 0.246556
vt 0.750000 0.010000
vt 0.668387 0.158531
vt 0.756412 0.122069
vt 0.542154 0.130000
vt 0.750000 0.490000
vt 0.947333 0.250000
vt 0.889535 0.110465
vt 0.250000 0.069636
vt 0.377536 0.122464
vt 0.250000 0.430364
vt 0.419706 0.419706
vt 0.250000 0.490000
vt 0.377536 0.377536
vt 0.490000 0.250000
vt 0.430364 0.250000
vt 0.419706 0.080294
vt 0.250000 0.010000
vt 0.080294 0.080294
vt 0.122464 0.122464
vt 0.010000 0.250000
vt 0.069636 0.250000
vt 0.080294 0.419706
vt 0.122464 0.377536
vt 0.423741 0.246556
vt 0.138092 0.128236
vt 0.042154 0.130000
vt 0.042154 0.370000
vt 0.089082 0.246556
vt 0.138092 0.364875
vt 0.374732 0.128236
vt 0.457846 0.130000
vt 0.256412 0.079226
vt 0.610465 0.110465
vt 0.610465 0.389535
vt 0.750000 0.447333
vt 0.889535 0.389535
vt 0.552667 0.250000
vt 0.750000 0.052667
vt 0.375000 0.562015
vt 0.500000 1.000000
vt 0.375000 1.000000
vt 0.957846 0.130000
vt 0.844437 0.158531
vt 0.880898 0.246556
vt 0.000000 0.562015
vt 0.125000 1.000000
vt 0.000000 1.000000
vt 0.750000 0.562015
vt 0.875000 1.000000
vt 0.750000 1.000000
vt 0.500000 0.562015
vt 0.625000 1.000000
vt 0.125000 0.562015
vt 0.250000 1.000000
vt 0.875000 0.562015
vt 1.000000 1.000000
vt 0.625000 0.562015
vt 0.250000 0.562015
vt 0.957846 0.370000
vt 0.844437 0.334581
vt 0.756412 0.371042
vt 1.000000 0.562015
s 1
f 1/1/1 4/2/1 3/3/1
f 3/3/2 6/4/2 5/5/2
f 5/5/3 8/6/3 7/7/3
f 7/7/4 10/8/4 9/9/4
f 4/10/5 55/11/5 57/12/5
f 9/9/6 12/13/6 11/14/6
f 11/14/7 2/15/7 1/16/7
f 11/17/8 15/18/8 13/19/8
f 7/20/8 27/21/8 25/22/8
f 9/23/8 13/19/8 27/21/8
f 9/23/8 11/17/8 13/19/8
f 1/24/8 15/18/8 11/17/8
f 17/25/9 48/26/10 47/25/9
f 22/27/2 40/28/10 41/27/2
f 14/29/5 29/30/5 30/31/5
f 16/32/5 31/33/5 29/30/5
f 18/34/5 32/35/5 31/33/5
f 20/28/5 33/36/5 32/35/5
f 22/27/5 34/37/5 33/36/5
f 24/38/5 35/39/5 34/37/5
f 26/40/5 36/41/5 35/39/5
f 28/42/5 30/31/5 36/41/5
f 43/40/5 41/27/5 39/34/5
f 18/34/9 38/32/11 39/34/9
f 28/42/12 43/40/13 44/42/12
f 24/38/14 41/27/2 42/38/14
f 20/28/10 39/34/9 40/28/10
f 16/32/11 37/29/6 38/32/11
f 14/29/6 44/42/12 37/29/6
f 26/40/13 42/38/14 43/40/13
f 4/10/5 57/12/5 56/43/5
f 8/36/5 60/44/5 10/45/5
f 12/46/5 53/47/5 54/48/5
f 58/49/5 6/50/5 56/43/5
f 6/50/5 4/10/5 56/43/5
f 12/46/5 10/45/5 53/47/5
f 10/45/5 60/44/5 53/47/5
f 8/36/5 58/49/5 59/51/5
f 48/26/8 50/52/8 52/53/8
f 13/54/6 46/55/11 45/54/6
f 27/53/12 45/54/6 52/53/12
f 23/52/14 51/56/13 50/52/14
f 19/26/10 49/57/2 48/26/10
f 15/55/11 47/25/9 46/55/11
f 25/56/13 52/53/12 51/56/13
f 21/57/2 50/52/14 49/57/2
f 58/58/15 33/59/16 34/60/15
f 5/61/8 23/62/8 21/63/8
f 53/64/17 36/65/18 30/66/17
f 55/67/19 29/68/20 31/69/19
f 56/70/16 32/71/21 33/59/16
f 60/72/18 35/73/22 36/65/18
f 54/74/20 30/75/17 29/68/20
f 57/76/21 31/69/19 32/71/21
f 59/77/22 34/60/15 35/73/22
f 12/46/5 55/11/5 2/31/5
f 7/20/8 23/62/8 5/61/8
f 3/78/8 5/61/8 21/63/8
f 3/78/8 21/63/8 19/79/8
f 1/24/8 19/79/8 17/80/8
f 1/1/1 2/75/1 4/2/1
f 3/3/2 4/2/2 6/4/2
f 5/5/3 6/4/3 8/6/3
f 7/7/4 8/6/4 10/8/4
f 4/10/5 2/31/5 55/11/5
f 9/9/6 10/8/6 12/13/6
f 11/14/7 12/13/7 2/15/7
f 7/20/8 9/23/8 27/21/8
f 1/24/8 17/80/8 15/18/8
f 17/25/9 19/26/10 48/26/10
f 22/27/2 20/28/10 40/28/10
f 14/29/5 16/32/5 29/30/5
f 16/32/5 18/34/5 31/33/5
f 18/34/5 20/28/5 32/35/5
f 20/28/5 22/27/5 33/36/5
f 22/27/5 24/38/5 34/37/5
f 24/38/5 26/40/5 35/39/5
f 26/40/5 28/42/5 36/41/5
f 28/42/5 14/29/5 30/31/5
f 39/34/5 38/32/5 37/29/5
f 37/29/5 44/42/5 43/40/5
f 43/40/5 42/38/5 41/27/5
f 41/27/5 40/28/5 39/34/5
f 39/34/5 37/29/5 43/40/5
f 18/34/9 16/32/11 38/32/11
f 28/42/12 26/40/13 43/40/13
f 24/38/14 22/27/2 41/27/2
f 20/28/10 18/34/9 39/34/9
f 16/32/11 14/29/6 37/29/6
f 14/29/6 28/42/12 44/42/12
f 26/40/13 24/38/14 42/38/14
f 8/36/5 59/51/5 60/44/5
f 8/36/5 6/50/5 58/49/5
f 52/53/8 45/54/8 46/55/8
f 46/55/8 47/25/8 52/53/8
f 47/25/8 48/26/8 52/53/8
f 48/26/8 49/57/8 50/52/8
f 50/52/8 51/56/8 52/53/8
f 13/54/6 15/55/11 46/55/11
f 27/53/12 13/54/6 45/54/6
f 23/52/14 25/56/13 51/56/13
f 19/26/10 21/57/2 49/57/2
f 15/55/11 17/25/9 47/25/9
f 25/56/13 27/53/12 52/53/12
f 21/57/2 23/52/14 50/52/14
f 58/58/15 56/70/16 33/59/16
f 53/64/17 60/72/18 36/65/18
f 55/67/19 54/74/20 29/68/20
f 56/70/16 57/76/21 32/71/21
f 60/72/18 59/77/22 35/73/22
f 54/74/20 53/81/17 30/75/17
f 57/76/21 55/67/19 31/69/19
f 59/77/22 58/58/15 34/60/15
f 12/46/5 54/48/5 55/11/5
f 7/20/8 25/22/8 23/62/8
f 1/24/8 3/78/8 19/79/8
