# Blender 4.2.16 LTS
# www.blender.org
o tmp_export_Caster_bar
v 0.037791 0.017874 -0.012447
v 0.037791 0.017874 -0.010916
v 0.044923 0.015226 -0.012447
v 0.044923 0.015226 -0.010916
v 0.048084 0.007595 -0.012447
v 0.048084 0.007595 -0.010916
v 0.044923 -0.000036 -0.012447
v 0.044923 -0.000036 -0.010916
v 0.037403 -0.003356 -0.012447
v 0.037403 -0.003356 -0.010916
v 0.015140 0.009455 -0.010916
v 0.015140 0.009455 -0.012447
v 0.022069 -0.008256 -0.010916
v 0.022069 -0.008256 -0.012447
v 0.030041 0.015020 -0.012447
v 0.030041 0.015020 -0.010916
v 0.008250 -0.012679 -0.012447
v 0.008250 -0.012679 -0.010916
v 0.011255 0.009472 -0.012447
v 0.011255 0.009472 -0.010916
v 0.001301 -0.013055 -0.012447
v 0.001301 -0.013055 -0.010916
v 0.008257 0.010586 -0.012447
v 0.008257 0.010586 -0.010916
v -0.006084 -0.010427 -0.010069
v -0.004848 -0.010977 -0.009479
v 0.004064 0.012406 -0.010069
v 0.005300 0.011857 -0.009479
v 0.005787 0.011662 -0.010334
v -0.004389 -0.011232 -0.010334
v 0.004789 0.012106 -0.011420
v -0.005387 -0.010789 -0.011420
v 0.006463 0.011370 -0.012447
v -0.003664 -0.011414 -0.012447
v 0.006508 0.011350 -0.010835
v -0.003619 -0.011434 -0.010835
v -0.004876 -0.010964 -0.008946
v 0.003897 0.012480 -0.008946
v 0.005273 0.011869 -0.008946
v -0.006252 -0.010353 -0.008946
v -0.004876 -0.010964 -0.000000
v 0.005273 0.011869 -0.000000
v -0.006252 -0.010353 -0.000000
v 0.003897 0.012480 -0.000000
v 0.037791 0.017874 0.012447
v 0.037791 0.017874 0.010916
v 0.044923 0.015226 0.012447
v 0.044923 0.015226 0.010916
v 0.048084 0.007595 0.012447
v 0.048084 0.007595 0.010916
v 0.044923 -0.000036 0.012447
v 0.044923 -0.000036 0.010916
v 0.037403 -0.003356 0.012447
v 0.037403 -0.003356 0.010916
v 0.015140 0.009455 0.010916
v 0.015140 0.009455 0.012447
v 0.022069 -0.008256 0.010916
v 0.022069 -0.008256 0.012447
v 0.030041 0.015020 0.012447
v 0.030041 0.015020 0.010916
v 0.008250 -0.012679 0.012447
v 0.008250 -0.012679 0.010916
v 0.011255 0.009472 0.012447
v 0.011255 0.009472 0.010916
v 0.001301 -0.013055 0.012447
v 0.001301 -0.013055 0.010916
v 0.008257 0.010586 0.012447
v 0.008257 0.010586 0.010916
v -0.006084 -0.010427 0.010069
v -0.004848 -0.010977 0.009479
v 0.004064 0.012406 0.010069
v 0.005300 0.011857 0.009479
v 0.005787 0.011662 0.010334
v -0.004389 -0.011232 0.010334
v 0.004789 0.012106 0.011420
v -0.005387 -0.010789 0.011420
v 0.006463 0.011370 0.012447
v -0.003664 -0.011414 0.012447
v 0.006508 0.011350 0.010835
v -0.003619 -0.011434 0.010835
v -0.004876 -0.010964 0.008946
v 0.003897 0.012480 0.008946
v 0.005273 0.011869 0.008946
v -0.006252 -0.010353 0.008946
v 0.034648 0.009879 -0.012447
v 0.034648 0.009879 -0.010916
v 0.034648 0.009879 0.012447
v 0.034648 0.009879 0.010916
v 0.033807 0.007340 -0.012447
v 0.033807 0.007340 -0.010916
v 0.033807 0.007340 0.012447
v 0.033807 0.007340 0.010916
v 0.039935 0.005311 -0.012447
v 0.039935 0.005311 -0.010916
v 0.039935 0.005311 0.010916
v 0.039935 0.005311 0.012447
v 0.037037 0.011079 -0.012447
v 0.037037 0.011079 -0.010916
v 0.037037 0.011079 0.010916
v 0.037037 0.011079 0.012447
v 0.039575 0.010239 -0.012447
v 0.039575 0.010239 -0.010916
v 0.039575 0.010239 0.010916
v 0.039575 0.010239 0.012447
v 0.035008 0.004951 -0.012447
v 0.035008 0.004951 -0.010916
v 0.035008 0.004951 0.012447
v 0.035008 0.004951 0.010916
v 0.037546 0.004111 -0.012447
v 0.037546 0.004111 -0.010916
v 0.037546 0.004111 0.012447
v 0.037546 0.004111 0.010916
v 0.040776 0.007850 -0.012447
v 0.040776 0.007850 -0.010916
v 0.040776 0.007850 0.010916
v 0.040776 0.007850 0.012447
vn 0.0013 1.0000 -0.0000
vn 0.6938 0.7201 -0.0000
vn 1.0000 -0.0000 -0.0000
vn 0.7152 -0.6989 -0.0000
vn 0.3546 -0.9350 -0.0000
vn -0.3477 0.9376 -0.0000
vn -0.1756 0.9845 -0.0000
vn 0.3046 -0.9525 -0.0000
vn -0.0000 -0.0000 1.0000
vn -0.0000 -0.0000 -1.0000
vn 0.0001 -0.0000 -1.0000
vn 0.1791 0.9838 -0.0000
vn 0.1809 -0.9835 -0.0000
vn 0.0216 -0.0064 0.9997
vn 0.0087 -0.0037 1.0000
vn 0.3746 0.9272 -0.0000
vn 0.3749 0.9271 -0.0000
vn -0.1327 -0.9912 -0.0000
vn -0.1319 -0.9913 -0.0003
vn 0.6567 -0.2919 0.6954
vn 0.8718 -0.3875 0.2999
vn 0.8712 -0.3872 0.3019
vn 0.3993 0.9168 0.0100
vn 0.4019 0.9157 0.0067
vn 0.4027 0.9153 0.0087
vn -0.6407 0.2847 -0.7131
vn -0.8598 0.3821 -0.3388
vn -0.8601 0.3823 -0.3378
vn -0.3952 -0.9186 -0.0072
vn -0.4159 -0.9093 0.0145
vn -0.4119 -0.9111 0.0146
vn -0.2809 -0.9597 -0.0038
vn -0.3198 -0.9474 -0.0148
vn -0.2432 0.1081 -0.9639
vn -0.2305 0.1025 -0.9677
vn 0.4012 0.9160 0.0001
vn 0.4010 0.9161 0.0016
vn 0.2728 -0.1185 0.9547
vn 0.2813 -0.1250 0.9515
vn 0.3996 0.9167 0.0059
vn 0.6509 -0.2893 0.7019
vn -0.3817 -0.9243 0.0021
vn -0.6434 0.2860 -0.7101
vn 0.9134 -0.4060 0.0285
vn -0.3799 0.9232 -0.0586
vn 0.4061 0.9138 -0.0000
vn -0.9398 -0.3367 -0.0586
vn -0.4061 -0.9138 -0.0000
vn -0.3590 0.9334 -0.0000
vn -0.9333 -0.3590 -0.0000
vn 0.9138 -0.4061 -0.0000
vn 0.0001 -0.0000 1.0000
vn 0.0216 -0.0064 -0.9997
vn 0.6567 -0.2919 -0.6954
vn 0.8718 -0.3875 -0.2999
vn 0.6509 -0.2893 -0.7019
vn 0.3993 0.9168 -0.0100
vn 0.4019 0.9157 -0.0067
vn 0.3996 0.9167 -0.0059
vn -0.6407 0.2847 0.7131
vn -0.8598 0.3821 0.3388
vn -0.6434 0.2860 0.7101
vn -0.3952 -0.9186 0.0072
vn -0.4159 -0.9093 -0.0145
vn -0.3817 -0.9243 -0.0021
vn -0.1319 -0.9913 0.0003
vn -0.2809 -0.9597 0.0038
vn -0.2432 0.1081 0.9639
vn 0.4012 0.9160 -0.0001
vn 0.0087 -0.0037 -1.0000
vn 0.2728 -0.1185 -0.9547
vn 0.4010 0.9161 -0.0016
vn 0.2813 -0.1250 -0.9515
vn -0.3198 -0.9474 0.0148
vn -0.2305 0.1025 0.9677
vn 0.8712 -0.3872 -0.3019
vn 0.9134 -0.4060 -0.0285
vn 0.4027 0.9153 -0.0087
vn -0.3799 0.9232 0.0586
vn -0.8601 0.3823 0.3378
vn -0.9398 -0.3367 0.0586
vn -0.4119 -0.9111 -0.0146
vn 0.0729 -0.9973 -0.0000
vn 0.7568 -0.6537 -0.0000
vn -0.7568 0.6537 -0.0000
vn -0.9973 -0.0729 -0.0000
vn 0.9973 0.0729 -0.0000
vn -0.0729 0.9973 -0.0000
vn 0.6537 0.7568 -0.0000
vn -0.6537 -0.7568 -0.0000
vn -0.0001 -0.0000 1.0000
vt 1.000000 0.500000
vt 0.875000 1.000000
vt 0.875000 0.500000
vt 0.750000 1.000000
vt 0.750000 0.500000
vt 0.625000 1.000000
vt 0.625000 0.500000
vt 0.500000 1.000000
vt 0.500000 0.500000
vt 0.125000 1.000000
vt 0.361082 0.500000
vt 0.361082 1.000000
vt 0.263918 1.000000
vt 0.263918 0.500000
vt 0.250000 0.010000
vt -0.241930 0.291070
vt -0.072225 -0.118635
vt 0.580294 0.419706
vt 0.427775 -0.118635
vt 0.258070 0.291070
vt 0.125000 0.500000
vt 0.000000 1.000000
vt 0.000000 0.500000
vt 0.919706 0.419706
vt 0.824390 0.258306
vt 0.796532 0.312387
vt 0.185051 0.305180
vt 0.080294 0.419706
vt 0.166754 0.248440
vt 0.427775 -0.118635
vt 0.000000 0.000000
vt 1.000000 1.000000
vt 0.750000 0.010000
vt 0.824390 0.258306
vt 0.990000 0.250000
vt 0.185051 0.305180
vt 0.166754 0.248440
vt 0.125000 0.617665
vt 0.250000 0.633944
vt 0.250000 0.617665
vt 0.125000 0.866056
vt 0.250000 0.882335
vt 0.250000 0.866056
vt 0.490000 0.250000
vt 0.305778 0.201870
vt 0.324390 0.258306
vt 0.750000 0.617665
vt 0.875000 0.633944
vt 0.875000 0.617665
vt 0.750000 0.866056
vt 0.875000 0.882335
vt 0.875000 0.866056
vt 0.666754 0.248440
vt 0.375000 0.633944
vt 0.375000 0.617665
vt 0.375000 0.882335
vt 0.375000 0.866056
vt 0.625000 0.617665
vt 0.750000 0.633944
vt 0.625000 0.866056
vt 0.750000 0.882335
vt 0.919706 0.080294
vt 0.251895 0.175826
vt 0.194341 0.195081
vt 0.500000 0.617665
vt 0.625000 0.633944
vt 0.500000 0.866056
vt 0.625000 0.882335
vt 0.000000 0.617665
vt 0.125000 0.633944
vt 0.000000 0.866056
vt 0.125000 0.882335
vt 1.000000 0.633944
vt 1.000000 0.617665
vt 1.000000 0.882335
vt 1.000000 0.866056
vt 0.500000 0.633944
vt 0.500000 0.882335
vt 0.805778 0.201870
vt 0.685051 0.305180
vt 0.738547 0.332110
vt 0.796532 0.312387
vt 0.750000 0.490000
vt 0.751895 0.175826
vt 0.694341 0.195081
vt 0.194341 0.195081
vt 0.251895 0.175826
vt 0.419706 0.419706
vt 0.296532 0.312387
vt 0.250000 0.490000
vt 0.238547 0.332110
vt 0.419706 0.080294
vt 0.296532 0.312387
vt 0.324390 0.258306
vt 0.305778 0.201870
vt 0.238547 0.332110
vt 0.738547 0.332110
vt 0.805778 0.201870
vt 0.685051 0.305180
vt 0.694341 0.195081
vt 0.751895 0.175826
vt 0.666754 0.248440
vt 0.000000 0.633944
vt 0.000000 0.882335
s 1
f 1/1/1 4/2/2 3/3/2
f 3/3/2 6/4/3 5/5/3
f 5/5/3 8/6/4 7/7/4
f 7/7/4 10/8/5 9/9/5
f 16/10/6 12/11/7 11/12/7
f 9/9/5 13/13/8 14/14/8
f 10/15/9 11/16/9 13/17/9
f 15/18/10 14/19/10 12/20/10
f 15/21/6 2/22/1 1/23/1
f 13/17/9 20/16/9 18/17/9
f 3/24/10 113/25/10 101/26/10
f 86/27/9 16/28/9 90/29/11
f 11/12/7 19/11/12 20/12/12
f 12/20/10 17/19/10 19/20/10
f 14/14/8 18/13/13 17/14/13
f 18/17/9 24/16/14 22/17/15
f 20/12/12 23/11/16 24/12/17
f 19/20/10 21/19/10 23/20/10
f 17/14/13 22/13/18 21/14/19
f 30/17/20 28/16/21 26/17/22
f 29/12/23 27/11/24 28/12/25
f 31/20/26 25/19/27 27/20/28
f 32/14/29 26/13/30 25/14/31
f 21/14/19 36/13/32 34/14/33
f 23/20/10 34/30/34 33/20/35
f 24/12/17 33/11/36 35/12/37
f 22/17/15 35/16/38 36/17/39
f 35/12/37 31/11/40 29/12/23
f 36/17/39 29/16/41 30/17/20
f 34/14/33 30/13/42 32/14/29
f 33/20/35 32/19/43 31/20/26
f 26/17/22 39/16/44 37/17/44
f 28/12/25 38/11/45 39/12/46
f 27/20/28 40/19/47 38/20/45
f 25/14/31 37/13/48 40/14/47
f 40/31/47 44/31/49 38/31/45
f 40/14/47 41/13/48 43/14/50
f 37/17/44 42/16/51 41/17/51
f 39/12/46 44/11/49 42/12/46
f 45/1/1 48/2/2 46/32/1
f 47/3/2 50/4/3 48/2/2
f 49/5/3 52/6/4 50/4/3
f 51/7/4 54/8/5 52/6/4
f 60/10/6 56/11/7 59/21/6
f 53/9/5 57/13/8 54/8/5
f 54/15/10 55/16/10 60/28/10
f 59/18/9 58/19/9 53/33/9
f 59/21/6 46/22/1 60/10/6
f 57/17/10 64/16/10 55/16/10
f 47/24/9 116/34/9 49/35/9
f 60/28/10 88/36/10 92/37/52
f 55/12/7 63/11/12 56/11/7
f 56/20/9 61/19/9 58/19/9
f 58/14/8 62/13/13 57/13/8
f 62/17/10 68/16/53 64/16/10
f 64/12/12 67/11/16 63/11/12
f 63/20/9 65/19/9 61/19/9
f 61/14/13 66/13/18 62/13/13
f 74/17/54 72/16/55 73/16/56
f 73/12/57 71/11/58 75/11/59
f 75/20/60 69/19/61 76/19/62
f 76/14/63 70/13/64 74/13/65
f 65/14/66 80/13/67 66/13/18
f 67/20/9 78/30/68 65/19/9
f 68/12/17 77/11/69 67/11/16
f 66/17/70 79/16/71 68/16/53
f 79/12/72 75/11/59 77/11/69
f 80/17/73 73/16/56 79/16/71
f 78/14/74 74/13/65 80/13/67
f 77/20/75 76/19/62 78/30/68
f 70/17/76 83/16/77 72/16/55
f 72/12/78 82/11/79 71/11/58
f 71/20/80 84/19/81 69/19/61
f 69/14/82 81/13/48 70/13/64
f 84/31/81 44/31/49 43/31/50
f 84/14/81 41/13/48 81/13/48
f 81/17/77 42/16/51 83/16/77
f 83/12/46 44/11/49 82/11/79
f 97/38/83 86/39/84 85/40/84
f 99/41/83 87/42/84 88/43/84
f 50/44/10 95/45/10 115/46/10
f 93/47/85 114/48/86 113/49/86
f 95/50/85 116/51/86 115/52/86
f 53/33/9 91/53/9 59/18/9
f 85/40/84 90/54/87 89/55/87
f 88/43/84 91/56/87 92/57/87
f 109/58/88 94/59/85 93/47/85
f 112/60/88 96/61/85 95/50/85
f 7/62/10 113/25/10 5/35/10
f 10/15/9 110/63/9 106/64/9
f 105/65/89 110/66/88 109/58/88
f 108/67/89 111/68/88 112/60/88
f 101/69/90 98/70/83 97/38/83
f 103/71/90 100/72/83 99/41/83
f 113/49/86 102/73/90 101/74/90
f 115/52/86 104/75/90 103/76/90
f 89/55/87 106/77/89 105/65/89
f 92/57/87 107/78/89 108/67/89
f 49/35/9 96/79/9 51/62/9
f 59/18/9 91/53/9 87/80/9
f 47/24/9 100/81/9 104/82/9
f 45/83/9 87/80/9 100/81/9
f 53/33/9 111/84/9 107/85/9
f 51/62/9 111/84/9 53/33/9
f 60/28/10 108/86/10 54/15/10
f 54/15/10 108/86/10 112/87/10
f 48/88/10 115/46/10 103/89/10
f 46/90/10 103/89/10 99/91/10
f 52/92/10 112/87/10 95/45/10
f 60/28/10 99/91/10 88/36/10
f 6/44/9 102/93/9 114/94/9
f 6/44/9 94/95/9 8/92/9
f 8/92/9 110/63/9 10/15/9
f 16/28/9 106/64/9 90/29/11
f 2/90/9 86/27/9 98/96/9
f 4/88/9 98/96/9 102/93/9
f 1/83/10 101/26/10 97/97/10
f 9/33/10 93/98/10 7/62/10
f 15/18/10 97/97/10 85/99/10
f 9/33/10 105/100/10 109/101/10
f 15/18/10 105/100/10 9/33/10
f 89/102/91 15/18/10 85/99/10
f 1/1/1 2/32/1 4/2/2
f 3/3/2 4/2/2 6/4/3
f 5/5/3 6/4/3 8/6/4
f 7/7/4 8/6/4 10/8/5
f 16/10/6 15/21/6 12/11/7
f 9/9/5 10/8/5 13/13/8
f 10/15/9 16/28/9 11/16/9
f 15/18/10 9/33/10 14/19/10
f 15/21/6 16/10/6 2/22/1
f 13/17/9 11/16/9 20/16/9
f 3/24/10 5/35/10 113/25/10
f 11/12/7 12/11/7 19/11/12
f 12/20/10 14/19/10 17/19/10
f 14/14/8 13/13/8 18/13/13
f 18/17/9 20/16/9 24/16/14
f 20/12/12 19/11/12 23/11/16
f 19/20/10 17/19/10 21/19/10
f 17/14/13 18/13/13 22/13/18
f 30/17/20 29/16/41 28/16/21
f 29/12/23 31/11/40 27/11/24
f 31/20/26 32/19/43 25/19/27
f 32/14/29 30/13/42 26/13/30
f 21/14/19 22/13/18 36/13/32
f 23/20/10 21/19/10 34/30/34
f 24/12/17 23/11/16 33/11/36
f 22/17/15 24/16/14 35/16/38
f 35/12/37 33/11/36 31/11/40
f 36/17/39 35/16/38 29/16/41
f 34/14/33 36/13/32 30/13/42
f 33/20/35 34/30/34 32/19/43
f 26/17/22 28/16/21 39/16/44
f 28/12/25 27/11/24 38/11/45
f 27/20/28 25/19/27 40/19/47
f 25/14/31 26/13/30 37/13/48
f 40/31/47 43/31/50 44/31/49
f 40/14/47 37/13/48 41/13/48
f 37/17/44 39/16/44 42/16/51
f 39/12/46 38/11/45 44/11/49
f 45/1/1 47/3/2 48/2/2
f 47/3/2 49/5/3 50/4/3
f 49/5/3 51/7/4 52/6/4
f 51/7/4 53/9/5 54/8/5
f 60/10/6 55/12/7 56/11/7
f 53/9/5 58/14/8 57/13/8
f 54/15/10 57/17/10 55/16/10
f 59/18/9 56/20/9 58/19/9
f 59/21/6 45/23/1 46/22/1
f 57/17/10 62/17/10 64/16/10
f 47/24/9 104/82/9 116/34/9
f 55/12/7 64/12/12 63/11/12
f 56/20/9 63/20/9 61/19/9
f 58/14/8 61/14/13 62/13/13
f 62/17/10 66/17/70 68/16/53
f 64/12/12 68/12/17 67/11/16
f 63/20/9 67/20/9 65/19/9
f 61/14/13 65/14/66 66/13/18
f 74/17/54 70/17/76 72/16/55
f 73/12/57 72/12/78 71/11/58
f 75/20/60 71/20/80 69/19/61
f 76/14/63 69/14/82 70/13/64
f 65/14/66 78/14/74 80/13/67
f 67/20/9 77/20/75 78/30/68
f 68/12/17 79/12/72 77/11/69
f 66/17/70 80/17/73 79/16/71
f 79/12/72 73/12/57 75/11/59
f 80/17/73 74/17/54 73/16/56
f 78/14/74 76/14/63 74/13/65
f 77/20/75 75/20/60 76/19/62
f 70/17/76 81/17/77 83/16/77
f 72/12/78 83/12/46 82/11/79
f 71/20/80 82/20/79 84/19/81
f 69/14/82 84/14/81 81/13/48
f 84/31/81 82/31/79 44/31/49
f 84/14/81 43/14/50 41/13/48
f 81/17/77 41/17/51 42/16/51
f 83/12/46 42/12/46 44/11/49
f 97/38/83 98/70/83 86/39/84
f 99/41/83 100/72/83 87/42/84
f 50/44/10 52/92/10 95/45/10
f 93/47/85 94/59/85 114/48/86
f 95/50/85 96/61/85 116/51/86
f 53/33/9 107/85/9 91/53/9
f 85/40/84 86/39/84 90/54/87
f 88/43/84 87/42/84 91/56/87
f 109/58/88 110/66/88 94/59/85
f 112/60/88 111/68/88 96/61/85
f 7/62/10 93/98/10 113/25/10
f 105/65/89 106/77/89 110/66/88
f 108/67/89 107/78/89 111/68/88
f 101/69/90 102/103/90 98/70/83
f 103/71/90 104/104/90 100/72/83
f 113/49/86 114/48/86 102/73/90
f 115/52/86 116/51/86 104/75/90
f 89/55/87 90/54/87 106/77/89
f 92/57/87 91/56/87 107/78/89
f 49/35/9 116/34/9 96/79/9
f 47/24/9 45/83/9 100/81/9
f 45/83/9 59/18/9 87/80/9
f 51/62/9 96/79/9 111/84/9
f 60/28/10 92/37/52 108/86/10
f 48/88/10 50/44/10 115/46/10
f 46/90/10 48/88/10 103/89/10
f 52/92/10 54/15/10 112/87/10
f 60/28/10 46/90/10 99/91/10
f 6/44/9 4/88/9 102/93/9
f 6/44/9 114/94/9 94/95/9
f 8/92/9 94/95/9 110/63/9
f 16/28/9 10/15/9 106/64/9
f 2/90/9 16/28/9 86/27/9
f 4/88/9 2/90/9 98/96/9
f 1/83/10 3/24/10 101/26/10
f 9/33/10 109/101/10 93/98/10
f 15/18/10 1/83/10 97/97/10
f 15/18/10 89/102/91 105/100/10
